<?xml version="1.0" encoding="UTF-8"?>
<svg width="1004.65" height="210.414" overflow="hidden" version="1.1" xmlns="http://www.w3.org/2000/svg">
 <defs>
  <clipPath id="clipPath394">
   <rect width="1280" height="720"/>
  </clipPath>
  <clipPath id="clipPath400">
   <rect width="1280" height="720"/>
  </clipPath>
  <clipPath id="clipPath406">
   <rect width="1280" height="720"/>
  </clipPath>
  <clipPath id="clipPath412">
   <rect width="1280" height="720"/>
  </clipPath>
  <clipPath id="clipPath418">
   <rect width="1280" height="720"/>
  </clipPath>
  <clipPath id="clipPath424">
   <rect width="1280" height="720"/>
  </clipPath>
  <clipPath id="clipPath430">
   <rect width="1280" height="720"/>
  </clipPath>
  <clipPath id="clipPath436">
   <rect width="1280" height="720"/>
  </clipPath>
  <clipPath id="clipPath442">
   <rect width="1280" height="720"/>
  </clipPath>
  <clipPath id="clipPath448">
   <rect width="1280" height="720"/>
  </clipPath>
  <clipPath id="clipPath454">
   <rect width="1280" height="720"/>
  </clipPath>
  <clipPath id="clipPath460">
   <rect width="1280" height="720"/>
  </clipPath>
  <clipPath id="clipPath466">
   <rect width="1280" height="720"/>
  </clipPath>
  <clipPath id="clipPath472">
   <rect width="1280" height="720"/>
  </clipPath>
  <clipPath id="clipPath478">
   <rect width="1280" height="720"/>
  </clipPath>
  <clipPath id="clipPath484">
   <rect width="1280" height="720"/>
  </clipPath>
  <clipPath id="clipPath490">
   <rect width="1280" height="720"/>
  </clipPath>
  <clipPath id="clipPath496">
   <rect width="1280" height="720"/>
  </clipPath>
  <clipPath id="clipPath502">
   <rect width="1280" height="720"/>
  </clipPath>
  <clipPath id="clipPath508">
   <rect width="1280" height="720"/>
  </clipPath>
  <clipPath id="clipPath514">
   <rect width="1280" height="720"/>
  </clipPath>
 </defs>
 <path transform="translate(-127 -228.086)" d="m127 308h994.65v4h-994.65zm992.65-4 12 6-12 6z" clip-path="url(#clipPath514)" fill="#ed7d31"/>
 <g fill="#fff" fill-rule="evenodd" stroke="#70ad47" stroke-miterlimit="8" stroke-width="1.33333">
  <path transform="translate(-127 -228.086)" d="m182.5 311c0-8.56 7.163-15.5 16-15.5s16 6.94 16 15.5-7.163 15.5-16 15.5-16-6.94-16-15.5z" clip-path="url(#clipPath508)"/>
  <path transform="translate(-127 -228.086)" d="m626.5 311.5c0-8.836 6.94-16 15.5-16s15.5 7.164 15.5 16c0 8.837-6.94 16-15.5 16s-15.5-7.163-15.5-16z" clip-path="url(#clipPath502)"/>
  <path transform="translate(-127 -228.086)" d="m475.5 311.5c0-8.836 6.94-16 15.5-16s15.5 7.164 15.5 16c0 8.837-6.94 16-15.5 16s-15.5-7.163-15.5-16z" clip-path="url(#clipPath496)"/>
  <path transform="translate(-127 -228.086)" d="m308.5 311.5c0-8.836 6.94-16 15.5-16s15.5 7.164 15.5 16c0 8.837-6.94 16-15.5 16s-15.5-7.163-15.5-16z" clip-path="url(#clipPath490)"/>
  <path transform="translate(-127 -228.086)" d="m232.5 311.5c0-8.836 6.94-16 15.5-16s15.5 7.164 15.5 16c0 8.837-6.94 16-15.5 16s-15.5-7.163-15.5-16z" clip-path="url(#clipPath484)"/>
 </g>
 <path transform="translate(-127 -228.086)" d="m355 311 29.12 54.039" clip-path="url(#clipPath478)" fill="none" fill-rule="evenodd" stroke="#ed7d31" stroke-miterlimit="8" stroke-width="4"/>
 <path transform="translate(-127 -228.086)" d="m384 363h737.17v4h-737.17zm735.16-4 12 6-12 6z" clip-path="url(#clipPath472)" fill="#ed7d31"/>
 <path transform="translate(-127 -228.086)" d="m697.5 311c0-8.56 6.94-15.5 15.5-15.5s15.5 6.94 15.5 15.5-6.94 15.5-15.5 15.5-15.5-6.94-15.5-15.5z" clip-path="url(#clipPath466)" fill="#4472c4" fill-rule="evenodd" stroke="#2f528f" stroke-miterlimit="8" stroke-width="1.33333"/>
 <g fill="#fff" fill-rule="evenodd" stroke="#70ad47" stroke-miterlimit="8" stroke-width="1.33333">
  <path transform="translate(-127 -228.086)" d="m583.5 365c0-8.56 6.94-15.5 15.5-15.5s15.5 6.94 15.5 15.5-6.94 15.5-15.5 15.5-15.5-6.94-15.5-15.5z" clip-path="url(#clipPath460)"/>
  <path transform="translate(-127 -228.086)" d="m500.5 365c0-8.56 6.94-15.5 15.5-15.5s15.5 6.94 15.5 15.5-6.94 15.5-15.5 15.5-15.5-6.94-15.5-15.5z" clip-path="url(#clipPath454)"/>
  <path transform="translate(-127 -228.086)" d="m414.5 365c0-8.56 6.94-15.5 15.5-15.5s15.5 6.94 15.5 15.5-6.94 15.5-15.5 15.5-15.5-6.94-15.5-15.5z" clip-path="url(#clipPath448)"/>
  <path transform="translate(-127 -228.086)" d="m860.5 365c0-8.56 6.94-15.5 15.5-15.5s15.5 6.94 15.5 15.5-6.94 15.5-15.5 15.5-15.5-6.94-15.5-15.5z" clip-path="url(#clipPath442)"/>
  <path transform="translate(-127 -228.086)" d="m737.5 366.5c0-8.836 6.94-16 15.5-16s15.5 7.164 15.5 16c0 8.837-6.94 16-15.5 16s-15.5-7.163-15.5-16z" clip-path="url(#clipPath436)"/>
  <path transform="translate(-127 -228.086)" d="m693.5 365c0-8.56 6.94-15.5 15.5-15.5s15.5 6.94 15.5 15.5-6.94 15.5-15.5 15.5-15.5-6.94-15.5-15.5z" clip-path="url(#clipPath430)"/>
 </g>
 <path transform="translate(-127 -228.086)" d="m913.5 366c0-8.56 7.164-15.5 16-15.5 8.837 0 16 6.94 16 15.5s-7.163 15.5-16 15.5c-8.836 0-16-6.94-16-15.5z" clip-path="url(#clipPath424)" fill="#4472c4" fill-rule="evenodd" stroke="#2f528f" stroke-miterlimit="8" stroke-width="1.33333"/>
 <g fill="#00b050" aria-label="main branchfeature branchcommits">
  <path d="m885.683 73.5156q-0.0234 0.117187-0.11719 0.210937-0.082 0.08203-0.26953 0.140625-0.1875 0.05859-0.48047 0.08203-0.28125 0.03516-0.71484 0.03516-0.42188 0-0.70313-0.03516-0.28125-0.02344-0.43359-0.08203-0.15235-0.05859-0.21094-0.140625-0.0469-0.09375-0.0117-0.210937l1.25391-6.26953q0.0469-0.269532 0.082-0.527344 0.0352-0.269531 0.0352-0.539063 0-0.550781-0.21094-0.890625-0.19922-0.339843-0.72656-0.339843-0.46875 0-0.97266 0.304687-0.50391 0.304688-0.97266 0.832031-0.45703 0.515625-0.82031 1.21875-0.35156 0.691407-0.50391 1.47656l-0.94921 4.73438q-0.0234 0.117187-0.11719 0.210937-0.082 0.08203-0.26953 0.140625-0.1875 0.05859-0.48047 0.08203-0.28125 0.03516-0.71485 0.03516-0.42187 0-0.70312-0.03516-0.26953-0.02344-0.42188-0.08203-0.15234-0.05859-0.21093-0.140625-0.0469-0.09375-0.0234-0.210937l1.24219-6.26953q0.0703-0.269532 0.0937-0.550782 0.0351-0.292968 0.0351-0.5625 0-0.515625-0.21093-0.84375-0.21094-0.339843-0.72657-0.339843-0.46875 0-0.97265 0.304687-0.50391 0.304688-0.97266 0.832031-0.45703 0.515625-0.82031 1.21875-0.35156 0.691407-0.50391 1.47656l-0.94922 4.73438q-0.0234 0.117187-0.11718 0.210937-0.082 0.08203-0.26954 0.140625-0.17578 0.05859-0.46875 0.08203-0.29296 0.03516-0.71484 0.03516-0.43359 0-0.71484-0.03516-0.26953-0.02344-0.4336-0.08203-0.15234-0.05859-0.19922-0.140625-0.0469-0.09375-0.0234-0.210937l2.09765-10.4648q0.0234-0.117187 0.0937-0.199219 0.082-0.09375 0.23438-0.140625 0.16406-0.05859 0.41015-0.08203 0.25782-0.03516 0.60938-0.03516 0.36328 0 0.58594 0.03516 0.23437 0.02344 0.36328 0.08203 0.1289 0.04687 0.16406 0.140625 0.0469 0.08203 0.0234 0.199219l-0.33985 1.72266q0.2461-0.410156 0.65625-0.832031 0.41016-0.433594 0.92579-0.773437 0.52734-0.339844 1.13671-0.550782 0.6211-0.222656 1.27735-0.222656 0.67969 0 1.17187 0.1875 0.50391 0.175781 0.82032 0.503906 0.32812 0.316407 0.49218 0.75 0.17578 0.433594 0.22266 0.9375 0.26953-0.421875 0.67969-0.84375 0.42187-0.421875 0.9375-0.761718 0.52734-0.339844 1.13672-0.550782 0.60937-0.222656 1.2539-0.222656 0.82031 0 1.3711 0.234375 0.5625 0.222656 0.90234 0.632813 0.33984 0.398437 0.49219 0.949218 0.15234 0.539063 0.15234 1.17188 0 0.410157-0.0469 0.832032-0.0469 0.410156-0.14063 0.84375z"/>
  <path d="m898.325 73.5273q-0.0469 0.246093-0.375 0.351562-0.31641 0.105469-1.03125 0.105469-0.36328 0-0.59766-0.02344-0.22266-0.02344-0.36328-0.07031-0.14063-0.05859-0.1875-0.140625-0.0352-0.09375-0.0117-0.222656l0.32813-1.67578q-0.17579 0.375-0.5625 0.796875-0.38672 0.410157-0.91407 0.75-0.52734 0.339844-1.17187 0.5625-0.63281 0.222657-1.3125 0.222657-0.9375 0-1.5586-0.328125-0.62109-0.328125-0.99609-0.878907-0.375-0.5625-0.53906-1.27734-0.15235-0.714844-0.15235-1.5 0-0.738282 0.14063-1.60547 0.14062-0.878906 0.43359-1.74609 0.29297-0.867187 0.75-1.66406 0.45703-0.808594 1.08985-1.42969 0.64453-0.621094 1.46484-0.984375 0.83203-0.375 1.875-0.375 0.97266 0 1.72266 0.410156 0.75 0.398438 1.3125 1.17188l0.1875-0.925781q0.0469-0.246094 0.36328-0.351562 0.32812-0.105469 1.04297-0.105469 0.35156 0 0.58593 0.03516 0.23438 0.02344 0.36329 0.08203 0.14062 0.04687 0.1875 0.140625 0.0469 0.08203 0.0234 0.199219zm-1.45313-7.33594q-0.41015-0.644531-0.91406-0.960937-0.49219-0.328125-1.14844-0.328125-0.49219 0-0.90234 0.234375-0.41016 0.234375-0.72656 0.632812-0.31641 0.386719-0.5625 0.902344-0.23438 0.515625-0.39844 1.07812-0.15235 0.550781-0.23438 1.125-0.0703 0.5625-0.0703 1.04297 0 0.351562 0.0469 0.667968 0.0586 0.316407 0.19921 0.5625 0.14063 0.246094 0.375 0.398438 0.23438 0.140625 0.59766 0.140625 0.51563 0 1.05469-0.304688 0.53906-0.316406 1.00781-0.84375 0.46875-0.539062 0.82031-1.24219 0.36328-0.714844 0.52735-1.52344z"/>
  <path d="m907.255 59.5469q-0.082 0.433594-0.22265 0.738281-0.14063 0.292969-0.375 0.480469-0.23438 0.175781-0.57422 0.257812-0.33984 0.07031-0.84375 0.07031-0.49219 0-0.80859-0.07031-0.30469-0.08203-0.46875-0.257812-0.15235-0.1875-0.17579-0.480469-0.0234-0.304687 0.0703-0.738281 0.082-0.421875 0.22265-0.714844 0.14063-0.292969 0.375-0.480469 0.23438-0.1875 0.57422-0.269531 0.33987-0.082031 0.84377-0.082031 0.49219 0 0.79688 0.08203 0.3164 0.08203 0.46875 0.269531 0.16406 0.1875 0.17578 0.480469 0.0234 0.292969-0.0586 0.714844zm-3.02343 13.9688q-0.0234 0.117187-0.11719 0.210937-0.082 0.08203-0.26953 0.140625-0.17578 0.05859-0.46875 0.08203-0.29297 0.03516-0.71485 0.03516-0.43359 0-0.71484-0.03516-0.26953-0.02344-0.43359-0.08203-0.15235-0.05859-0.19922-0.140625-0.0469-0.09375-0.0234-0.210937l2.07422-10.4297q0.0234-0.117187 0.10547-0.199218 0.0937-0.09375 0.26953-0.152344 0.1875-0.07031 0.46875-0.105469 0.29297-0.03516 0.72656-0.03516 0.4336 0 0.70313 0.03516 0.28125 0.03516 0.43359 0.105469 0.16406 0.05859 0.21094 0.152344 0.0469 0.08203 0.0234 0.199218z"/>
  <path d="m918.423 65.3945q0 0.410156-0.0586 0.820313-0.0469 0.410156-0.12891 0.84375l-1.30078 6.45703q-0.0234 0.117187-0.11719 0.210937-0.082 0.08203-0.26953 0.140625-0.17578 0.05859-0.46875 0.08203-0.28125 0.03516-0.71484 0.03516t-0.71484-0.03516q-0.26954-0.02344-0.42188-0.08203t-0.21094-0.140625q-0.0469-0.09375-0.0234-0.210937l1.26562-6.26953q0.0586-0.28125 0.082-0.574219 0.0352-0.292969 0.0352-0.515625 0-0.527344-0.22266-0.867188-0.22265-0.339843-0.75-0.339843-0.48047 0-1.00781 0.304687-0.51563 0.304688-0.98438 0.832031-0.45703 0.515625-0.82031 1.21875-0.36328 0.691407-0.51562 1.47656l-0.94922 4.73438q-0.0234 0.117187-0.11719 0.210937-0.082 0.08203-0.26953 0.140625-0.17578 0.05859-0.46875 0.08203-0.29297 0.03516-0.71484 0.03516-0.4336 0-0.71485-0.03516-0.26953-0.02344-0.43359-0.08203-0.15235-0.05859-0.19922-0.140625-0.0469-0.09375-0.0234-0.210937l2.09766-10.4648q0.0234-0.117187 0.0937-0.199219 0.082-0.09375 0.23437-0.140625 0.16407-0.05859 0.41016-0.08203 0.25781-0.03516 0.60937-0.03516 0.36329 0 0.58594 0.03516 0.23438 0.02344 0.36328 0.08203 0.12891 0.04687 0.16407 0.140625 0.0469 0.08203 0.0234 0.199219l-0.33984 1.72266q0.24609-0.410156 0.65625-0.832031 0.41016-0.433594 0.9375-0.773437 0.53906-0.339844 1.16016-0.550782 0.63281-0.222656 1.3125-0.222656 0.82031 0 1.37109 0.246094 0.5625 0.234375 0.90234 0.644531 0.35157 0.410156 0.50391 0.960938 0.15234 0.539062 0.15234 1.14844z"/>
  <path d="m936.798 66.3789q0 0.773438-0.14062 1.65234-0.14063 0.878906-0.4336 1.74609-0.29296 0.867187-0.75 1.66406-0.45703 0.796875-1.10156 1.40625t-1.47656 0.972656q-0.82031 0.363282-1.83984 0.363282-0.98438 0-1.7461-0.386719-0.75-0.386719-1.30078-1.17188l-0.17578 0.890625q-0.0469 0.246094-0.375 0.363281-0.31641 0.105469-1.03125 0.105469-0.70313 0-0.96094-0.117188-0.24609-0.117187-0.19922-0.351562l3.08203-15.4102q0.0234-0.117188 0.10547-0.210938 0.082-0.09375 0.26953-0.152344 0.1875-0.07031 0.46875-0.105468 0.29297-0.03516 0.72657-0.03516 0.43359 0 0.70312 0.03516t0.42188 0.105468q0.16406 0.05859 0.21093 0.152344 0.0469 0.09375 0.0234 0.210938l-0.83203 4.19531q-0.0586 0.269531-0.12891 0.574219-0.0703 0.292969-0.16406 0.585937-0.082 0.292969-0.17578 0.574219-0.082 0.269531-0.16406 0.480469 0.21094-0.375 0.59765-0.75 0.39844-0.386719 0.90235-0.691406 0.5039-0.304688 1.07812-0.492188 0.58594-0.1875 1.17188-0.1875 0.66797 0 1.16015 0.175781 0.49219 0.164063 0.85547 0.457032 0.36328 0.292968 0.59766 0.691406 0.23437 0.398437 0.375 0.84375 0.14062 0.433594 0.1875 0.902344 0.0586 0.46875 0.0586 0.914062zm-3.03515 0.292969q0-0.292969-0.0469-0.609375-0.0351-0.316406-0.17578-0.574219-0.12891-0.257812-0.36328-0.421875-0.23438-0.164062-0.62109-0.164062-0.52735 0-1.06641 0.316406-0.52734 0.304687-0.99609 0.84375-0.46875 0.539062-0.83204 1.25391-0.36328 0.714844-0.51562 1.52344l-0.32813 1.58203q0.41016 0.644531 0.90235 0.960937 0.5039 0.304688 1.16015 0.304688 0.46875 0 0.86719-0.222656 0.39844-0.234375 0.71485-0.609375 0.32812-0.375 0.5625-0.878907 0.24609-0.503906 0.41015-1.05469 0.16406-0.5625 0.2461-1.13672 0.082-0.574219 0.082-1.11328z"/>
  <path d="m946.607 62.8984q0 0.08203-0.0234 0.292969-0.0234 0.210938-0.0703 0.492188t-0.11719 0.585937q-0.0703 0.292969-0.16406 0.550781-0.082 0.257813-0.19922 0.421875-0.10547 0.164063-0.23438 0.164063-0.10547 0-0.21093-0.03516-0.10547-0.04687-0.23438-0.08203-0.12891-0.04687-0.28125-0.08203-0.15234-0.04687-0.35156-0.04687-0.39844 0-0.85547 0.304688-0.44531 0.304687-0.85547 0.808593-0.41016 0.492188-0.73828 1.16016-0.31641 0.65625-0.45703 1.38281l-0.9375 4.69922q-0.0234 0.117187-0.11719 0.210937-0.082 0.08203-0.26953 0.140625-0.17578 0.05859-0.46875 0.08203-0.29297 0.03516-0.71484 0.03516-0.4336 0-0.71485-0.03516-0.26953-0.02344-0.43359-0.08203-0.15235-0.05859-0.19922-0.140625-0.0469-0.09375-0.0234-0.210937l2.08594-10.4648q0.0234-0.117187 0.10547-0.199219 0.082-0.09375 0.23437-0.140625 0.16407-0.05859 0.41016-0.08203 0.25781-0.03516 0.60937-0.03516 0.36329 0 0.58594 0.03516 0.23438 0.02344 0.36328 0.08203 0.12891 0.04687 0.16407 0.140625 0.0469 0.08203 0.0234 0.199219l-0.32812 1.66406q0.28125-0.503907 0.64453-0.925782 0.375-0.421875 0.78516-0.726562 0.42187-0.316406 0.86718-0.492188 0.44532-0.175781 0.87891-0.175781 0.17578 0 0.35156 0.02344 0.1875 0.02344 0.33985 0.05859 0.16406 0.03516 0.28125 0.09375 0.1289 0.04687 0.19921 0.105469 0.0703 0.07031 0.0703 0.222656z"/>
  <path d="m956.087 73.5273q-0.0469 0.246093-0.375 0.351562-0.31641 0.105469-1.03125 0.105469-0.36329 0-0.59766-0.02344-0.22266-0.02344-0.36328-0.07031-0.14063-0.05859-0.1875-0.140625-0.0352-0.09375-0.0117-0.222656l0.32812-1.67578q-0.17578 0.375-0.5625 0.796875-0.38671 0.410157-0.91406 0.75-0.52734 0.339844-1.17187 0.5625-0.63282 0.222657-1.3125 0.222657-0.9375 0-1.5586-0.328125-0.62109-0.328125-0.99609-0.878907-0.375-0.5625-0.53906-1.27734-0.15235-0.714844-0.15235-1.5 0-0.738282 0.14063-1.60547 0.14062-0.878906 0.43359-1.74609 0.29297-0.867187 0.75-1.66406 0.45703-0.808594 1.08985-1.42969 0.64453-0.621094 1.46484-0.984375 0.83203-0.375 1.875-0.375 0.97266 0 1.72266 0.410156 0.75 0.398438 1.3125 1.17188l0.1875-0.925781q0.0469-0.246094 0.36328-0.351562 0.32812-0.105469 1.04297-0.105469 0.35156 0 0.58593 0.03516 0.23438 0.02344 0.36328 0.08203 0.14063 0.04687 0.1875 0.140625 0.0469 0.08203 0.0234 0.199219zm-1.45313-7.33594q-0.41016-0.644531-0.91406-0.960937-0.49219-0.328125-1.14844-0.328125-0.49219 0-0.90234 0.234375-0.41016 0.234375-0.72657 0.632812-0.3164 0.386719-0.5625 0.902344-0.23437 0.515625-0.39843 1.07812-0.15235 0.550781-0.23438 1.125-0.0703 0.5625-0.0703 1.04297 0 0.351562 0.0469 0.667968 0.0586 0.316407 0.19922 0.5625 0.14063 0.246094 0.375 0.398438 0.23438 0.140625 0.59766 0.140625 0.51562 0 1.05469-0.304688 0.53906-0.316406 1.00781-0.84375 0.46875-0.539062 0.82031-1.24219 0.36328-0.714844 0.52735-1.52344z"/>
  <path d="m970.29 65.3945q0 0.410156-0.0586 0.820313-0.0469 0.410156-0.12891 0.84375l-1.30078 6.45703q-0.0234 0.117187-0.11719 0.210937-0.082 0.08203-0.26953 0.140625-0.17578 0.05859-0.46875 0.08203-0.28125 0.03516-0.71484 0.03516-0.4336 0-0.71485-0.03516-0.26953-0.02344-0.42187-0.08203-0.15235-0.05859-0.21094-0.140625-0.0469-0.09375-0.0234-0.210937l1.26563-6.26953q0.0586-0.28125 0.082-0.574219 0.0352-0.292969 0.0352-0.515625 0-0.527344-0.22266-0.867188-0.22266-0.339843-0.75-0.339843-0.48047 0-1.00781 0.304687-0.51563 0.304688-0.98438 0.832031-0.45703 0.515625-0.82031 1.21875-0.36328 0.691407-0.51563 1.47656l-0.94921 4.73438q-0.0234 0.117187-0.11719 0.210937-0.082 0.08203-0.26953 0.140625-0.17578 0.05859-0.46875 0.08203-0.29297 0.03516-0.71485 0.03516-0.43359 0-0.71484-0.03516-0.26953-0.02344-0.43359-0.08203-0.15235-0.05859-0.19922-0.140625-0.0469-0.09375-0.0234-0.210937l2.09766-10.4648q0.0234-0.117187 0.0937-0.199219 0.082-0.09375 0.23437-0.140625 0.16406-0.05859 0.41016-0.08203 0.25781-0.03516 0.60937-0.03516 0.36328 0 0.58594 0.03516 0.23437 0.02344 0.36328 0.08203 0.12891 0.04687 0.16406 0.140625 0.0469 0.08203 0.0234 0.199219l-0.33984 1.72266q0.24609-0.410156 0.65625-0.832031 0.41015-0.433594 0.9375-0.773437 0.53906-0.339844 1.16015-0.550782 0.63282-0.222656 1.3125-0.222656 0.82032 0 1.3711 0.246094 0.5625 0.234375 0.90234 0.644531 0.35156 0.410156 0.50391 0.960938 0.15234 0.539062 0.15234 1.14844z"/>
  <path d="m981.294 63.7539q0 0.269531-0.0703 0.609375-0.0586 0.339844-0.16406 0.644531-0.10547 0.304688-0.26953 0.515625-0.15234 0.199219-0.33984 0.199219-0.17578 0-0.33985-0.140625-0.16406-0.140625-0.41015-0.316406-0.23438-0.175781-0.59766-0.316406-0.36328-0.152344-0.9375-0.152344-0.60937 0-1.08984 0.269531t-0.84375 0.703125q-0.35157 0.421875-0.58594 0.972656-0.23438 0.539063-0.38672 1.10156-0.15234 0.550781-0.22266 1.06641-0.0586 0.503906-0.0586 0.878906 0 0.949219 0.41016 1.44141 0.42187 0.492187 1.3125 0.492187 0.65625 0 1.125-0.164062 0.46875-0.175782 0.79687-0.375 0.33985-0.210938 0.57422-0.375 0.24609-0.164063 0.44531-0.164063 0.11719 0 0.16407 0.105469 0.0586 0.105469 0.0586 0.304687 0 0.199219-0.0469 0.503907-0.0469 0.292968-0.1289 0.597656-0.0703 0.304687-0.17578 0.574219-0.0937 0.257812-0.25782 0.410156-0.15234 0.152344-0.49218 0.351562-0.33985 0.1875-0.78516 0.339844t-0.97266 0.246094q-0.51562 0.09375-1.07812 0.09375-2.00391 0-3-1.00781-0.99609-1.01953-0.99609-3 0-0.714843 0.1289-1.57031 0.14063-0.855469 0.44531-1.71094 0.30469-0.867187 0.78516-1.67578 0.49219-0.808594 1.19531-1.42969 0.70313-0.621094 1.62891-0.996094t2.13281-0.375q0.46875 0 0.91406 0.07031 0.44532 0.07031 0.82032 0.199219 0.375 0.117188 0.65625 0.28125 0.29297 0.164063 0.43359 0.304688 0.14063 0.128906 0.17578 0.234375 0.0469 0.105468 0.0469 0.257812z"/>
  <path d="m991.349 73.5156q-0.0234 0.117187-0.11718 0.210937-0.082 0.08203-0.26953 0.140625-0.17579 0.05859-0.46875 0.08203-0.28125 0.03516-0.72657 0.03516-0.42187 0-0.70312-0.03516-0.26953-0.02344-0.42188-0.08203-0.15234-0.05859-0.21093-0.140625-0.0469-0.09375-0.0234-0.210937l1.2539-6.26953q0.0469-0.246094 0.082-0.550782 0.0351-0.316406 0.0351-0.5625 0-0.257812-0.0586-0.46875-0.0469-0.222656-0.16406-0.375-0.11719-0.164062-0.30469-0.246093-0.1875-0.09375-0.44531-0.09375-0.48047 0-1.00782 0.304687-0.51562 0.304688-0.98437 0.832031-0.45703 0.527344-0.82031 1.23047-0.36329 0.703125-0.51563 1.48828l-0.94922 4.71094q-0.0234 0.117187-0.11719 0.210937-0.082 0.08203-0.26953 0.140625-0.17578 0.05859-0.46875 0.08203-0.29297 0.03516-0.71484 0.03516-0.43359 0-0.71484-0.03516-0.26954-0.02344-0.4336-0.08203-0.15234-0.05859-0.19922-0.140625-0.0469-0.09375-0.0234-0.210937l3.08203-15.4102q0.0234-0.117188 0.10547-0.210938 0.082-0.09375 0.26953-0.152344 0.1875-0.07031 0.46875-0.105468 0.29297-0.03516 0.72656-0.03516t0.70312 0.03516q0.28125 0.03516 0.4336 0.105468 0.15234 0.05859 0.19922 0.152344 0.0469 0.09375 0.0234 0.210938l-0.83203 4.24219q-0.0586 0.257813-0.1289 0.550781-0.0703 0.292969-0.16407 0.585938-0.082 0.28125-0.17578 0.550781-0.082 0.269531-0.16406 0.480469 0.22266-0.375 0.60938-0.75 0.38671-0.375 0.8789-0.679688 0.50391-0.304687 1.07813-0.492187 0.58593-0.199219 1.19531-0.199219 0.79687 0 1.34766 0.222656 0.55078 0.222657 0.90234 0.621094 0.35156 0.398438 0.50391 0.949219 0.16406 0.550781 0.16406 1.20703 0 0.421875-0.0469 0.84375-0.0469 0.410156-0.1289 0.820313z"/>
  <path d="m850.354 113.305q0 0.0703-0.0234 0.23437-0.0117 0.15235-0.0469 0.35157-0.0234 0.19921-0.0703 0.41015t-0.11719 0.39844q-0.0586 0.17578-0.14063 0.29297-0.082 0.10547-0.17578 0.10547-0.0703 0-0.1875-0.0352-0.10547-0.0352-0.24609-0.0703-0.14063-0.0469-0.32813-0.082-0.17578-0.0352-0.38671-0.0352-0.375 0-0.65625 0.10547-0.26954 0.10547-0.46875 0.33984-0.19922 0.22266-0.33985 0.58594-0.14062 0.36328-0.23437 0.86719l-0.17578 0.89062h1.89843q0.17578 0 0.2461 0.11719 0.0703 0.10547 0.0703 0.35156 0 0.11719-0.0234 0.30469-0.0117 0.1875-0.0586 0.41016-0.0469 0.21093-0.11719 0.42187-0.0703 0.21094-0.15234 0.38672-0.082 0.17578-0.19922 0.29297-0.10547 0.10547-0.23438 0.10547h-1.92187l-1.83985 9.1875q-0.19921 0.97265-0.55078 1.71093-0.33984 0.73829-0.86718 1.23047-0.52735 0.50391-1.25391 0.75-0.71484 0.25782-1.62891 0.25782-0.60937 0-1.01953-0.0937-0.41015-0.0937-0.52734-0.1875-0.0586-0.0703-0.082-0.15235-0.0234-0.082-0.0234-0.23437 0-0.0703 0.0234-0.23438 0.0117-0.16406 0.0469-0.36328 0.0352-0.1875 0.0937-0.39844 0.0469-0.21093 0.11719-0.38672 0.0586-0.17578 0.14062-0.29296 0.082-0.10547 0.1875-0.10547 0.0703 0 0.14063 0.0117 0.0703 0.0117 0.15234 0.0234 0.082 0.0234 0.19922 0.0352 0.10547 0.0117 0.28125 0.0117 0.375 0 0.65625-0.11719 0.26953-0.10547 0.46875-0.33984 0.19922-0.23438 0.33985-0.60938 0.14062-0.36328 0.24609-0.89062l1.76953-8.8125h-1.3125q-0.14062 0-0.22266-0.0937-0.0703-0.10547-0.0703-0.38672 0-0.11719 0.0117-0.30469 0.0234-0.1875 0.0586-0.39844 0.0469-0.21093 0.10547-0.42187 0.0586-0.22266 0.15235-0.38672 0.0937-0.17578 0.19922-0.28125 0.11718-0.11719 0.26953-0.11719h1.28906l0.22266-1.16015q0.1875-0.98438 0.55078-1.73438t0.89062-1.2539q0.53906-0.50391 1.25391-0.75 0.72656-0.25782 1.64062-0.25782 0.30469 0 0.60938 0.0352 0.30469 0.0234 0.55078 0.082 0.24609 0.0469 0.43359 0.11719 0.1875 0.0703 0.25782 0.14062 0.0703 0.0586 0.0937 0.16407 0.0352 0.10546 0.0352 0.25781z"/>
  <path d="m859.272 120.359q0 0.84375-0.38672 1.52343-0.375 0.66797-1.18359 1.16016-0.79688 0.48047-2.03906 0.73828-1.23047 0.25781-2.94141 0.25781h-1.07813q-0.0469 0.26953-0.0703 0.53907-0.0234 0.25781-0.0234 0.48046 0 0.94922 0.49219 1.42969t1.58203 0.48047q0.77344 0 1.38282-0.10547 0.62109-0.11719 1.07812-0.24609 0.46875-0.14063 0.77344-0.2461 0.30469-0.11718 0.44531-0.11718 0.14063 0 0.19922 0.082 0.0586 0.082 0.0586 0.25781 0 0.19922-0.0351 0.45703-0.0352 0.25781-0.10547 0.51563-0.0586 0.24609-0.16406 0.46875-0.0937 0.22265-0.22266 0.33984-0.14063 0.14062-0.51563 0.28125-0.375 0.14062-0.90234 0.25781t-1.18359 0.1875q-0.65625 0.082-1.33594 0.082-1.125 0-1.96875-0.23437-0.83203-0.23438-1.39453-0.71485-0.5625-0.48046-0.84375-1.21874-0.28125-0.75-0.28125-1.76954 0-0.78515 0.14062-1.67578 0.15235-0.90234 0.48047-1.76953 0.32813-0.8789 0.84375-1.67578 0.51563-0.79687 1.24219-1.39453 0.73828-0.60938 1.69922-0.97266t2.1914-0.36328q1.06641 0 1.82813 0.25781 0.77344 0.2461 1.26562 0.66797 0.49219 0.41016 0.72657 0.94922 0.24609 0.52735 0.24609 1.08985zm-2.89453 0.22265q0-0.46875-0.375-0.77344-0.36328-0.3164-1.06641-0.3164-0.58593 0-1.05468 0.21094-0.45704 0.21093-0.8086 0.57421-0.35156 0.35157-0.60937 0.84375-0.2461 0.48047-0.39844 1.03125h0.98437q0.9375 0 1.57032-0.11718 0.63281-0.12891 1.01953-0.33985 0.38672-0.21093 0.5625-0.49218 0.17578-0.29297 0.17578-0.6211z"/>
  <path d="m869.878 128.527q-0.0469 0.2461-0.375 0.35157-0.31641 0.10546-1.03125 0.10546-0.36328 0-0.59766-0.0234-0.22265-0.0234-0.36328-0.0703-0.14062-0.0586-0.1875-0.14062-0.0352-0.0937-0.0117-0.22266l0.32813-1.67578q-0.17578 0.375-0.5625 0.79688-0.38672 0.41015-0.91406 0.75-0.52735 0.33984-1.17188 0.5625-0.63281 0.22265-1.3125 0.22265-0.9375 0-1.55859-0.32812-0.6211-0.32813-0.9961-0.87891-0.375-0.5625-0.53906-1.27734-0.15234-0.71484-0.15234-1.5 0-0.73828 0.14062-1.60547 0.14063-0.87891 0.4336-1.74609 0.29296-0.86719 0.75-1.66407 0.45703-0.80859 1.08984-1.42968 0.64453-0.6211 1.46484-0.98438 0.83203-0.375 1.875-0.375 0.97266 0 1.72266 0.41016 0.75 0.39844 1.3125 1.17187l0.1875-0.92578q0.0469-0.24609 0.36328-0.35156 0.32813-0.10547 1.04297-0.10547 0.35156 0 0.58594 0.0352 0.23437 0.0234 0.36328 0.082 0.14062 0.0469 0.1875 0.14062 0.0469 0.082 0.0234 0.19922zm-1.45313-7.33593q-0.41015-0.64453-0.91406-0.96094-0.49219-0.32813-1.14844-0.32813-0.49218 0-0.90234 0.23438-0.41016 0.23437-0.72656 0.63281-0.31641 0.38672-0.5625 0.90235-0.23438 0.51562-0.39844 1.07812-0.15234 0.55078-0.23437 1.125-0.0703 0.5625-0.0703 1.04297 0 0.35156 0.0469 0.66797 0.0586 0.3164 0.19922 0.5625 0.14062 0.24609 0.375 0.39844 0.23437 0.14062 0.59765 0.14062 0.51563 0 1.05469-0.30469 0.53906-0.3164 1.00781-0.84375 0.46875-0.53906 0.82032-1.24218 0.36328-0.71485 0.52734-1.52344z"/>
  <path d="m881.058 118.168q0 0.11719-0.0234 0.30469-0.0234 0.17578-0.0703 0.38672-0.0352 0.21093-0.10547 0.42187-0.0703 0.21094-0.16406 0.38672-0.082 0.16406-0.19922 0.28125-0.10547 0.10547-0.23438 0.10547h-2.28515l-0.98438 4.91015q-0.0352 0.17579-0.0703 0.42188-0.0234 0.23437-0.0234 0.38672 0 0.46875 0.22266 0.6914 0.22265 0.21094 0.70312 0.21094 0.28125 0 0.48047-0.0352 0.19922-0.0469 0.33984-0.0937 0.15235-0.0586 0.25782-0.0937 0.10547-0.0469 0.19922-0.0469 0.0937 0 0.15234 0.0937 0.0703 0.082 0.0703 0.28125 0 0.22266-0.0469 0.50391t-0.12891 0.55078q-0.0703 0.25781-0.16406 0.48047-0.0937 0.21093-0.19922 0.3164-0.10547 0.10547-0.31641 0.19922-0.21093 0.0937-0.5039 0.16406-0.28125 0.0703-0.60938 0.10547-0.32812 0.0469-0.65625 0.0469-0.70312 0-1.24219-0.15235-0.52734-0.14062-0.89062-0.45703-0.36328-0.3164-0.55078-0.80859-0.17578-0.49219-0.17578-1.19531 0-0.12891 0.0117-0.29297 0.0117-0.17578 0.0352-0.36328 0.0352-0.1875 0.0586-0.375 0.0352-0.19922 0.0703-0.35157l1.01953-5.09765h-1.26563q-0.15234 0-0.22265-0.0937-0.0703-0.10547-0.0703-0.38672 0-0.19922 0.0352-0.51563 0.0469-0.32812 0.14063-0.63281 0.0937-0.3164 0.24609-0.53906 0.15234-0.22266 0.36328-0.22266h1.25391l0.46875-2.33203q0.0234-0.11719 0.10547-0.21094 0.0937-0.0937 0.26953-0.15234 0.1875-0.0703 0.46875-0.0937 0.29297-0.0352 0.72656-0.0352 0.42188 0 0.70313 0.0352 0.28125 0.0234 0.43359 0.0937 0.15234 0.0586 0.19922 0.15234 0.0586 0.0937 0.0352 0.21094l-0.46875 2.33203h2.26172q0.19922 0 0.26953 0.12891 0.0703 0.12891 0.0703 0.375z"/>
  <path d="m890.854 128.527q-0.0234 0.11719-0.10547 0.21094-0.0703 0.082-0.23437 0.14063-0.15235 0.0469-0.39844 0.0703-0.24609 0.0352-0.60937 0.0352-0.36329 0-0.59766-0.0352-0.22266-0.0234-0.35156-0.0703-0.12891-0.0586-0.17578-0.14063-0.0352-0.0937 0-0.21094l0.3164-1.69921q-0.23437 0.41015-0.64453 0.83203-0.41016 0.41015-0.94922 0.76171-0.52734 0.33985-1.14844 0.55079-0.62109 0.21093-1.27734 0.21093-0.82031 0-1.39453-0.23437-0.5625-0.22266-0.91406-0.60938-0.33985-0.39843-0.50391-0.94921-0.15234-0.55079-0.15234-1.19532 0-0.39843 0.0469-0.80859 0.0586-0.42188 0.14063-0.85547l1.28906-6.48047q0.0234-0.11719 0.10547-0.19922 0.0937-0.0937 0.26953-0.14062 0.1875-0.0586 0.48047-0.082 0.29297-0.0352 0.71484-0.0352 0.4336 0 0.70313 0.0352 0.28125 0.0234 0.43359 0.082 0.15234 0.0469 0.19922 0.14062 0.0586 0.082 0.0352 0.19922l-1.24219 6.28125q-0.0586 0.25781-0.0937 0.53906-0.0234 0.28125-0.0234 0.53907 0 0.28125 0.0469 0.51562 0.0586 0.22266 0.17578 0.38672t0.29297 0.24609q0.1875 0.082 0.44531 0.082 0.48047 0 0.99609-0.30469 0.52735-0.31641 0.9961-0.85547 0.46875-0.55078 0.83203-1.28906 0.375-0.75 0.5625-1.61719l0.89062-4.52344q0.0117-0.11719 0.10547-0.19922 0.0937-0.0937 0.26953-0.14062 0.1875-0.0586 0.48047-0.082 0.29297-0.0352 0.71484-0.0352 0.4336 0 0.70313 0.0352 0.28125 0.0234 0.43359 0.082 0.16407 0.0469 0.21094 0.14062 0.0469 0.082 0.0234 0.19922z"/>
  <path d="m902.491 117.898q0 0.082-0.0234 0.29297-0.0234 0.21093-0.0703 0.49218t-0.11719 0.58594q-0.0703 0.29297-0.16406 0.55078-0.082 0.25782-0.19922 0.42188-0.10547 0.16406-0.23437 0.16406-0.10547 0-0.21094-0.0352-0.10547-0.0469-0.23438-0.082-0.1289-0.0469-0.28125-0.082-0.15234-0.0469-0.35156-0.0469-0.39844 0-0.85547 0.30468-0.44531 0.30469-0.85547 0.8086-0.41015 0.49219-0.73828 1.16015-0.3164 0.65625-0.45703 1.38282l-0.9375 4.69921q-0.0234 0.11719-0.11719 0.21094-0.082 0.082-0.26953 0.14063-0.17578 0.0586-0.46875 0.082-0.29297 0.0352-0.71484 0.0352-0.43359 0-0.71484-0.0352-0.26954-0.0234-0.4336-0.082-0.15234-0.0586-0.19922-0.14063-0.0469-0.0937-0.0234-0.21094l2.08593-10.4648q0.0234-0.11719 0.10547-0.19922 0.082-0.0937 0.23438-0.14062 0.16406-0.0586 0.41015-0.082 0.25782-0.0352 0.60938-0.0352 0.36328 0 0.58594 0.0352 0.23437 0.0234 0.36328 0.082 0.1289 0.0469 0.16406 0.14062 0.0469 0.082 0.0234 0.19922l-0.32813 1.66406q0.28125-0.5039 0.64453-0.92578 0.375-0.42187 0.78516-0.72656 0.42187-0.31641 0.86719-0.49219 0.44531-0.17578 0.8789-0.17578 0.17578 0 0.35157 0.0234 0.1875 0.0234 0.33984 0.0586 0.16406 0.0352 0.28125 0.0937 0.12891 0.0469 0.19922 0.10547 0.0703 0.0703 0.0703 0.22266z"/>
  <path d="m913.155 120.359q0 0.84375-0.38672 1.52343-0.375 0.66797-1.18359 1.16016-0.79687 0.48047-2.03906 0.73828-1.23047 0.25781-2.94141 0.25781h-1.07812q-0.0469 0.26953-0.0703 0.53907-0.0234 0.25781-0.0234 0.48046 0 0.94922 0.49218 1.42969 0.49219 0.48047 1.58204 0.48047 0.77343 0 1.38281-0.10547 0.62109-0.11719 1.07812-0.24609 0.46875-0.14063 0.77344-0.2461 0.30469-0.11718 0.44531-0.11718 0.14063 0 0.19922 0.082 0.0586 0.082 0.0586 0.25781 0 0.19922-0.0352 0.45703t-0.10547 0.51563q-0.0586 0.24609-0.16406 0.46875-0.0937 0.22265-0.22266 0.33984-0.14062 0.14062-0.51562 0.28125-0.375 0.14062-0.90235 0.25781-0.52734 0.11719-1.18359 0.1875-0.65625 0.082-1.33594 0.082-1.125 0-1.96875-0.23437-0.83203-0.23438-1.39453-0.71485-0.5625-0.48046-0.84375-1.21874-0.28125-0.75-0.28125-1.76954 0-0.78515 0.14063-1.67578 0.15234-0.90234 0.48046-1.76953 0.32813-0.8789 0.84375-1.67578 0.51563-0.79687 1.24219-1.39453 0.73828-0.60938 1.69922-0.97266t2.19141-0.36328q1.0664 0 1.82812 0.25781 0.77344 0.2461 1.26563 0.66797 0.49218 0.41016 0.72656 0.94922 0.24609 0.52735 0.24609 1.08985zm-2.89453 0.22265q0-0.46875-0.375-0.77344-0.36328-0.3164-1.0664-0.3164-0.58594 0-1.05469 0.21094-0.45703 0.21093-0.8086 0.57421-0.35156 0.35157-0.60937 0.84375-0.24609 0.48047-0.39844 1.03125h0.98438q0.9375 0 1.57031-0.11718 0.63281-0.12891 1.01953-0.33985 0.38672-0.21093 0.5625-0.49218 0.17578-0.29297 0.17578-0.6211z"/>
  <path d="m931.015 121.379q0 0.77343-0.14063 1.65234-0.14062 0.87891-0.43359 1.74609-0.29297 0.86719-0.75 1.66407-0.45703 0.79687-1.10156 1.40625-0.64453 0.60937-1.47657 0.97265-0.82031 0.36328-1.83984 0.36328-0.98437 0-1.74609-0.38672-0.75-0.38671-1.30078-1.17187l-0.17579 0.89062q-0.0469 0.2461-0.375 0.36329-0.3164 0.10546-1.03125 0.10546-0.70312 0-0.96093-0.11718-0.2461-0.11719-0.19922-0.35157l3.08203-15.4102q0.0234-0.11719 0.10547-0.21094 0.082-0.0937 0.26953-0.15234 0.1875-0.0703 0.46875-0.10547 0.29297-0.0352 0.72656-0.0352 0.4336 0 0.70313 0.0352t0.42187 0.10547q0.16406 0.0586 0.21094 0.15234 0.0469 0.0937 0.0234 0.21094l-0.83203 4.19531q-0.0586 0.26953-0.12891 0.57422-0.0703 0.29297-0.16406 0.58594-0.082 0.29297-0.17578 0.57422-0.082 0.26953-0.16407 0.48047 0.21094-0.375 0.59766-0.75 0.39844-0.38672 0.90234-0.69141 0.50391-0.30469 1.07813-0.49219 0.58594-0.1875 1.17187-0.1875 0.66797 0 1.16016 0.17578 0.49219 0.16407 0.85547 0.45703 0.36328 0.29297 0.59765 0.69141 0.23438 0.39844 0.375 0.84375 0.14063 0.43359 0.1875 0.90234 0.0586 0.46875 0.0586 0.91407zm-3.03516 0.29297q0-0.29297-0.0469-0.60938-0.0352-0.31641-0.17578-0.57422-0.12891-0.25781-0.36329-0.42187-0.23437-0.16407-0.62109-0.16407-0.52734 0-1.06641 0.31641-0.52734 0.30469-0.99609 0.84375t-0.83203 1.25391q-0.36328 0.71484-0.51563 1.52343l-0.32812 1.58204q0.41016 0.64453 0.90234 0.96093 0.50391 0.30469 1.16016 0.30469 0.46875 0 0.86719-0.22266 0.39843-0.23437 0.71484-0.60937 0.32813-0.375 0.5625-0.87891 0.24609-0.5039 0.41016-1.05468 0.16406-0.5625 0.24609-1.13672 0.082-0.57422 0.082-1.11328z"/>
  <path d="m940.823 117.898q0 0.082-0.0234 0.29297-0.0234 0.21093-0.0703 0.49218t-0.11719 0.58594q-0.0703 0.29297-0.16406 0.55078-0.082 0.25782-0.19922 0.42188-0.10547 0.16406-0.23437 0.16406-0.10547 0-0.21094-0.0352-0.10547-0.0469-0.23437-0.082-0.12891-0.0469-0.28125-0.082-0.15235-0.0469-0.35157-0.0469-0.39843 0-0.85547 0.30468-0.44531 0.30469-0.85546 0.8086-0.41016 0.49219-0.73829 1.16015-0.3164 0.65625-0.45703 1.38282l-0.9375 4.69921q-0.0234 0.11719-0.11718 0.21094-0.082 0.082-0.26954 0.14063-0.17578 0.0586-0.46875 0.082-0.29296 0.0352-0.71484 0.0352-0.43359 0-0.71484-0.0352-0.26953-0.0234-0.4336-0.082-0.15234-0.0586-0.19922-0.14063-0.0469-0.0937-0.0234-0.21094l2.08593-10.4648q0.0234-0.11719 0.10547-0.19922 0.082-0.0937 0.23438-0.14062 0.16406-0.0586 0.41015-0.082 0.25782-0.0352 0.60938-0.0352 0.36328 0 0.58594 0.0352 0.23437 0.0234 0.36328 0.082 0.1289 0.0469 0.16406 0.14062 0.0469 0.082 0.0234 0.19922l-0.32813 1.66406q0.28125-0.5039 0.64453-0.92578 0.375-0.42187 0.78516-0.72656 0.42188-0.31641 0.86719-0.49219t0.8789-0.17578q0.17579 0 0.35157 0.0234 0.1875 0.0234 0.33984 0.0586 0.16406 0.0352 0.28125 0.0937 0.12891 0.0469 0.19922 0.10547 0.0703 0.0703 0.0703 0.22266z"/>
  <path d="m950.304 128.527q-0.0469 0.2461-0.375 0.35157-0.31641 0.10546-1.03125 0.10546-0.36328 0-0.59766-0.0234-0.22265-0.0234-0.36328-0.0703-0.14062-0.0586-0.1875-0.14062-0.0351-0.0937-0.0117-0.22266l0.32813-1.67578q-0.17578 0.375-0.5625 0.79688-0.38672 0.41015-0.91406 0.75-0.52735 0.33984-1.17188 0.5625-0.63281 0.22265-1.3125 0.22265-0.9375 0-1.55859-0.32812-0.6211-0.32813-0.9961-0.87891-0.375-0.5625-0.53906-1.27734-0.15234-0.71484-0.15234-1.5 0-0.73828 0.14062-1.60547 0.14063-0.87891 0.4336-1.74609 0.29297-0.86719 0.75-1.66407 0.45703-0.80859 1.08984-1.42968 0.64453-0.6211 1.46484-0.98438 0.83204-0.375 1.875-0.375 0.97266 0 1.72266 0.41016 0.75 0.39844 1.3125 1.17187l0.1875-0.92578q0.0469-0.24609 0.36328-0.35156 0.32813-0.10547 1.04297-0.10547 0.35156 0 0.58594 0.0352 0.23437 0.0234 0.36328 0.082 0.14062 0.0469 0.1875 0.14062 0.0469 0.082 0.0234 0.19922zm-1.45312-7.33593q-0.41016-0.64453-0.91407-0.96094-0.49218-0.32813-1.14843-0.32813-0.49219 0-0.90235 0.23438-0.41015 0.23437-0.72656 0.63281-0.31641 0.38672-0.5625 0.90235-0.23438 0.51562-0.39844 1.07812-0.15234 0.55078-0.23437 1.125-0.0703 0.5625-0.0703 1.04297 0 0.35156 0.0469 0.66797 0.0586 0.3164 0.19922 0.5625 0.14062 0.24609 0.375 0.39844 0.23437 0.14062 0.59765 0.14062 0.51563 0 1.05469-0.30469 0.53906-0.3164 1.00781-0.84375 0.46875-0.53906 0.82032-1.24218 0.36328-0.71485 0.52734-1.52344z"/>
  <path d="m964.507 120.395q0 0.41016-0.0586 0.82031-0.0469 0.41016-0.1289 0.84375l-1.30079 6.45703q-0.0234 0.11719-0.11718 0.21094-0.082 0.082-0.26953 0.14063-0.17579 0.0586-0.46875 0.082-0.28125 0.0352-0.71485 0.0352-0.43359 0-0.71484-0.0352-0.26953-0.0234-0.42188-0.082-0.15234-0.0586-0.21093-0.14063-0.0469-0.0937-0.0234-0.21094l1.26562-6.26953q0.0586-0.28125 0.082-0.57421 0.0352-0.29297 0.0352-0.51563 0-0.52734-0.22266-0.86719-0.22265-0.33984-0.75-0.33984-0.48046 0-1.00781 0.30469-0.51562 0.30468-0.98437 0.83203-0.45703 0.51562-0.82032 1.21875-0.36328 0.6914-0.51562 1.47656l-0.94922 4.73437q-0.0234 0.11719-0.11719 0.21094-0.082 0.082-0.26953 0.14063-0.17578 0.0586-0.46875 0.082-0.29297 0.0352-0.71484 0.0352-0.4336 0-0.71485-0.0352-0.26953-0.0234-0.43359-0.082-0.15234-0.0586-0.19922-0.14063-0.0469-0.0937-0.0234-0.21094l2.09766-10.4648q0.0234-0.11719 0.0937-0.19922 0.082-0.0937 0.23438-0.14062 0.16406-0.0586 0.41015-0.082 0.25781-0.0352 0.60938-0.0352 0.36328 0 0.58593 0.0352 0.23438 0.0234 0.36329 0.082 0.1289 0.0469 0.16406 0.14062 0.0469 0.082 0.0234 0.19922l-0.33985 1.72266q0.2461-0.41016 0.65625-0.83203 0.41016-0.4336 0.9375-0.77344 0.53906-0.33984 1.16016-0.55078 0.63281-0.22266 1.3125-0.22266 0.82031 0 1.37109 0.2461 0.5625 0.23437 0.90235 0.64453 0.35156 0.41015 0.5039 0.96093 0.15235 0.53907 0.15235 1.14844z"/>
  <path d="m975.511 118.754q0 0.26953-0.0703 0.60937-0.0586 0.33985-0.16406 0.64453-0.10547 0.30469-0.26953 0.51563-0.15235 0.19922-0.33985 0.19922-0.17578 0-0.33984-0.14063-0.16406-0.14062-0.41016-0.3164-0.23437-0.17579-0.59765-0.31641-0.36329-0.15234-0.9375-0.15234-0.60938 0-1.08985 0.26953t-0.84375 0.70312q-0.35156 0.42188-0.58594 0.97266-0.23437 0.53906-0.38671 1.10156-0.15235 0.55078-0.22266 1.06641-0.0586 0.5039-0.0586 0.8789 0 0.94922 0.41015 1.44141 0.42188 0.49219 1.3125 0.49219 0.65625 0 1.125-0.16407 0.46875-0.17578 0.79688-0.375 0.33984-0.21093 0.57422-0.375 0.24609-0.16406 0.44531-0.16406 0.11719 0 0.16406 0.10547 0.0586 0.10547 0.0586 0.30469t-0.0469 0.5039q-0.0469 0.29297-0.12891 0.59766-0.0703 0.30469-0.17578 0.57422-0.0937 0.25781-0.25781 0.41015-0.15234 0.15235-0.49219 0.35157-0.33984 0.1875-0.78515 0.33984-0.44532 0.15234-0.97266 0.24609-0.51563 0.0937-1.07813 0.0937-2.0039 0-3-1.00781-0.99609-1.01953-0.99609-3 0-0.71484 0.12891-1.57031 0.14062-0.85547 0.44531-1.71094 0.30469-0.86718 0.78516-1.67578 0.49218-0.80859 1.19531-1.42969 0.70312-0.62109 1.6289-0.99609 0.92579-0.375 2.13282-0.375 0.46875 0 0.91406 0.0703t0.82031 0.19922q0.375 0.11719 0.65625 0.28125 0.29297 0.16406 0.4336 0.30469 0.14062 0.12891 0.17578 0.23437 0.0469 0.10547 0.0469 0.25782z"/>
  <path d="m985.565 128.516q-0.0234 0.11719-0.11719 0.21094-0.082 0.082-0.26953 0.14063-0.17578 0.0586-0.46875 0.082-0.28125 0.0352-0.72656 0.0352-0.42188 0-0.70313-0.0352-0.26953-0.0234-0.42187-0.082-0.15235-0.0586-0.21094-0.14063-0.0469-0.0937-0.0234-0.21094l1.25391-6.26953q0.0469-0.24609 0.082-0.55078 0.0352-0.3164 0.0352-0.5625 0-0.25781-0.0586-0.46875-0.0469-0.22265-0.16406-0.375-0.11719-0.16406-0.30469-0.24609-0.1875-0.0937-0.44531-0.0937-0.48047 0-1.00781 0.30469-0.51563 0.30468-0.98438 0.83203-0.45703 0.52734-0.82031 1.23047-0.36328 0.70312-0.51562 1.48828l-0.94922 4.71093q-0.0234 0.11719-0.11719 0.21094-0.082 0.082-0.26953 0.14063-0.17578 0.0586-0.46875 0.082-0.29297 0.0352-0.71485 0.0352-0.43359 0-0.71484-0.0352-0.26953-0.0234-0.43359-0.082-0.15235-0.0586-0.19922-0.14063-0.0469-0.0937-0.0234-0.21094l3.08203-15.4102q0.0234-0.11719 0.10547-0.21094 0.082-0.0937 0.26953-0.15234 0.1875-0.0703 0.46875-0.10547 0.29297-0.0352 0.72656-0.0352 0.4336 0 0.70313 0.0352 0.28125 0.0352 0.43359 0.10547 0.15235 0.0586 0.19922 0.15234 0.0469 0.0937 0.0234 0.21094l-0.83203 4.24219q-0.0586 0.25781-0.12891 0.55078-0.0703 0.29297-0.16406 0.58594-0.082 0.28125-0.17578 0.55078-0.082 0.26953-0.16406 0.48047 0.22265-0.375 0.60937-0.75t0.87891-0.67969q0.5039-0.30469 1.07812-0.49219 0.58594-0.19922 1.19531-0.19922 0.79688 0 1.34766 0.22266 0.55078 0.22265 0.90234 0.62109 0.35157 0.39844 0.50391 0.94922 0.16406 0.55078 0.16406 1.20703 0 0.42188-0.0469 0.84375-0.0469 0.41016-0.12891 0.82031z"/>
  <path d="m247.204 5.75391q0 0.269531-0.0703 0.609375-0.0586 0.339844-0.16406 0.644531-0.10547 0.304688-0.26953 0.515625-0.15235 0.199219-0.33985 0.199219-0.17578 0-0.33984-0.140625t-0.41016-0.316406q-0.23437-0.175781-0.59765-0.316406-0.36328-0.152344-0.9375-0.152344-0.60938 0-1.08985 0.269531-0.48046 0.269531-0.84375 0.703125-0.35156 0.421875-0.58593 0.972656-0.23438 0.539062-0.38672 1.10156-0.15235 0.550781-0.22266 1.06641-0.0586 0.503907-0.0586 0.878907 0 0.949218 0.41015 1.44141 0.42188 0.492187 1.3125 0.492187 0.65625 0 1.125-0.164062 0.46875-0.175781 0.79688-0.375 0.33984-0.210938 0.57422-0.375 0.24609-0.164063 0.44531-0.164063 0.11719 0 0.16406 0.105469 0.0586 0.105469 0.0586 0.304688 0 0.199218-0.0469 0.503906-0.0469 0.292969-0.1289 0.597656-0.0703 0.304688-0.17579 0.574219-0.0937 0.257812-0.25781 0.410156-0.15234 0.152344-0.49219 0.351563-0.33984 0.1875-0.78515 0.339843-0.44531 0.152344-0.97266 0.246094-0.51562 0.09375-1.07812 0.09375-2.00391 0-3-1.00781-0.9961-1.01953-0.9961-3 0-0.714844 0.12891-1.57031 0.14062-0.855469 0.44531-1.71094 0.30469-0.867188 0.78516-1.67578 0.49219-0.808594 1.19531-1.42969 0.70313-0.621094 1.62891-0.996094t2.13281-0.375q0.46875 0 0.91406 0.070312t0.82031 0.199219q0.375 0.117188 0.65625 0.28125 0.29297 0.164062 0.4336 0.304688 0.14062 0.128906 0.17578 0.234375 0.0469 0.105469 0.0469 0.257812z"/>
  <path d="m258.805 8.57812q0 0.84375-0.16407 1.73438-0.15234 0.890625-0.49218 1.74609-0.33985 0.84375-0.87891 1.59375-0.52734 0.738281-1.27734 1.3125-0.73828 0.5625-1.69922 0.890625t-2.16797 0.328125q-1.18359 0-2.05078-0.269531-0.85547-0.28125-1.42969-0.808594-0.57422-0.539063-0.85547-1.3125-0.28125-0.785156-0.28125-1.79297 0-0.84375 0.15235-1.73438 0.16406-0.890625 0.5039-1.73438 0.33985-0.84375 0.86719-1.59375 0.53906-0.761719 1.27734-1.32422 0.75-0.5625 1.71094-0.890625t2.16797-0.328125q1.18359 0 2.03906 0.28125 0.86719 0.269531 1.44141 0.808594 0.57422 0.527344 0.85547 1.3125 0.28125 0.773438 0.28125 1.78125zm-3.04688 0.199219q0-0.492188-0.10547-0.867188-0.0937-0.386719-0.32812-0.644531-0.22266-0.269531-0.58594-0.410156-0.35156-0.140625-0.86719-0.140625-0.58593 0-1.05468 0.234375-0.46875 0.222656-0.84375 0.609375-0.36329 0.386719-0.63282 0.902344-0.26953 0.503906-0.44531 1.06641-0.17578 0.5625-0.25781 1.14844-0.082 0.574219-0.082 1.10156 0 0.492187 0.0937 0.878906 0.10547 0.386719 0.32812 0.65625 0.23438 0.257813 0.58594 0.398438 0.36328 0.140625 0.87891 0.140625 0.58593 0 1.05468-0.222657 0.46875-0.234375 0.83203-0.621093 0.375-0.398438 0.64454-0.902344 0.26953-0.515625 0.44531-1.07812 0.17578-0.574219 0.25781-1.14844 0.082-0.574219 0.082-1.10156z"/>
  <path d="m276.325 15.5156q-0.0234 0.117188-0.11719 0.210938-0.082 0.08203-0.26953 0.140625-0.1875 0.05859-0.48047 0.08203-0.28125 0.03516-0.71484 0.03516-0.42188 0-0.70313-0.03516-0.28125-0.02344-0.43359-0.08203-0.15235-0.05859-0.21094-0.140625-0.0469-0.09375-0.0117-0.210938l1.25391-6.26953q0.0469-0.269531 0.082-0.527344 0.0352-0.269531 0.0352-0.539062 0-0.550781-0.21094-0.890625-0.19922-0.339844-0.72656-0.339844-0.46875 0-0.97266 0.304688t-0.97266 0.832031q-0.45703 0.515625-0.82031 1.21875-0.35156 0.691406-0.50391 1.47656l-0.94921 4.73438q-0.0234 0.117188-0.11719 0.210938-0.082 0.08203-0.26953 0.140625-0.1875 0.05859-0.48047 0.08203-0.28125 0.03516-0.71485 0.03516-0.42187 0-0.70312-0.03516-0.26953-0.02344-0.42188-0.08203-0.15234-0.05859-0.21093-0.140625-0.0469-0.09375-0.0234-0.210938l1.24219-6.26953q0.0703-0.269531 0.0937-0.550781 0.0351-0.292969 0.0351-0.5625 0-0.515625-0.21093-0.84375-0.21094-0.339844-0.72657-0.339844-0.46875 0-0.97265 0.304688-0.50391 0.304688-0.97266 0.832031-0.45703 0.515625-0.82031 1.21875-0.35156 0.691406-0.50391 1.47656l-0.94922 4.73438q-0.0234 0.117188-0.11718 0.210938-0.082 0.08203-0.26954 0.140625-0.17578 0.05859-0.46875 0.08203-0.29296 0.03516-0.71484 0.03516-0.43359 0-0.71484-0.03516-0.26953-0.02344-0.4336-0.08203-0.15234-0.05859-0.19922-0.140625-0.0469-0.09375-0.0234-0.210938l2.09765-10.4648q0.0234-0.117188 0.0937-0.199219 0.082-0.09375 0.23438-0.140625 0.16406-0.058594 0.41015-0.082031 0.25782-0.035156 0.60938-0.035156 0.36328 0 0.58594 0.035156 0.23437 0.023437 0.36328 0.082031 0.1289 0.046875 0.16406 0.140625 0.0469 0.082031 0.0234 0.199219l-0.33985 1.72266q0.2461-0.410156 0.65625-0.832031 0.41016-0.433594 0.92579-0.773438 0.52734-0.339844 1.13671-0.550781 0.6211-0.222656 1.27735-0.222656 0.67969 0 1.17187 0.1875 0.50391 0.175781 0.82032 0.503906 0.32812 0.316406 0.49218 0.75 0.17578 0.433594 0.22266 0.9375 0.26953-0.421875 0.67969-0.84375 0.42187-0.421875 0.9375-0.761719 0.52734-0.339844 1.13672-0.550781 0.60937-0.222656 1.2539-0.222656 0.82031 0 1.3711 0.234375 0.5625 0.222656 0.90234 0.632812 0.33984 0.398438 0.49219 0.949219 0.15234 0.539062 0.15234 1.17188 0 0.410156-0.0469 0.832031-0.0469 0.410156-0.14063 0.84375z"/>
  <path d="m295.614 15.5156q-0.0234 0.117188-0.11719 0.210938-0.082 0.08203-0.26953 0.140625-0.1875 0.05859-0.48047 0.08203-0.28125 0.03516-0.71484 0.03516-0.42188 0-0.70313-0.03516-0.28125-0.02344-0.43359-0.08203t-0.21094-0.140625q-0.0469-0.09375-0.0117-0.210938l1.25391-6.26953q0.0469-0.269531 0.082-0.527344 0.0352-0.269531 0.0352-0.539062 0-0.550781-0.21094-0.890625-0.19922-0.339844-0.72656-0.339844-0.46875 0-0.97266 0.304688-0.5039 0.304688-0.97265 0.832031-0.45704 0.515625-0.82032 1.21875-0.35156 0.691406-0.5039 1.47656l-0.94922 4.73438q-0.0234 0.117188-0.11719 0.210938-0.082 0.08203-0.26953 0.140625-0.1875 0.05859-0.48047 0.08203-0.28125 0.03516-0.71484 0.03516-0.42188 0-0.70313-0.03516-0.26953-0.02344-0.42187-0.08203-0.15235-0.05859-0.21094-0.140625-0.0469-0.09375-0.0234-0.210938l1.24219-6.26953q0.0703-0.269531 0.0937-0.550781 0.0352-0.292969 0.0352-0.5625 0-0.515625-0.21094-0.84375-0.21094-0.339844-0.72656-0.339844-0.46875 0-0.97266 0.304688t-0.97266 0.832031q-0.45703 0.515625-0.82031 1.21875-0.35156 0.691406-0.50391 1.47656l-0.94921 4.73438q-0.0234 0.117188-0.11719 0.210938-0.082 0.08203-0.26953 0.140625-0.17578 0.05859-0.46875 0.08203-0.29297 0.03516-0.71485 0.03516-0.43359 0-0.71484-0.03516-0.26953-0.02344-0.43359-0.08203-0.15235-0.05859-0.19922-0.140625-0.0469-0.09375-0.0234-0.210938l2.09766-10.4648q0.0234-0.117188 0.0937-0.199219 0.082-0.09375 0.23437-0.140625 0.16406-0.058594 0.41016-0.082031 0.25781-0.035156 0.60937-0.035156 0.36328 0 0.58594 0.035156 0.23437 0.023437 0.36328 0.082031 0.12891 0.046875 0.16406 0.140625 0.0469 0.082031 0.0234 0.199219l-0.33984 1.72266q0.24609-0.410156 0.65625-0.832031 0.41015-0.433594 0.92578-0.773438 0.52734-0.339844 1.13672-0.550781 0.62109-0.222656 1.27734-0.222656 0.67969 0 1.17188 0.1875 0.5039 0.175781 0.82031 0.503906 0.32812 0.316406 0.49219 0.75 0.17578 0.433594 0.22265 0.9375 0.26953-0.421875 0.67969-0.84375 0.42187-0.421875 0.9375-0.761719 0.52734-0.339844 1.13672-0.550781 0.60937-0.222656 1.2539-0.222656 0.82032 0 1.3711 0.234375 0.5625 0.222656 0.90234 0.632812 0.33985 0.398438 0.49219 0.949219 0.15234 0.539062 0.15234 1.17188 0 0.410156-0.0469 0.832031-0.0469 0.410156-0.14063 0.84375z"/>
  <path d="m304.473 1.54688q-0.082 0.433594-0.22266 0.738281-0.14063 0.292969-0.375 0.480469-0.23438 0.175781-0.57422 0.257812-0.33984 0.070312-0.84375 0.070312-0.49219 0-0.80859-0.070312-0.30469-0.082031-0.46875-0.257812-0.15235-0.1875-0.17578-0.480469-0.0234-0.304688 0.0703-0.738281 0.082-0.421875 0.22265-0.714844 0.14063-0.292969 0.375-0.480469 0.23438-0.1875 0.57422-0.269531 0.33986-0.0820312 0.84376-0.0820312 0.49219 0 0.79688 0.0820312 0.3164 0.0820312 0.46875 0.269531 0.16406 0.1875 0.17578 0.480469 0.0234 0.292969-0.0586 0.714844zm-3.02344 13.9688q-0.0234 0.117188-0.11719 0.210938-0.082 0.08203-0.26953 0.140625-0.17578 0.05859-0.46875 0.08203-0.29297 0.03516-0.71484 0.03516-0.4336 0-0.71485-0.03516-0.26953-0.02344-0.43359-0.08203-0.15235-0.05859-0.19922-0.140625-0.0469-0.09375-0.0234-0.210938l2.07422-10.4297q0.0234-0.117188 0.10547-0.199219 0.0937-0.09375 0.26953-0.152344 0.1875-0.070312 0.46875-0.105469 0.29297-0.035156 0.72656-0.035156 0.4336 0 0.70313 0.035156 0.28125 0.035156 0.43359 0.105469 0.16406 0.058594 0.21094 0.152344 0.0469 0.082031 0.0234 0.199219z"/>
  <path d="m312.618 5.16797q0 0.117188-0.0234 0.304688-0.0234 0.175781-0.0703 0.386719-0.0352 0.210938-0.10547 0.421875-0.0703 0.210938-0.16406 0.386719-0.082 0.164062-0.19922 0.28125-0.10547 0.105469-0.23438 0.105469h-2.28515l-0.98438 4.91016q-0.0352 0.175781-0.0703 0.421875-0.0234 0.234375-0.0234 0.386719 0 0.46875 0.22266 0.691406 0.22265 0.210937 0.70312 0.210937 0.28125 0 0.48047-0.03516 0.19922-0.04687 0.33984-0.09375 0.15235-0.05859 0.25782-0.09375 0.10547-0.04687 0.19922-0.04687 0.0937 0 0.15234 0.09375 0.0703 0.08203 0.0703 0.28125 0 0.222656-0.0469 0.503906t-0.12891 0.550782q-0.0703 0.257812-0.16406 0.480468-0.0937 0.210938-0.19922 0.316407-0.10547 0.105468-0.31641 0.199218-0.21093 0.09375-0.5039 0.164063-0.28125 0.07031-0.60938 0.105468-0.32812 0.04687-0.65625 0.04687-0.70312 0-1.24219-0.152343-0.52734-0.140625-0.89062-0.457031-0.36328-0.316407-0.55078-0.808594-0.17578-0.492188-0.17578-1.19531 0-0.128906 0.0117-0.292968 0.0117-0.175782 0.0351-0.363282 0.0352-0.1875 0.0586-0.375 0.0351-0.199218 0.0703-0.351562l1.01953-5.09766h-1.26563q-0.15234 0-0.22265-0.09375-0.0703-0.105469-0.0703-0.386719 0-0.199219 0.0351-0.515625 0.0469-0.328125 0.14063-0.632812 0.0937-0.316406 0.24609-0.539062 0.15234-0.222656 0.36328-0.222656h1.25391l0.46875-2.33203q0.0234-0.117188 0.10547-0.210938 0.0937-0.09375 0.26953-0.152344 0.1875-0.070312 0.46875-0.09375 0.29297-0.035156 0.72656-0.035156 0.42188 0 0.70313 0.035156 0.28125 0.023437 0.43359 0.09375 0.15234 0.058594 0.19922 0.152344 0.0586 0.09375 0.0351 0.210938l-0.46875 2.33203h2.26172q0.19922 0 0.26953 0.128906 0.0703 0.128906 0.0703 0.375z"/>
  <path d="m321.344 5.51953q0 0.140625-0.0469 0.421875-0.0352 0.269531-0.11719 0.550781-0.082 0.28125-0.19922 0.492188-0.10546 0.199219-0.24609 0.199219-0.15234 0-0.36328-0.105469-0.19922-0.117188-0.49219-0.246094-0.29297-0.140625-0.6914-0.246094-0.38672-0.105469-0.91407-0.105469-0.41015 0-0.73828 0.105469-0.3164 0.105469-0.52734 0.292969-0.21094 0.175781-0.32813 0.421875-0.10547 0.246094-0.10547 0.527344 0 0.363281 0.29297 0.609375 0.30469 0.246094 0.75 0.46875 0.44532 0.210938 0.96094 0.445312 0.51563 0.234375 0.96094 0.585938 0.44531 0.351563 0.73828 0.855469t0.29297 1.26562q0 0.890625-0.33985 1.65234-0.33984 0.75-0.99609 1.30078-0.64453 0.550781-1.58203 0.867187-0.92578 0.304688-2.09766 0.304688-0.5625 0-1.07812-0.08203-0.50391-0.08203-0.91406-0.199218-0.39844-0.117188-0.67969-0.269531-0.28125-0.152344-0.42188-0.28125-0.0937-0.09375-0.14062-0.199219-0.0352-0.105469-0.0352-0.269531 0-0.105469 0.0117-0.269532 0.0234-0.164062 0.0586-0.363281 0.0469-0.199219 0.0937-0.398437 0.0586-0.199219 0.12891-0.363282 0.0703-0.164062 0.15234-0.257812 0.082-0.105469 0.17579-0.105469 0.16406 0 0.36328 0.140625t0.51562 0.316406q0.31641 0.164063 0.77344 0.316407 0.46875 0.140625 1.16016 0.140625 0.48046 0 0.83203-0.105469 0.36328-0.117188 0.59765-0.316406 0.23438-0.199219 0.33985-0.457032 0.11718-0.257812 0.11718-0.550781 0-0.410156-0.29296-0.667969-0.28125-0.257812-0.71485-0.480468-0.43359-0.222657-0.94922-0.457032-0.5039-0.234375-0.9375-0.574218-0.43359-0.339844-0.72656-0.84375-0.28125-0.503906-0.28125-1.26562 0-0.832031 0.31641-1.54688 0.3164-0.714844 0.92578-1.24219 0.60937-0.539062 1.47656-0.832031 0.86719-0.304688 1.96875-0.304688 0.49219 0 0.94922 0.070312 0.46875 0.058594 0.83203 0.164062 0.375 0.105469 0.64453 0.234375 0.28125 0.128906 0.39844 0.257812 0.12891 0.117188 0.12891 0.398438z"/>
 </g>
 <g fill="#4472c4">
  <path transform="translate(-127 -228.086)" d="m380.826 254.273-37.6635 35.5518 1.3728 1.4544 37.6635-35.5518zm-38.7532 32.455-3.0719 8.4002 8.5633-2.5826z" clip-path="url(#clipPath418)"/>
  <path transform="translate(-127 -228.086)" d="m406.978 255.794 15.879 75.28-1.957 0.413-15.878-75.281zm18.539 73.357-2.262 8.653-5.565-7.002z" clip-path="url(#clipPath412)"/>
  <path transform="translate(-127 -228.086)" d="m428.713 253.299 37.439 38.079-1.426 1.402-37.439-38.079zm38.643 35.025 2.757 8.509-8.461-2.9z" clip-path="url(#clipPath406)"/>
 </g>
 <g fill="#00b050" aria-label="head commit">
  <path d="m530.901 19.5156q-0.0234 0.117187-0.11719 0.210937-0.082 0.08203-0.26953 0.140625-0.17578 0.05859-0.46875 0.08203-0.28125 0.03516-0.72656 0.03516-0.42188 0-0.70313-0.03516-0.26953-0.02344-0.42187-0.08203-0.15235-0.05859-0.21094-0.140625-0.0469-0.09375-0.0234-0.210937l1.25391-6.26953q0.0469-0.246094 0.082-0.550781 0.0352-0.316407 0.0352-0.5625 0-0.257813-0.0586-0.46875-0.0469-0.222657-0.16406-0.375-0.11719-0.164063-0.30469-0.246094-0.1875-0.09375-0.44531-0.09375-0.48047 0-1.00781 0.304687-0.51563 0.304688-0.98438 0.832032-0.45703 0.527343-0.82031 1.23047t-0.51562 1.48828l-0.94922 4.71094q-0.0234 0.117187-0.11719 0.210937-0.082 0.08203-0.26953 0.140625-0.17578 0.05859-0.46875 0.08203-0.29297 0.03516-0.71485 0.03516-0.43359 0-0.71484-0.03516-0.26953-0.02344-0.43359-0.08203-0.15235-0.05859-0.19922-0.140625-0.0469-0.09375-0.0234-0.210937l3.08194-15.4102q0.0234-0.117187 0.10547-0.210937 0.082-0.09375 0.26953-0.152344 0.1875-0.070312 0.46875-0.105469 0.29297-0.035156 0.72656-0.035156 0.4336 0 0.70313 0.035156 0.28125 0.035156 0.43359 0.105469 0.15235 0.058594 0.19922 0.152344 0.0469 0.09375 0.0234 0.210937l-0.83203 4.24219q-0.0586 0.257812-0.12891 0.550781-0.0703 0.292969-0.16406 0.585938-0.082 0.28125-0.17578 0.550781-0.082 0.269532-0.16406 0.480469 0.22265-0.375 0.60937-0.75t0.87891-0.679688q0.5039-0.304688 1.07812-0.492188 0.58594-0.199219 1.19531-0.199219 0.79688 0 1.34766 0.222656 0.55078 0.222656 0.90234 0.621094 0.35157 0.398438 0.50391 0.949219 0.16406 0.550781 0.16406 1.20703 0 0.421875-0.0469 0.84375-0.0469 0.410157-0.12891 0.820313z"/>
  <path d="m544.693 11.3594q0 0.84375-0.38672 1.52344-0.375 0.667968-1.1836 1.16016-0.79687 0.480469-2.03906 0.738281-1.23047 0.257813-2.9414 0.257813h-1.07813q-0.0469 0.269531-0.0703 0.539062-0.0234 0.257813-0.0234 0.480469 0 0.949218 0.49219 1.42969t1.58203 0.480469q0.77344 0 1.38281-0.105469 0.6211-0.117187 1.07813-0.246094 0.46875-0.140625 0.77343-0.246093 0.30469-0.117188 0.44532-0.117188 0.14062 0 0.19922 0.08203t0.0586 0.257813q0 0.199219-0.0352 0.457031-0.0352 0.257813-0.10547 0.515625-0.0586 0.246094-0.16406 0.46875-0.0937 0.222656-0.22265 0.339844-0.14063 0.140625-0.51563 0.28125t-0.90234 0.257812q-0.52735 0.117188-1.1836 0.1875-0.65625 0.08203-1.33593 0.08203-1.125 0-1.96875-0.234375-0.83204-0.234375-1.39454-0.714844t-0.84375-1.21875q-0.28125-0.75-0.28125-1.76953 0-0.785156 0.14063-1.67578 0.15234-0.902344 0.48047-1.76953 0.32812-0.878906 0.84375-1.67578 0.51562-0.796875 1.24219-1.39453 0.73828-0.609375 1.69921-0.972656 0.96094-0.363281 2.19141-0.363281 1.06641 0 1.82813 0.257812 0.77343 0.246094 1.26562 0.667969 0.49219 0.410156 0.72656 0.949218 0.2461 0.527344 0.2461 1.08984zm-2.89453 0.222656q0-0.46875-0.375-0.773437-0.36329-0.316406-1.06641-0.316406-0.58594 0-1.05469 0.210937-0.45703 0.210938-0.80859 0.574219-0.35156 0.351562-0.60938 0.84375-0.24609 0.480469-0.39843 1.03125h0.98437q0.9375 0 1.57031-0.117188 0.63282-0.128906 1.01953-0.339843 0.38672-0.210938 0.5625-0.492188 0.17579-0.292969 0.17579-0.621094z"/>
  <path d="m555.299 19.5273q-0.0469 0.246093-0.375 0.351562-0.31641 0.105469-1.03125 0.105469-0.36329 0-0.59766-0.02344-0.22266-0.02344-0.36328-0.07031-0.14063-0.05859-0.1875-0.140625-0.0352-0.09375-0.0117-0.222656l0.32812-1.67578q-0.17578 0.375-0.5625 0.796875-0.38671 0.410157-0.91406 0.75-0.52734 0.339844-1.17187 0.5625-0.63282 0.222657-1.3125 0.222657-0.9375 0-1.5586-0.328125-0.62109-0.328125-0.99609-0.878907-0.375-0.5625-0.53906-1.27734-0.15235-0.714844-0.15235-1.5 0-0.738281 0.14063-1.60547 0.14062-0.878906 0.43359-1.74609 0.29297-0.867187 0.75-1.66406 0.45703-0.808594 1.08985-1.42969 0.64453-0.621094 1.46484-0.984375 0.83203-0.375 1.875-0.375 0.97266 0 1.72266 0.410156 0.75 0.398438 1.3125 1.17188l0.1875-0.925781q0.0469-0.246094 0.36328-0.351562 0.32812-0.105469 1.04297-0.105469 0.35156 0 0.58593 0.035156 0.23438 0.023437 0.36328 0.082031 0.14063 0.046875 0.1875 0.140625 0.0469 0.082031 0.0234 0.199219zm-1.45313-7.33594q-0.41016-0.644531-0.91406-0.960937-0.49219-0.328125-1.14844-0.328125-0.49219 0-0.90234 0.234375-0.41016 0.234375-0.72657 0.632812-0.3164 0.386719-0.5625 0.902344-0.23437 0.515625-0.39843 1.07812-0.15235 0.550781-0.23438 1.125-0.0703 0.5625-0.0703 1.04297 0 0.351562 0.0469 0.667968 0.0586 0.316407 0.19922 0.5625 0.14063 0.246094 0.375 0.398438 0.23438 0.140625 0.59766 0.140625 0.51562 0 1.05469-0.304688 0.53906-0.316406 1.00781-0.84375 0.46875-0.539062 0.82031-1.24219 0.36328-0.714844 0.52735-1.52344z"/>
  <path d="m567.978 19.5273q-0.0469 0.246093-0.375 0.351562-0.3164 0.105469-1.03125 0.105469-0.36328 0-0.59765-0.02344-0.22266-0.02344-0.36328-0.07031-0.14063-0.05859-0.1875-0.140625-0.0352-0.09375-0.0117-0.222656l0.3164-1.67578q-0.17578 0.375-0.5625 0.796875-0.38672 0.410157-0.91406 0.761719-0.52734 0.339844-1.17187 0.550781-0.63282 0.222657-1.3125 0.222657-0.66797 0-1.17188-0.175782-0.49219-0.164062-0.85547-0.457031-0.35156-0.292969-0.58594-0.691406-0.23437-0.398438-0.375-0.84375-0.14062-0.445313-0.19921-0.914063-0.0586-0.480468-0.0586-0.9375 0-0.761718 0.14063-1.62891 0.14062-0.878906 0.43359-1.73438 0.30469-0.867187 0.76172-1.66406t1.08984-1.40625q0.64453-0.609375 1.46485-0.972656 0.83203-0.363281 1.86328-0.363281 0.45703 0 0.86719 0.105469 0.42187 0.09375 0.76171 0.269531 0.35157 0.164062 0.63282 0.398438t0.48047 0.492188l1.11328-5.51953q0.0234-0.117188 0.10547-0.210938 0.082-0.09375 0.25781-0.152344 0.1875-0.070312 0.46875-0.105469 0.29297-0.035156 0.72656-0.035156t0.70313 0.035156q0.28125 0.035156 0.43359 0.105469 0.15234 0.058594 0.19922 0.152344 0.0469 0.09375 0.0234 0.210938zm-1.46484-7.32422q-0.41016-0.644531-0.91406-0.972656-0.49219-0.328125-1.14844-0.328125-0.48047 0-0.89063 0.234375-0.39843 0.222656-0.72656 0.609375-0.3164 0.375-0.5625 0.890625-0.23437 0.503906-0.39844 1.06641-0.15234 0.5625-0.23437 1.125-0.082 0.5625-0.082 1.06641 0 0.890625 0.29297 1.34766 0.29297 0.445313 0.92578 0.445313 0.51562 0 1.05469-0.304688 0.53906-0.316406 1.00781-0.832031 0.46875-0.527344 0.82031-1.23047 0.36328-0.714844 0.52734-1.52344z"/>
  <path d="m585.943 9.75391q0 0.269532-0.0703 0.609375-0.0586 0.339844-0.16406 0.644532-0.10547 0.304687-0.26953 0.515625-0.15234 0.199218-0.33984 0.199218-0.17578 0-0.33985-0.140625-0.16406-0.140625-0.41015-0.316406-0.23438-0.175781-0.59766-0.316406-0.36328-0.152344-0.9375-0.152344-0.60937 0-1.08984 0.269531-0.48047 0.269532-0.84375 0.703125-0.35157 0.421875-0.58594 0.972657-0.23438 0.539062-0.38672 1.10156-0.15234 0.550781-0.22266 1.06641-0.0586 0.503907-0.0586 0.878907 0 0.949218 0.41016 1.44141 0.42187 0.492187 1.3125 0.492187 0.65625 0 1.125-0.164062 0.46875-0.175782 0.79687-0.375 0.33985-0.210938 0.57422-0.375 0.24609-0.164063 0.44531-0.164063 0.11719 0 0.16407 0.105469 0.0586 0.105469 0.0586 0.304687 0 0.199219-0.0469 0.503907-0.0469 0.292968-0.1289 0.597656-0.0703 0.304687-0.17578 0.574219-0.0937 0.257812-0.25782 0.410156-0.15234 0.152344-0.49218 0.351562-0.33985 0.1875-0.78516 0.339844t-0.97266 0.246094q-0.51562 0.09375-1.07812 0.09375-2.00391 0-3-1.00781-0.99609-1.01953-0.99609-3 0-0.714843 0.1289-1.57031 0.14063-0.855469 0.44531-1.71094 0.30469-0.867188 0.78516-1.67578 0.49219-0.808593 1.19531-1.42969 0.70313-0.621094 1.62891-0.996094t2.13281-0.375q0.46875 0 0.91406 0.070312 0.44532 0.070312 0.82032 0.199219 0.375 0.117188 0.65625 0.28125 0.29297 0.164062 0.43359 0.304688 0.14063 0.128906 0.17578 0.234375 0.0469 0.105469 0.0469 0.257812z"/>
  <path d="m597.545 12.5781q0 0.84375-0.16406 1.73438-0.15235 0.890625-0.49219 1.74609-0.33984 0.84375-0.87891 1.59375-0.52734 0.738281-1.27734 1.3125-0.73828 0.5625-1.69922 0.890625t-2.16797 0.328125q-1.18359 0-2.05078-0.269532-0.85547-0.28125-1.42969-0.808593-0.57422-0.539063-0.85547-1.3125-0.28125-0.785157-0.28125-1.79297 0-0.84375 0.15235-1.73438 0.16406-0.890625 0.5039-1.73438 0.33985-0.84375 0.86719-1.59375 0.53906-0.761719 1.27735-1.32422 0.75-0.5625 1.71093-0.890625 0.96094-0.328125 2.16797-0.328125 1.1836 0 2.03906 0.28125 0.86719 0.269531 1.44141 0.808594 0.57422 0.527344 0.85547 1.3125 0.28125 0.773438 0.28125 1.78125zm-3.04688 0.199219q0-0.492188-0.10546-0.867188-0.0937-0.386718-0.32813-0.644531-0.22266-0.269531-0.58594-0.410156-0.35156-0.140625-0.86718-0.140625-0.58594 0-1.05469 0.234375-0.46875 0.222656-0.84375 0.609375-0.36328 0.386719-0.63281 0.902344-0.26954 0.503906-0.44532 1.06641t-0.25781 1.14844q-0.082 0.574219-0.082 1.10156 0 0.492187 0.0937 0.878906 0.10547 0.386719 0.32812 0.65625 0.23438 0.257812 0.58594 0.398437 0.36328 0.140625 0.87891 0.140625 0.58594 0 1.05469-0.222656 0.46875-0.234375 0.83203-0.621094 0.375-0.398437 0.64453-0.902343 0.26953-0.515625 0.44531-1.07812 0.17578-0.574219 0.25781-1.14844 0.082-0.574218 0.082-1.10156z"/>
  <path d="m615.064 19.5156q-0.0234 0.117187-0.11719 0.210937-0.082 0.08203-0.26953 0.140625-0.1875 0.05859-0.48047 0.08203-0.28125 0.03516-0.71484 0.03516-0.42188 0-0.70313-0.03516-0.28125-0.02344-0.43359-0.08203t-0.21094-0.140625q-0.0469-0.09375-0.0117-0.210937l1.25391-6.26953q0.0469-0.269531 0.082-0.527344 0.0352-0.269531 0.0352-0.539062 0-0.550782-0.21094-0.890625-0.19922-0.339844-0.72656-0.339844-0.46875 0-0.97266 0.304687-0.5039 0.304688-0.97265 0.832032-0.45704 0.515625-0.82032 1.21875-0.35156 0.691406-0.5039 1.47656l-0.94922 4.73438q-0.0234 0.117187-0.11719 0.210937-0.082 0.08203-0.26953 0.140625-0.1875 0.05859-0.48047 0.08203-0.28125 0.03516-0.71484 0.03516-0.42188 0-0.70313-0.03516-0.26953-0.02344-0.42187-0.08203-0.15235-0.05859-0.21094-0.140625-0.0469-0.09375-0.0234-0.210937l1.24219-6.26953q0.0703-0.269531 0.0937-0.550781 0.0352-0.292969 0.0352-0.5625 0-0.515625-0.21094-0.84375-0.21094-0.339844-0.72656-0.339844-0.46875 0-0.97266 0.304687-0.50391 0.304688-0.97266 0.832032-0.45703 0.515625-0.82031 1.21875-0.35156 0.691406-0.50391 1.47656l-0.94921 4.73438q-0.0234 0.117187-0.11719 0.210937-0.082 0.08203-0.26953 0.140625-0.17578 0.05859-0.46875 0.08203-0.29297 0.03516-0.71485 0.03516-0.43359 0-0.71484-0.03516-0.26953-0.02344-0.43359-0.08203-0.15235-0.05859-0.19922-0.140625-0.0469-0.09375-0.0234-0.210937l2.09756-10.4648q0.0234-0.117188 0.0937-0.199219 0.082-0.09375 0.23437-0.140625 0.16406-0.058594 0.41016-0.082031 0.25781-0.035156 0.60937-0.035156 0.36328 0 0.58594 0.035156 0.23437 0.023437 0.36328 0.082031 0.12891 0.046875 0.16406 0.140625 0.0469 0.082031 0.0234 0.199219l-0.33984 1.72266q0.24609-0.410157 0.65625-0.832032 0.41015-0.433594 0.92578-0.773438 0.52734-0.339844 1.13672-0.550781 0.62109-0.222656 1.27734-0.222656 0.67969 0 1.17188 0.1875 0.5039 0.175781 0.82031 0.503906 0.32812 0.316406 0.49219 0.75 0.17578 0.433594 0.22265 0.9375 0.26953-0.421875 0.67969-0.84375 0.42187-0.421875 0.9375-0.761719 0.52734-0.339844 1.13672-0.550781 0.60937-0.222656 1.2539-0.222656 0.82032 0 1.3711 0.234375 0.5625 0.222656 0.90234 0.632812 0.33985 0.398438 0.49219 0.949219 0.15234 0.539062 0.15234 1.17188 0 0.410156-0.0469 0.832031-0.0469 0.410156-0.14063 0.84375z"/>
  <path d="m634.353 19.5156q-0.0234 0.117187-0.11718 0.210937-0.082 0.08203-0.26954 0.140625-0.1875 0.05859-0.48046 0.08203-0.28125 0.03516-0.71485 0.03516-0.42187 0-0.70312-0.03516-0.28125-0.02344-0.4336-0.08203-0.15234-0.05859-0.21093-0.140625-0.0469-0.09375-0.0117-0.210937l1.2539-6.26953q0.0469-0.269531 0.082-0.527344 0.0352-0.269531 0.0352-0.539062 0-0.550782-0.21094-0.890625-0.19922-0.339844-0.72656-0.339844-0.46875 0-0.97266 0.304687-0.5039 0.304688-0.97265 0.832032-0.45703 0.515625-0.82031 1.21875-0.35157 0.691406-0.50391 1.47656l-0.94922 4.73438q-0.0234 0.117187-0.11719 0.210937-0.082 0.08203-0.26953 0.140625-0.1875 0.05859-0.48047 0.08203-0.28125 0.03516-0.71484 0.03516-0.42188 0-0.70313-0.03516-0.26953-0.02344-0.42187-0.08203t-0.21094-0.140625q-0.0469-0.09375-0.0234-0.210937l1.24219-6.26953q0.0703-0.269531 0.0937-0.550781 0.0352-0.292969 0.0352-0.5625 0-0.515625-0.21094-0.84375-0.21094-0.339844-0.72656-0.339844-0.46875 0-0.97266 0.304687-0.5039 0.304688-0.97265 0.832032-0.45704 0.515625-0.82032 1.21875-0.35156 0.691406-0.5039 1.47656l-0.94922 4.73438q-0.0234 0.117187-0.11719 0.210937-0.082 0.08203-0.26953 0.140625-0.17578 0.05859-0.46875 0.08203-0.29297 0.03516-0.71484 0.03516-0.4336 0-0.71485-0.03516-0.26953-0.02344-0.43359-0.08203-0.15235-0.05859-0.19922-0.140625-0.0469-0.09375-0.0234-0.210937l2.09766-10.4648q0.0234-0.117188 0.0937-0.199219 0.082-0.09375 0.23437-0.140625 0.16407-0.058594 0.41016-0.082031 0.25781-0.035156 0.60937-0.035156 0.36329 0 0.58594 0.035156 0.23438 0.023437 0.36328 0.082031 0.12891 0.046875 0.16407 0.140625 0.0469 0.082031 0.0234 0.199219l-0.33984 1.72266q0.24609-0.410157 0.65625-0.832032 0.41016-0.433594 0.92578-0.773438 0.52734-0.339844 1.13672-0.550781 0.62109-0.222656 1.27734-0.222656 0.67969 0 1.17188 0.1875 0.5039 0.175781 0.82031 0.503906 0.32813 0.316406 0.49219 0.75 0.17578 0.433594 0.22265 0.9375 0.26954-0.421875 0.67969-0.84375 0.42188-0.421875 0.9375-0.761719 0.52735-0.339844 1.13672-0.550781 0.60938-0.222656 1.25391-0.222656 0.82031 0 1.37109 0.234375 0.5625 0.222656 0.90234 0.632812 0.33985 0.398438 0.49219 0.949219 0.15235 0.539062 0.15235 1.17188 0 0.410156-0.0469 0.832031-0.0469 0.410156-0.14062 0.84375z"/>
  <path d="m643.213 5.54688q-0.082 0.433594-0.22266 0.738281-0.14062 0.292969-0.375 0.480469-0.23437 0.175781-0.57422 0.257812-0.33984 0.070312-0.84375 0.070312-0.49218 0-0.80859-0.070312-0.30469-0.082031-0.46875-0.257812-0.15234-0.1875-0.17578-0.480469-0.0234-0.304688 0.0703-0.738281 0.082-0.421875 0.22266-0.714844 0.14062-0.292969 0.375-0.480469 0.23437-0.1875 0.57422-0.269531 0.33985-0.0820312 0.84376-0.0820312 0.49218 0 0.79687 0.082031 0.31641 0.082031 0.46875 0.269531 0.16406 0.1875 0.17578 0.480469 0.0234 0.292969-0.0586 0.714844zm-3.02344 13.9688q-0.0234 0.117187-0.11719 0.210937-0.082 0.08203-0.26953 0.140625-0.17578 0.05859-0.46875 0.08203-0.29297 0.03516-0.71484 0.03516-0.4336 0-0.71485-0.03516-0.26953-0.02344-0.43359-0.08203-0.15234-0.05859-0.19922-0.140625-0.0469-0.09375-0.0234-0.210937l2.07422-10.4297q0.0234-0.117188 0.10547-0.199219 0.0937-0.09375 0.26953-0.152344 0.1875-0.070312 0.46875-0.105469 0.29297-0.035156 0.72657-0.035156 0.43359 0 0.70312 0.035156 0.28125 0.035156 0.43359 0.105469 0.16407 0.058594 0.21094 0.152344 0.0469 0.082031 0.0234 0.199219z"/>
  <path d="m651.357 9.16797q0 0.117188-0.0234 0.304688-0.0234 0.175781-0.0703 0.386719-0.0352 0.210938-0.10547 0.421875-0.0703 0.210938-0.16406 0.386719-0.082 0.164062-0.19922 0.28125-0.10547 0.105469-0.23438 0.105469h-2.28515l-0.98438 4.91016q-0.0352 0.175781-0.0703 0.421875-0.0234 0.234375-0.0234 0.386718 0 0.46875 0.22266 0.691407 0.22266 0.210937 0.70312 0.210937 0.28125 0 0.48047-0.03516 0.19922-0.04687 0.33985-0.09375 0.15234-0.05859 0.25781-0.09375 0.10547-0.04687 0.19922-0.04687 0.0937 0 0.15234 0.09375 0.0703 0.08203 0.0703 0.28125 0 0.222656-0.0469 0.503906t-0.12891 0.550781q-0.0703 0.257813-0.16406 0.480469-0.0937 0.210938-0.19922 0.316406-0.10547 0.105469-0.3164 0.199219-0.21094 0.09375-0.50391 0.164063-0.28125 0.07031-0.60938 0.105468-0.32812 0.04687-0.65625 0.04687-0.70312 0-1.24218-0.152343-0.52735-0.140625-0.89063-0.457032-0.36328-0.316406-0.55078-0.808593-0.17578-0.492188-0.17578-1.19531 0-0.128906 0.0117-0.292969 0.0117-0.175781 0.0351-0.363281 0.0352-0.1875 0.0586-0.375 0.0351-0.199219 0.0703-0.351562l1.01953-5.09766h-1.26562q-0.15235 0-0.22266-0.09375-0.0703-0.105469-0.0703-0.386719 0-0.199219 0.0351-0.515625 0.0469-0.328125 0.14063-0.632813 0.0937-0.316406 0.24609-0.539062 0.15235-0.222656 0.36328-0.222656h1.25391l0.46875-2.33203q0.0234-0.117188 0.10547-0.210938 0.0937-0.09375 0.26953-0.152344 0.1875-0.070312 0.46875-0.09375 0.29297-0.035156 0.72656-0.035156 0.42188 0 0.70313 0.035156 0.28125 0.023437 0.43359 0.09375 0.15235 0.058594 0.19922 0.152344 0.0586 0.09375 0.0352 0.210938l-0.46875 2.33203h2.26172q0.19921 0 0.26953 0.128906 0.0703 0.128906 0.0703 0.375z"/>
 </g>
 <path transform="translate(-127 -228.086)" d="m713 255v29.361h-2v-29.361zm3 28.027-4 8-4-8z" clip-path="url(#clipPath400)" fill="#4472c4"/>
 <path transform="translate(-127 -228.086)" d="m1022.5 429.167h96.9v4.666h-96.9zm94.57-4.667 14 7-14 7z" clip-path="url(#clipPath394)"/>
 <g aria-label="time">
  <path d="m928.654 192.484q0 0.51563-0.0703 0.79688-0.0586 0.26953-0.16406 0.38672-0.10547 0.10547-0.31641 0.19922-0.19922 0.082-0.48047 0.14062-0.26953 0.0703-0.59765 0.10547-0.31641 0.0352-0.64453 0.0352-0.87891 0-1.52344-0.22266t-1.06641-0.67969q-0.42187-0.46875-0.62109-1.17187-0.19922-0.70313-0.19922-1.66406v-5.35547h-1.25391q-0.22265 0-0.33984-0.26953-0.11719-0.28125-0.11719-0.92579 0-0.33984 0.0234-0.57421 0.0352-0.23438 0.0937-0.36329 0.0586-0.14062 0.14062-0.19921 0.0937-0.0586 0.21094-0.0586h1.24219v-2.33203q0-0.11719 0.0586-0.21094 0.0703-0.0937 0.23438-0.15234 0.17578-0.0703 0.45703-0.0937 0.29297-0.0352 0.71484-0.0352 0.4336 0 0.71485 0.0352 0.29297 0.0234 0.45703 0.0937 0.16406 0.0586 0.23437 0.15234 0.0703 0.0937 0.0703 0.21094v2.33203h2.27343q0.11719 0 0.19922 0.0586 0.0937 0.0586 0.15235 0.19921 0.0586 0.12891 0.082 0.36329 0.0351 0.23437 0.0351 0.57421 0 0.64454-0.11718 0.92579-0.11719 0.26953-0.33985 0.26953h-2.28515v4.91015q0 0.85547 0.26953 1.28907 0.26953 0.42187 0.96093 0.42187 0.23438 0 0.42188-0.0352 0.1875-0.0469 0.32812-0.0937 0.15235-0.0586 0.2461-0.0937 0.10547-0.0469 0.1875-0.0469 0.0703 0 0.1289 0.0469 0.0703 0.0352 0.10547 0.16407 0.0352 0.11718 0.0586 0.32812 0.0351 0.21094 0.0351 0.53906z"/>
  <path d="m933.753 193.516q0 0.11719-0.0703 0.21094-0.0703 0.082-0.24609 0.14063-0.16407 0.0586-0.44532 0.082-0.28125 0.0352-0.71484 0.0352t-0.71484-0.0352q-0.28125-0.0234-0.45704-0.082-0.16406-0.0586-0.23437-0.14063-0.0703-0.0937-0.0703-0.21094v-10.4297q0-0.11719 0.0703-0.19922 0.0703-0.0937 0.23437-0.15235 0.17579-0.0703 0.45704-0.10546 0.28125-0.0352 0.71484-0.0352t0.71484 0.0352 0.44532 0.10546q0.17578 0.0586 0.24609 0.15235 0.0703 0.082 0.0703 0.19922zm0.22266-13.9922q0 0.89062-0.36328 1.23047-0.36328 0.33984-1.34766 0.33984-0.99609 0-1.34766-0.32813-0.33984-0.32812-0.33984-1.18359 0-0.89062 0.35156-1.23047 0.36328-0.35156 1.35938-0.35156 0.98437 0 1.33594 0.33984 0.35156 0.32813 0.35156 1.1836z"/>
  <path d="m953.323 193.516q0 0.11719-0.0703 0.21094-0.0703 0.082-0.23437 0.14063-0.16407 0.0586-0.44532 0.082-0.28125 0.0352-0.71484 0.0352-0.44531 0-0.72656-0.0352-0.28125-0.0234-0.45703-0.082-0.16407-0.0586-0.23438-0.14063-0.0586-0.0937-0.0586-0.21094v-6.19921q0-0.52735-0.10547-0.96094-0.0937-0.4336-0.30469-0.73828-0.19922-0.31641-0.51562-0.48047-0.30469-0.17578-0.73828-0.17578-0.52735 0-1.06641 0.41015-0.53906 0.41016-1.17188 1.19532v6.94921q0 0.11719-0.0703 0.21094-0.0703 0.082-0.24609 0.14063-0.16406 0.0586-0.44531 0.082-0.28125 0.0352-0.70313 0.0352-0.43359 0-0.71484-0.0352-0.28125-0.0234-0.45703-0.082-0.16407-0.0586-0.23438-0.14063-0.0703-0.0937-0.0703-0.21094v-6.19921q0-0.52735-0.10547-0.96094-0.0937-0.4336-0.29297-0.73828-0.19922-0.31641-0.51562-0.48047-0.31641-0.17578-0.73829-0.17578-0.53906 0-1.07812 0.41015-0.53906 0.41016-1.16016 1.19532v6.94921q0 0.11719-0.0703 0.21094-0.0703 0.082-0.24609 0.14063-0.16407 0.0586-0.44532 0.082-0.28125 0.0352-0.71484 0.0352t-0.71484-0.0352q-0.28125-0.0234-0.45703-0.082-0.16407-0.0586-0.23438-0.14063-0.0703-0.0937-0.0703-0.21094v-10.4531q0-0.11719 0.0586-0.19922 0.0586-0.0937 0.21094-0.15234 0.15234-0.0586 0.38672-0.082 0.24609-0.0352 0.60937-0.0352 0.375 0 0.6211 0.0352 0.24609 0.0234 0.375 0.082 0.14062 0.0586 0.19922 0.15234 0.0586 0.082 0.0586 0.19922v1.20703q0.86719-0.9375 1.72266-1.40625 0.86718-0.46875 1.80468-0.46875 0.64453 0 1.16016 0.14063 0.51562 0.1289 0.91406 0.38671 0.41016 0.2461 0.70313 0.59766t0.49218 0.78516q0.46875-0.50391 0.91407-0.86719 0.45703-0.36328 0.89062-0.58594 0.44531-0.23437 0.87891-0.33984 0.44531-0.11719 0.90234-0.11719 1.04297 0 1.75781 0.35156 0.71485 0.35157 1.14844 0.96094 0.44531 0.59766 0.63281 1.40625t0.1875 1.71094z"/>
  <path d="m965.874 187.984q0 0.53907-0.2461 0.79688-0.23437 0.25781-0.65625 0.25781h-6.36328q0 0.66797 0.15234 1.21875 0.16407 0.53906 0.50391 0.92578 0.35156 0.375 0.89063 0.57422 0.55078 0.19922 1.3125 0.19922 0.77343 0 1.35937-0.10547 0.58594-0.11719 1.00781-0.24609 0.4336-0.14063 0.71485-0.2461 0.28125-0.11718 0.45703-0.11718 0.10547 0 0.17578 0.0469 0.0703 0.0352 0.11719 0.14063 0.0469 0.10547 0.0586 0.30468 0.0234 0.1875 0.0234 0.48047 0 0.25782-0.0117 0.44532-0.0117 0.17578-0.0352 0.30468-0.0234 0.12891-0.0703 0.22266-0.0469 0.082-0.12891 0.16406-0.0703 0.082-0.41015 0.22266-0.33985 0.14062-0.86719 0.28125-0.52734 0.1289-1.20703 0.22265-0.67969 0.10547-1.45313 0.10547-1.39453 0-2.44921-0.35156-1.04297-0.35156-1.7461-1.06641-0.70312-0.71484-1.05469-1.80468-0.33984-1.08985-0.33984-2.55469 0-1.39453 0.36328-2.50781 0.36328-1.125 1.05469-1.89844 0.69141-0.78516 1.67578-1.19531 0.99609-0.41016 2.23828-0.41016 1.3125 0 2.23828 0.38672 0.9375 0.38672 1.53516 1.07812 0.59766 0.67969 0.87891 1.61719t0.28125 2.03906zm-2.85938-0.84375q0.0352-1.24218-0.50391-1.94531-0.52734-0.71484-1.64062-0.71484-0.5625 0-0.98438 0.21094-0.41015 0.21093-0.6914 0.57421-0.26953 0.35157-0.42188 0.84375-0.14062 0.48047-0.16406 1.03125z"/>
 </g>
</svg>
