<?xml version="1.0" encoding="UTF-8"?>
<svg width="1004.65" height="266.974" overflow="hidden" version="1.1" xmlns="http://www.w3.org/2000/svg">
 <defs>
  <clipPath id="clip2">
   <rect x="190" y="348" width="19" height="19"/>
  </clipPath>
  <clipPath id="clip3">
   <rect x="190" y="348" width="19" height="19"/>
  </clipPath>
  <clipPath id="clip5">
   <rect x="225" y="386" width="19" height="20"/>
  </clipPath>
  <clipPath id="clip6">
   <rect x="225" y="386" width="19" height="20"/>
  </clipPath>
  <clipPath id="clip8">
   <rect x="155" y="385" width="19" height="19"/>
  </clipPath>
  <clipPath id="clip9">
   <rect x="155" y="385" width="19" height="19"/>
  </clipPath>
  <clipPath id="clip11">
   <rect x="190" y="386" width="19" height="20"/>
  </clipPath>
  <clipPath id="clip12">
   <rect x="190" y="386" width="19" height="20"/>
  </clipPath>
  <clipPath id="clip14">
   <rect x="155" y="385" width="19" height="19"/>
  </clipPath>
  <clipPath id="clip15">
   <rect x="155" y="385" width="19" height="19"/>
  </clipPath>
  <clipPath id="clip17">
   <rect x="190" y="422" width="19" height="19"/>
  </clipPath>
  <clipPath id="clip18">
   <rect x="190" y="422" width="19" height="19"/>
  </clipPath>
  <clipPath id="clip20">
   <rect x="155" y="422" width="19" height="20"/>
  </clipPath>
  <clipPath id="clip21">
   <rect x="155" y="422" width="19" height="20"/>
  </clipPath>
  <clipPath id="clip23">
   <rect x="431" y="348" width="19" height="19"/>
  </clipPath>
  <clipPath id="clip24">
   <rect x="431" y="348" width="19" height="19"/>
  </clipPath>
  <clipPath id="clip26">
   <rect x="466" y="386" width="19" height="20"/>
  </clipPath>
  <clipPath id="clip27">
   <rect x="466" y="386" width="19" height="20"/>
  </clipPath>
  <clipPath id="clip29">
   <rect x="396" y="385" width="20" height="19"/>
  </clipPath>
  <clipPath id="clip30">
   <rect x="396" y="385" width="20" height="19"/>
  </clipPath>
  <clipPath id="clip32">
   <rect x="431" y="386" width="19" height="20"/>
  </clipPath>
  <clipPath id="clip33">
   <rect x="431" y="386" width="19" height="20"/>
  </clipPath>
  <clipPath id="clip35">
   <rect x="396" y="385" width="20" height="19"/>
  </clipPath>
  <clipPath id="clip36">
   <rect x="396" y="385" width="20" height="19"/>
  </clipPath>
  <clipPath id="clip38">
   <rect x="431" y="422" width="19" height="19"/>
  </clipPath>
  <clipPath id="clip39">
   <rect x="431" y="422" width="19" height="19"/>
  </clipPath>
  <clipPath id="clip41">
   <rect x="361" y="422" width="20" height="19"/>
  </clipPath>
  <clipPath id="clip42">
   <rect x="361" y="422" width="20" height="19"/>
  </clipPath>
  <clipPath id="clip44">
   <rect x="396" y="422" width="20" height="20"/>
  </clipPath>
  <clipPath id="clip45">
   <rect x="396" y="422" width="20" height="20"/>
  </clipPath>
  <clipPath id="clip47">
   <rect x="903" y="348" width="19" height="19"/>
  </clipPath>
  <clipPath id="clip48">
   <rect x="903" y="348" width="19" height="19"/>
  </clipPath>
  <clipPath id="clip50">
   <rect x="937" y="386" width="20" height="20"/>
  </clipPath>
  <clipPath id="clip51">
   <rect x="937" y="386" width="20" height="20"/>
  </clipPath>
  <clipPath id="clip53">
   <rect x="868" y="385" width="19" height="19"/>
  </clipPath>
  <clipPath id="clip54">
   <rect x="868" y="385" width="19" height="19"/>
  </clipPath>
  <clipPath id="clip56">
   <rect x="903" y="386" width="19" height="20"/>
  </clipPath>
  <clipPath id="clip57">
   <rect x="903" y="386" width="19" height="20"/>
  </clipPath>
  <clipPath id="clip59">
   <rect x="868" y="385" width="19" height="19"/>
  </clipPath>
  <clipPath id="clip60">
   <rect x="868" y="385" width="19" height="19"/>
  </clipPath>
  <clipPath id="clip62">
   <rect x="903" y="422" width="19" height="19"/>
  </clipPath>
  <clipPath id="clip63">
   <rect x="903" y="422" width="19" height="19"/>
  </clipPath>
  <clipPath id="clip65">
   <rect x="833" y="422" width="19" height="19"/>
  </clipPath>
  <clipPath id="clip66">
   <rect x="833" y="422" width="19" height="19"/>
  </clipPath>
  <clipPath id="clip68">
   <rect x="868" y="422" width="19" height="20"/>
  </clipPath>
  <clipPath id="clip69">
   <rect x="868" y="422" width="19" height="20"/>
  </clipPath>
  <clipPath id="clipPath1120">
   <rect width="1280" height="720"/>
  </clipPath>
  <clipPath id="clipPath1126">
   <rect width="1280" height="720"/>
  </clipPath>
  <clipPath id="clipPath1132">
   <rect width="1280" height="720"/>
  </clipPath>
  <clipPath id="clipPath1138">
   <rect width="1280" height="720"/>
  </clipPath>
  <clipPath id="clipPath1144">
   <rect width="1280" height="720"/>
  </clipPath>
  <clipPath id="clipPath1150">
   <rect width="1280" height="720"/>
  </clipPath>
  <clipPath id="clipPath1156">
   <rect width="1280" height="720"/>
  </clipPath>
  <clipPath id="clipPath1162">
   <rect width="1280" height="720"/>
  </clipPath>
  <clipPath id="clipPath1168">
   <rect width="1280" height="720"/>
  </clipPath>
  <clipPath id="clipPath1174">
   <rect width="1280" height="720"/>
  </clipPath>
  <clipPath id="clipPath1180">
   <rect width="1280" height="720"/>
  </clipPath>
  <clipPath id="clipPath1186">
   <rect width="1280" height="720"/>
  </clipPath>
  <clipPath id="clipPath1192">
   <rect width="1280" height="720"/>
  </clipPath>
  <clipPath id="clipPath1198">
   <rect width="1280" height="720"/>
  </clipPath>
  <clipPath id="clipPath1204">
   <rect width="1280" height="720"/>
  </clipPath>
  <clipPath id="clipPath1210">
   <rect width="1280" height="720"/>
  </clipPath>
  <clipPath id="clipPath1216">
   <rect width="1280" height="720"/>
  </clipPath>
  <clipPath id="clipPath1222">
   <rect width="1280" height="720"/>
  </clipPath>
  <clipPath id="clipPath1228">
   <rect width="1280" height="720"/>
  </clipPath>
  <clipPath id="clipPath1234">
   <rect width="1280" height="720"/>
  </clipPath>
  <clipPath id="clipPath1240">
   <rect width="1280" height="720"/>
  </clipPath>
  <clipPath id="clipPath1246">
   <rect width="1280" height="720"/>
  </clipPath>
  <clipPath id="clipPath1252">
   <rect width="1280" height="720"/>
  </clipPath>
  <clipPath id="clipPath1258">
   <rect width="1280" height="720"/>
  </clipPath>
  <clipPath id="clipPath1264">
   <rect width="1280" height="720"/>
  </clipPath>
  <clipPath id="clipPath1270">
   <rect width="1280" height="720"/>
  </clipPath>
  <clipPath id="clipPath1276">
   <rect width="1280" height="720"/>
  </clipPath>
  <clipPath id="clipPath1282">
   <rect width="1280" height="720"/>
  </clipPath>
  <clipPath id="clipPath1288">
   <rect width="1280" height="720"/>
  </clipPath>
  <clipPath id="clipPath1294">
   <rect width="1280" height="720"/>
  </clipPath>
  <clipPath id="clipPath1300">
   <rect width="1280" height="720"/>
  </clipPath>
  <clipPath id="clipPath1306">
   <rect width="1280" height="720"/>
  </clipPath>
  <clipPath id="clipPath1312">
   <rect width="1280" height="720"/>
  </clipPath>
  <clipPath id="clipPath1318">
   <rect width="1280" height="720"/>
  </clipPath>
  <clipPath id="clipPath1324">
   <rect width="1280" height="720"/>
  </clipPath>
  <clipPath id="clipPath1330">
   <rect width="1280" height="720"/>
  </clipPath>
  <clipPath id="clipPath1336">
   <rect width="1280" height="720"/>
  </clipPath>
  <clipPath id="clipPath1342">
   <rect width="1280" height="720"/>
  </clipPath>
  <clipPath id="clipPath1348">
   <rect width="1280" height="720"/>
  </clipPath>
  <clipPath id="clipPath1354">
   <rect width="1280" height="720"/>
  </clipPath>
  <clipPath id="clipPath1360">
   <rect width="1280" height="720"/>
  </clipPath>
  <clipPath id="clipPath1366">
   <rect width="1280" height="720"/>
  </clipPath>
  <clipPath id="clipPath1372">
   <rect width="1280" height="720"/>
  </clipPath>
  <clipPath id="clipPath1378">
   <rect width="1280" height="720"/>
  </clipPath>
  <clipPath id="clipPath1384">
   <rect width="1280" height="720"/>
  </clipPath>
  <clipPath id="clipPath1390">
   <rect width="1280" height="720"/>
  </clipPath>
  <clipPath id="clipPath1396">
   <rect width="1280" height="720"/>
  </clipPath>
 </defs>
 <path transform="translate(-127 -173.57)" d="m127 308h994.65v4h-994.65zm992.65-4 12 6-12 6z" clip-path="url(#clipPath1396)" fill="#ed7d31"/>
 <path transform="translate(-127 -173.57)" d="m182.5 311c0-8.56 7.163-15.5 16-15.5s16 6.94 16 15.5-7.163 15.5-16 15.5-16-6.94-16-15.5z" clip-path="url(#clipPath1390)" fill="#fff" fill-rule="evenodd" stroke="#70ad47" stroke-miterlimit="8" stroke-width="1.33333"/>
 <path transform="translate(-127 -173.57)" d="m895.5 311.5c0-8.836 6.94-16 15.5-16s15.5 7.164 15.5 16c0 8.837-6.94 16-15.5 16s-15.5-7.163-15.5-16z" clip-path="url(#clipPath1384)" fill="#fff" fill-rule="evenodd" stroke="#70ad47" stroke-miterlimit="8" stroke-width="1.33333"/>
 <text x="158.57999" y="16.429688" fill="#00b050" font-family="Calibri, Calibri_MSFontService, sans-serif" font-size="24px" font-style="italic" font-weight="700">a commit that adds a file</text>
 <path transform="translate(-127 -173.57)" d="m406.957 201.709 23.282 76.524-1.914 0.582-23.282-76.524zm25.764 74.375-1.498 8.818-6.156-6.489z" clip-path="url(#clipPath1378)" fill="#4472c4"/>
 <path transform="translate(-127 -173.57)" d="m1022.5 361.167h96.9v4.666h-96.9zm94.57-4.667 14 7-14 7z" clip-path="url(#clipPath1372)"/>
 <text x="920.98999" y="180.42969" font-family="Calibri, Calibri_MSFontService, sans-serif" font-size="24px" font-weight="700">time</text>
 <g transform="translate(-127 -173.57)" clip-path="url(#clipPath1366)">
  <g clip-path="url(#clip2)">
   <g clip-path="url(#clip3)">
    <path d="m192.969 363.046h13.062c0.437-2e-3 0.791-0.355 0.792-0.792v-7.919c-1e-3 -0.437-0.355-0.79-0.792-0.792h-6.729l-2.177-1.444c-0.125-0.096-0.279-0.145-0.435-0.139h-3.721c-0.437 1e-3 -0.791 0.355-0.792 0.792v9.502c1e-3 0.437 0.355 0.791 0.792 0.792zm-0.396-10.295c0-0.218 0.177-0.395 0.396-0.395h3.721c0.064-5e-3 0.128 0.011 0.181 0.046l0.017 0.014 0.018 0.012 2.177 1.445 0.099 0.066h6.849c0.219 0 0.396 0.177 0.396 0.396v7.919c0 0.219-0.177 0.396-0.396 0.396h-13.062c-0.219 0-0.396-0.177-0.396-0.396z" stroke="#000" stroke-width=".4"/>
   </g>
  </g>
 </g>
 <g transform="translate(-127 -173.57)" clip-path="url(#clipPath1360)">
  <g clip-path="url(#clip5)">
   <g clip-path="url(#clip6)" stroke="#000" stroke-width=".4">
    <path transform="matrix(1,0,0,1.05263,225,386)" d="m5.54167 8.3125h7.91663v0.39583h-7.91663z"/>
    <path transform="matrix(1,0,0,1.05263,225,386)" d="m5.54167 6.72917h3.76041v0.39583h-3.76041z"/>
    <path transform="matrix(1,0,0,1.05263,225,386)" d="m5.54167 9.89583h7.91663v0.39587h-7.91663z"/>
    <path transform="matrix(1,0,0,1.05263,225,386)" d="m5.54167 11.4792h7.91663v0.3958h-7.91663z"/>
    <path transform="matrix(1,0,0,1.05263,225,386)" d="m5.54167 13.0625h7.91663v0.3958h-7.91663z"/>
    <path transform="matrix(1,0,0,1.05263,225,386)" d="m5.54167 14.6458h7.91663v0.3959h-7.91663z"/>
    <path transform="matrix(1,0,0,1.05263,225,386)" d="m3.5625 1.58333v15.8334h11.875v-11.5611l-4.2722-4.27223zm7.7221 0.67906 3.4738 3.47383c8e-4 7.7e-4 8e-4 0.00204 0 0.00279-3e-4 3.6e-4 -8e-4 5.7e-4 -0.0013 5.7e-4h-3.4759v-3.47581c1e-4 -0.00109 1e-3 -0.00196 2e-3 -0.00196 6e-4 2e-5 0.0011 2.2e-4 0.0014 5.8e-4zm-7.32627 14.7584v-15.0416h6.92707v4.15625h4.1563v10.8854z"/>
   </g>
  </g>
 </g>
 <g transform="translate(-127 -173.57)" clip-path="url(#clipPath1354)">
  <g clip-path="url(#clip8)">
   <g clip-path="url(#clip9)">
    <path d="m157.969 400.046h13.062c0.437-2e-3 0.791-0.355 0.792-0.792v-7.919c-1e-3 -0.437-0.355-0.79-0.792-0.792h-6.729l-2.177-1.444c-0.125-0.096-0.279-0.145-0.435-0.139h-3.721c-0.437 1e-3 -0.791 0.355-0.792 0.792v9.502c1e-3 0.437 0.355 0.791 0.792 0.792zm-0.396-10.295c0-0.218 0.177-0.395 0.396-0.395h3.721c0.064-5e-3 0.128 0.011 0.181 0.046l0.017 0.014 0.018 0.012 2.177 1.445 0.099 0.066h6.849c0.219 0 0.396 0.177 0.396 0.396v7.919c0 0.219-0.177 0.396-0.396 0.396h-13.062c-0.219 0-0.396-0.177-0.396-0.396z" stroke="#000" stroke-width=".4"/>
   </g>
  </g>
 </g>
 <path transform="translate(-127 -173.57)" d="m200.5 367.5v9.519h34.8236v9.519" clip-path="url(#clipPath1348)" fill="none" fill-rule="evenodd" stroke="#4472c4" stroke-miterlimit="8" stroke-width=".666667"/>
 <path transform="translate(-127 -173.57)" d="m200.321 368.5v8.769h-34.821v8.768" clip-path="url(#clipPath1342)" fill="none" fill-rule="evenodd" stroke="#4472c4" stroke-miterlimit="8" stroke-width=".666667"/>
 <g transform="translate(-127 -173.57)" clip-path="url(#clipPath1336)">
  <g clip-path="url(#clip11)">
   <g clip-path="url(#clip12)" stroke="#000" stroke-width=".4">
    <path transform="matrix(1,0,0,1.05263,190,386)" d="m5.54167 8.3125h7.91663v0.39583h-7.91663z"/>
    <path transform="matrix(1,0,0,1.05263,190,386)" d="m5.54167 6.72917h3.76041v0.39583h-3.76041z"/>
    <path transform="matrix(1,0,0,1.05263,190,386)" d="m5.54167 9.89583h7.91663v0.39587h-7.91663z"/>
    <path transform="matrix(1,0,0,1.05263,190,386)" d="m5.54167 11.4792h7.91663v0.3958h-7.91663z"/>
    <path transform="matrix(1,0,0,1.05263,190,386)" d="m5.54167 13.0625h7.91663v0.3958h-7.91663z"/>
    <path transform="matrix(1,0,0,1.05263,190,386)" d="m5.54167 14.6458h7.91663v0.3959h-7.91663z"/>
    <path transform="matrix(1,0,0,1.05263,190,386)" d="m3.5625 1.58333v15.8334h11.875v-11.5611l-4.2722-4.27223zm7.7221 0.67906 3.4738 3.47383c8e-4 7.7e-4 8e-4 0.00204 0 0.00279-3e-4 3.6e-4 -8e-4 5.7e-4 -0.0013 5.7e-4h-3.4759v-3.47581c1e-4 -0.00109 1e-3 -0.00196 2e-3 -0.00196 6e-4 2e-5 0.0011 2.2e-4 0.0014 5.8e-4zm-7.32627 14.7584v-15.0416h6.92707v4.15625h4.1563v10.8854z"/>
   </g>
  </g>
 </g>
 <path transform="translate(-127 -173.57)" d="m200.5 367.5v9.12325h1e-3v9.12325" clip-path="url(#clipPath1330)" fill="none" fill-rule="evenodd" stroke="#4472c4" stroke-miterlimit="8" stroke-width=".666667"/>
 <g transform="translate(-127 -173.57)" clip-path="url(#clipPath1324)">
  <g clip-path="url(#clip14)">
   <g clip-path="url(#clip15)">
    <path d="m157.969 400.046h13.062c0.437-2e-3 0.791-0.355 0.792-0.792v-7.919c-1e-3 -0.437-0.355-0.79-0.792-0.792h-6.729l-2.177-1.444c-0.125-0.096-0.279-0.145-0.435-0.139h-3.721c-0.437 1e-3 -0.791 0.355-0.792 0.792v9.502c1e-3 0.437 0.355 0.791 0.792 0.792zm-0.396-10.295c0-0.218 0.177-0.395 0.396-0.395h3.721c0.064-5e-3 0.128 0.011 0.181 0.046l0.017 0.014 0.018 0.012 2.177 1.445 0.099 0.066h6.849c0.219 0 0.396 0.177 0.396 0.396v7.919c0 0.219-0.177 0.396-0.396 0.396h-13.062c-0.219 0-0.396-0.177-0.396-0.396z" stroke="#000" stroke-width=".4"/>
   </g>
  </g>
 </g>
 <g transform="translate(-127 -173.57)" clip-path="url(#clipPath1318)">
  <g clip-path="url(#clip17)">
   <g clip-path="url(#clip18)" stroke="#000" stroke-width=".4">
    <path d="m195.542 430.312h7.916v0.396h-7.916z"/>
    <path d="m195.542 428.729h3.76v0.396h-3.76z"/>
    <path d="m195.542 431.896h7.916v0.396h-7.916z"/>
    <path d="m195.542 433.479h7.916v0.396h-7.916z"/>
    <path d="m195.542 435.062h7.916v0.396h-7.916z"/>
    <path d="m195.542 436.646h7.916v0.396h-7.916z"/>
    <path d="m193.562 423.583v15.834h11.876v-11.561l-4.273-4.273zm7.723 0.679 3.473 3.474c1e-3 1e-3 1e-3 2e-3 0 3e-3 0 0 0 1e-3 -1e-3 1e-3h-3.476v-3.476c0-1e-3 1e-3 -2e-3 2e-3 -2e-3h2e-3zm-7.327 14.759v-15.042h6.927v4.156h4.157v10.886z"/>
   </g>
  </g>
 </g>
 <path transform="translate(-127 -173.57)" d="m165.5 404.5v9.019h34.8236v9.019" clip-path="url(#clipPath1312)" fill="none" fill-rule="evenodd" stroke="#4472c4" stroke-miterlimit="8" stroke-width=".666667"/>
 <g transform="translate(-127 -173.57)" clip-path="url(#clipPath1306)">
  <g clip-path="url(#clip20)">
   <g clip-path="url(#clip21)" stroke="#000" stroke-width=".4">
    <path transform="matrix(1,0,0,1.05263,155,422)" d="m5.54167 8.3125h7.91663v0.39583h-7.91663z"/>
    <path transform="matrix(1,0,0,1.05263,155,422)" d="m5.54167 6.72917h3.76041v0.39583h-3.76041z"/>
    <path transform="matrix(1,0,0,1.05263,155,422)" d="m5.54167 9.89583h7.91663v0.39587h-7.91663z"/>
    <path transform="matrix(1,0,0,1.05263,155,422)" d="m5.54167 11.4792h7.91663v0.3958h-7.91663z"/>
    <path transform="matrix(1,0,0,1.05263,155,422)" d="m5.54167 13.0625h7.91663v0.3958h-7.91663z"/>
    <path transform="matrix(1,0,0,1.05263,155,422)" d="m5.54167 14.6458h7.91663v0.3959h-7.91663z"/>
    <path transform="matrix(1,0,0,1.05263,155,422)" d="m3.5625 1.58333v15.8334h11.875v-11.5611l-4.2722-4.27223zm7.7221 0.67906 3.4738 3.47383c8e-4 7.7e-4 8e-4 0.00204 0 0.00279-3e-4 3.6e-4 -8e-4 5.7e-4 -0.0013 5.7e-4h-3.4759v-3.47581c1e-4 -0.00109 1e-3 -0.00196 2e-3 -0.00196 6e-4 2e-5 0.0011 2.2e-4 0.0014 5.8e-4zm-7.32627 14.7584v-15.0416h6.92707v4.15625h4.1563v10.8854z"/>
   </g>
  </g>
 </g>
 <path transform="translate(-127 -173.57)" d="m165.5 404.5v9.12325h1e-3v9.12325" clip-path="url(#clipPath1300)" fill="none" fill-rule="evenodd" stroke="#4472c4" stroke-miterlimit="8" stroke-width=".666667"/>
 <path transform="translate(-127 -173.57)" d="m425.5 311c0-8.56 6.94-15.5 15.5-15.5s15.5 6.94 15.5 15.5-6.94 15.5-15.5 15.5-15.5-6.94-15.5-15.5z" clip-path="url(#clipPath1294)" fill="#fff" fill-rule="evenodd" stroke="#70ad47" stroke-miterlimit="8" stroke-width="1.33333"/>
 <g transform="translate(-127 -173.57)" clip-path="url(#clipPath1288)">
  <g clip-path="url(#clip23)">
   <g clip-path="url(#clip24)">
    <path d="m433.969 363.046h13.062c0.437-2e-3 0.791-0.355 0.792-0.792v-7.919c-1e-3 -0.437-0.355-0.79-0.792-0.792h-6.729l-2.177-1.444c-0.125-0.096-0.279-0.145-0.435-0.139h-3.721c-0.437 1e-3 -0.791 0.355-0.792 0.792v9.502c1e-3 0.437 0.355 0.791 0.792 0.792zm-0.396-10.295c0-0.218 0.177-0.395 0.396-0.395h3.721c0.064-5e-3 0.128 0.011 0.181 0.046l0.017 0.014 0.018 0.012 2.177 1.445 0.099 0.066h6.849c0.219 0 0.396 0.177 0.396 0.396v7.919c0 0.219-0.177 0.396-0.396 0.396h-13.062c-0.219 0-0.396-0.177-0.396-0.396z" stroke="#000" stroke-width=".4"/>
   </g>
  </g>
 </g>
 <g transform="translate(-127 -173.57)" clip-path="url(#clipPath1282)">
  <g clip-path="url(#clip26)">
   <g clip-path="url(#clip27)" stroke="#000" stroke-width=".4">
    <path transform="matrix(1,0,0,1.05263,466,386)" d="m5.54167 8.3125h7.91663v0.39583h-7.91663z"/>
    <path transform="matrix(1,0,0,1.05263,466,386)" d="m5.54167 6.72917h3.76041v0.39583h-3.76041z"/>
    <path transform="matrix(1,0,0,1.05263,466,386)" d="m5.54167 9.89583h7.91663v0.39587h-7.91663z"/>
    <path transform="matrix(1,0,0,1.05263,466,386)" d="m5.54167 11.4792h7.91663v0.3958h-7.91663z"/>
    <path transform="matrix(1,0,0,1.05263,466,386)" d="m5.54167 13.0625h7.91663v0.3958h-7.91663z"/>
    <path transform="matrix(1,0,0,1.05263,466,386)" d="m5.54167 14.6458h7.91663v0.3959h-7.91663z"/>
    <path transform="matrix(1,0,0,1.05263,466,386)" d="m3.5625 1.58333v15.8334h11.875v-11.5611l-4.2722-4.27223zm7.7221 0.67906 3.4738 3.47383c8e-4 7.7e-4 8e-4 0.00204 0 0.00279-3e-4 3.6e-4 -8e-4 5.7e-4 -0.0013 5.7e-4h-3.4759v-3.47581c1e-4 -0.00109 1e-3 -0.00196 2e-3 -0.00196 6e-4 2e-5 0.0011 2.2e-4 0.0014 5.8e-4zm-7.32627 14.7584v-15.0416h6.92707v4.15625h4.1563v10.8854z"/>
   </g>
  </g>
 </g>
 <g transform="translate(-127 -173.57)" clip-path="url(#clipPath1276)">
  <g clip-path="url(#clip29)">
   <g clip-path="url(#clip30)">
    <path transform="matrix(1.05263,0,0,1,396,385)" d="m2.96875 15.0458h13.0624c0.4367-0.0014 0.7903-0.355 0.7917-0.7916v-7.91909c-0.0014-0.43664-0.355-0.79026-0.7917-0.79166h-6.72912l-2.17708-1.44479c-0.12461-0.09544-0.27859-0.14442-0.43542-0.13855h-3.72083c-0.43668 0.00131-0.79036 0.35499-0.79167 0.79167v9.50222c0.00119 0.4367 0.35491 0.7905 0.79167 0.7918zm-0.39583-10.2944c0-0.21862 0.17721-0.39584 0.39583-0.39584h3.72083c0.06409-0.00451 0.12792 0.01188 0.18189 0.04671l0.01662 0.01385 0.01801 0.01188 2.17709 1.44479 0.09896 0.06611h6.84905c0.2187 0 0.3959 0.17721 0.3959 0.39583v7.91928c0 0.2186-0.1772 0.3958-0.3959 0.3958h-13.0624c-0.21862 0-0.39583-0.1772-0.39583-0.3958z" stroke="#000" stroke-width=".4"/>
   </g>
  </g>
 </g>
 <path transform="translate(-127 -173.57)" d="m441.5 367.5v9.519h34.8236v9.519" clip-path="url(#clipPath1270)" fill="none" fill-rule="evenodd" stroke="#4472c4" stroke-miterlimit="8" stroke-width=".666667"/>
 <path transform="translate(-127 -173.57)" d="m441.321 368.5v8.769h-34.821v8.768" clip-path="url(#clipPath1264)" fill="none" fill-rule="evenodd" stroke="#4472c4" stroke-miterlimit="8" stroke-width=".666667"/>
 <g transform="translate(-127 -173.57)" clip-path="url(#clipPath1258)">
  <g clip-path="url(#clip32)">
   <g clip-path="url(#clip33)" stroke="#000" stroke-width=".4">
    <path transform="matrix(1,0,0,1.05263,431,386)" d="m5.54167 8.3125h7.91663v0.39583h-7.91663z"/>
    <path transform="matrix(1,0,0,1.05263,431,386)" d="m5.54167 6.72917h3.76041v0.39583h-3.76041z"/>
    <path transform="matrix(1,0,0,1.05263,431,386)" d="m5.54167 9.89583h7.91663v0.39587h-7.91663z"/>
    <path transform="matrix(1,0,0,1.05263,431,386)" d="m5.54167 11.4792h7.91663v0.3958h-7.91663z"/>
    <path transform="matrix(1,0,0,1.05263,431,386)" d="m5.54167 13.0625h7.91663v0.3958h-7.91663z"/>
    <path transform="matrix(1,0,0,1.05263,431,386)" d="m5.54167 14.6458h7.91663v0.3959h-7.91663z"/>
    <path transform="matrix(1,0,0,1.05263,431,386)" d="m3.5625 1.58333v15.8334h11.875v-11.5611l-4.2722-4.27223zm7.7221 0.67906 3.4738 3.47383c8e-4 7.7e-4 8e-4 0.00204 0 0.00279-3e-4 3.6e-4 -8e-4 5.7e-4 -0.0013 5.7e-4h-3.4759v-3.47581c1e-4 -0.00109 1e-3 -0.00196 2e-3 -0.00196 6e-4 2e-5 0.0011 2.2e-4 0.0014 5.8e-4zm-7.32627 14.7584v-15.0416h6.92707v4.15625h4.1563v10.8854z"/>
   </g>
  </g>
 </g>
 <path transform="translate(-127 -173.57)" d="m441.5 367.5v9.12325h1e-3v9.12325" clip-path="url(#clipPath1252)" fill="none" fill-rule="evenodd" stroke="#4472c4" stroke-miterlimit="8" stroke-width=".666667"/>
 <g transform="translate(-127 -173.57)" clip-path="url(#clipPath1246)">
  <g clip-path="url(#clip35)">
   <g clip-path="url(#clip36)">
    <path transform="matrix(1.05263,0,0,1,396,385)" d="m2.96875 15.0458h13.0624c0.4367-0.0014 0.7903-0.355 0.7917-0.7916v-7.91909c-0.0014-0.43664-0.355-0.79026-0.7917-0.79166h-6.72912l-2.17708-1.44479c-0.12461-0.09544-0.27859-0.14442-0.43542-0.13855h-3.72083c-0.43668 0.00131-0.79036 0.35499-0.79167 0.79167v9.50222c0.00119 0.4367 0.35491 0.7905 0.79167 0.7918zm-0.39583-10.2944c0-0.21862 0.17721-0.39584 0.39583-0.39584h3.72083c0.06409-0.00451 0.12792 0.01188 0.18189 0.04671l0.01662 0.01385 0.01801 0.01188 2.17709 1.44479 0.09896 0.06611h6.84905c0.2187 0 0.3959 0.17721 0.3959 0.39583v7.91928c0 0.2186-0.1772 0.3958-0.3959 0.3958h-13.0624c-0.21862 0-0.39583-0.1772-0.39583-0.3958z" stroke="#000" stroke-width=".4"/>
   </g>
  </g>
 </g>
 <g transform="translate(-127 -173.57)" clip-path="url(#clipPath1240)">
  <g clip-path="url(#clip38)">
   <g clip-path="url(#clip39)" stroke="#000" stroke-width=".4">
    <path d="m436.542 430.312h7.916v0.396h-7.916z"/>
    <path d="m436.542 428.729h3.76v0.396h-3.76z"/>
    <path d="m436.542 431.896h7.916v0.396h-7.916z"/>
    <path d="m436.542 433.479h7.916v0.396h-7.916z"/>
    <path d="m436.542 435.062h7.916v0.396h-7.916z"/>
    <path d="m436.542 436.646h7.916v0.396h-7.916z"/>
    <path d="m434.562 423.583v15.834h11.876v-11.561l-4.273-4.273zm7.723 0.679 3.473 3.474c1e-3 1e-3 1e-3 2e-3 0 3e-3 0 0 0 1e-3 -1e-3 1e-3h-3.476v-3.476c0-1e-3 1e-3 -2e-3 2e-3 -2e-3h2e-3zm-7.327 14.759v-15.042h6.927v4.156h4.157v10.886z"/>
   </g>
  </g>
 </g>
 <g transform="translate(-127 -173.57)" clip-path="url(#clipPath1234)">
  <g clip-path="url(#clip41)">
   <g clip-path="url(#clip42)" stroke="#c00000" stroke-width=".4">
    <path transform="matrix(1.05263,0,0,1,361,422)" d="m5.54167 8.3125h7.91663v0.39583h-7.91663z"/>
    <path transform="matrix(1.05263,0,0,1,361,422)" d="m5.54167 6.72917h3.76041v0.39583h-3.76041z"/>
    <path transform="matrix(1.05263,0,0,1,361,422)" d="m5.54167 9.89583h7.91663v0.39587h-7.91663z"/>
    <path transform="matrix(1.05263,0,0,1,361,422)" d="m5.54167 11.4792h7.91663v0.3958h-7.91663z"/>
    <path transform="matrix(1.05263,0,0,1,361,422)" d="m5.54167 13.0625h7.91663v0.3958h-7.91663z"/>
    <path transform="matrix(1.05263,0,0,1,361,422)" d="m5.54167 14.6458h7.91663v0.3959h-7.91663z"/>
    <path transform="matrix(1.05263,0,0,1,361,422)" d="m3.5625 1.58333v15.8334h11.875v-11.5611l-4.2722-4.27223zm7.7221 0.67906 3.4738 3.47383c8e-4 7.7e-4 8e-4 0.00204 0 0.00279-3e-4 3.6e-4 -8e-4 5.7e-4 -0.0013 5.7e-4h-3.4759v-3.47581c1e-4 -0.00109 1e-3 -0.00196 2e-3 -0.00196 6e-4 2e-5 0.0011 2.2e-4 0.0014 5.8e-4zm-7.32627 14.7584v-15.0416h6.92707v4.15625h4.1563v10.8854z"/>
   </g>
  </g>
 </g>
 <path transform="translate(-127 -173.57)" d="m406.5 404.5v9.019h34.8236v9.019" clip-path="url(#clipPath1228)" fill="none" fill-rule="evenodd" stroke="#4472c4" stroke-miterlimit="8" stroke-width=".666667"/>
 <path transform="translate(-127 -173.57)" d="m406.321 404.5v9.019h-34.821v9.018" clip-path="url(#clipPath1222)" fill="none" fill-rule="evenodd" stroke="#4472c4" stroke-miterlimit="8" stroke-width=".666667"/>
 <g transform="translate(-127 -173.57)" clip-path="url(#clipPath1216)">
  <g clip-path="url(#clip44)">
   <g clip-path="url(#clip45)" stroke="#000" stroke-width=".421053">
    <path d="m401.833 430.75h8.334v0.417h-8.334z"/>
    <path d="m401.833 429.083h3.959v0.417h-3.959z"/>
    <path d="m401.833 432.417h8.334v0.416h-8.334z"/>
    <path d="m401.833 434.083h8.334v0.417h-8.334z"/>
    <path d="m401.833 435.75h8.334v0.417h-8.334z"/>
    <path d="m401.833 437.417h8.334v0.416h-8.334z"/>
    <path d="m399.75 423.667v16.666h12.5v-12.169l-4.497-4.497zm8.129 0.714 3.656 3.657c1e-3 1e-3 1e-3 2e-3 0 3e-3l-1e-3 1e-3h-3.659v-3.659c0-1e-3 1e-3 -2e-3 2e-3 -2e-3h2e-3zm-7.712 15.536v-15.834h7.291v4.375h4.375v11.459z"/>
   </g>
  </g>
 </g>
 <path transform="translate(-127 -173.57)" d="m406.5 404.5v9.12325h1e-3v9.12325" clip-path="url(#clipPath1210)" fill="none" fill-rule="evenodd" stroke="#4472c4" stroke-miterlimit="8" stroke-width=".666667"/>
 <g transform="translate(-127 -173.57)" clip-path="url(#clipPath1204)">
  <g clip-path="url(#clip47)">
   <g clip-path="url(#clip48)">
    <path d="m905.969 363.046h13.062c0.437-2e-3 0.791-0.355 0.792-0.792v-7.919c-1e-3 -0.437-0.355-0.79-0.792-0.792h-6.729l-2.177-1.444c-0.125-0.096-0.279-0.145-0.435-0.139h-3.721c-0.437 1e-3 -0.791 0.355-0.792 0.792v9.502c1e-3 0.437 0.355 0.791 0.792 0.792zm-0.396-10.295c0-0.218 0.177-0.395 0.396-0.395h3.721c0.064-5e-3 0.128 0.011 0.181 0.046l0.017 0.014 0.018 0.012 2.177 1.445 0.099 0.066h6.849c0.219 0 0.396 0.177 0.396 0.396v7.919c0 0.219-0.177 0.396-0.396 0.396h-13.062c-0.219 0-0.396-0.177-0.396-0.396z" stroke="#000" stroke-width=".4"/>
   </g>
  </g>
 </g>
 <g transform="translate(-127 -173.57)" clip-path="url(#clipPath1198)">
  <g clip-path="url(#clip50)">
   <g clip-path="url(#clip51)" stroke="#c00000" stroke-width=".421053">
    <path d="m942.833 394.75h8.334v0.417h-8.334z"/>
    <path d="m942.833 393.083h3.959v0.417h-3.959z"/>
    <path d="m942.833 396.417h8.334v0.416h-8.334z"/>
    <path d="m942.833 398.083h8.334v0.417h-8.334z"/>
    <path d="m942.833 399.75h8.334v0.417h-8.334z"/>
    <path d="m942.833 401.417h8.334v0.416h-8.334z"/>
    <path d="m940.75 387.667v16.666h12.5v-12.169l-4.497-4.497zm8.129 0.714 3.656 3.657c1e-3 1e-3 1e-3 2e-3 0 3e-3l-1e-3 1e-3h-3.659v-3.659c0-1e-3 1e-3 -2e-3 2e-3 -2e-3h2e-3zm-7.712 15.536v-15.834h7.291v4.375h4.375v11.459z"/>
   </g>
  </g>
 </g>
 <g transform="translate(-127 -173.57)" clip-path="url(#clipPath1192)">
  <g clip-path="url(#clip53)">
   <g clip-path="url(#clip54)">
    <path d="m870.969 400.046h13.062c0.437-2e-3 0.791-0.355 0.792-0.792v-7.919c-1e-3 -0.437-0.355-0.79-0.792-0.792h-6.729l-2.177-1.444c-0.125-0.096-0.279-0.145-0.435-0.139h-3.721c-0.437 1e-3 -0.791 0.355-0.792 0.792v9.502c1e-3 0.437 0.355 0.791 0.792 0.792zm-0.396-10.295c0-0.218 0.177-0.395 0.396-0.395h3.721c0.064-5e-3 0.128 0.011 0.181 0.046l0.017 0.014 0.018 0.012 2.177 1.445 0.099 0.066h6.849c0.219 0 0.396 0.177 0.396 0.396v7.919c0 0.219-0.177 0.396-0.396 0.396h-13.062c-0.219 0-0.396-0.177-0.396-0.396z" stroke="#000" stroke-width=".4"/>
   </g>
  </g>
 </g>
 <path transform="translate(-127 -173.57)" d="m912.5 367.5v9.519h34.8236v9.519" clip-path="url(#clipPath1186)" fill="none" fill-rule="evenodd" stroke="#4472c4" stroke-miterlimit="8" stroke-width=".666667"/>
 <path transform="translate(-127 -173.57)" d="m912.321 368.5v8.769h-34.821v8.768" clip-path="url(#clipPath1180)" fill="none" fill-rule="evenodd" stroke="#4472c4" stroke-miterlimit="8" stroke-width=".666667"/>
 <g transform="translate(-127 -173.57)" clip-path="url(#clipPath1174)">
  <g clip-path="url(#clip56)">
   <g clip-path="url(#clip57)" stroke="#000" stroke-width=".4">
    <path transform="matrix(1,0,0,1.05263,903,386)" d="m5.54167 8.3125h7.91663v0.39583h-7.91663z"/>
    <path transform="matrix(1,0,0,1.05263,903,386)" d="m5.54167 6.72917h3.76041v0.39583h-3.76041z"/>
    <path transform="matrix(1,0,0,1.05263,903,386)" d="m5.54167 9.89583h7.91663v0.39587h-7.91663z"/>
    <path transform="matrix(1,0,0,1.05263,903,386)" d="m5.54167 11.4792h7.91663v0.3958h-7.91663z"/>
    <path transform="matrix(1,0,0,1.05263,903,386)" d="m5.54167 13.0625h7.91663v0.3958h-7.91663z"/>
    <path transform="matrix(1,0,0,1.05263,903,386)" d="m5.54167 14.6458h7.91663v0.3959h-7.91663z"/>
    <path transform="matrix(1,0,0,1.05263,903,386)" d="m3.5625 1.58333v15.8334h11.875v-11.5611l-4.2722-4.27223zm7.7221 0.67906 3.4738 3.47383c8e-4 7.7e-4 8e-4 0.00204 0 0.00279-3e-4 3.6e-4 -8e-4 5.7e-4 -0.0013 5.7e-4h-3.4759v-3.47581c1e-4 -0.00109 1e-3 -0.00196 2e-3 -0.00196 6e-4 2e-5 0.0011 2.2e-4 0.0014 5.8e-4zm-7.32627 14.7584v-15.0416h6.92707v4.15625h4.1563v10.8854z"/>
   </g>
  </g>
 </g>
 <path transform="translate(-127 -173.57)" d="m912.5 367.5v9.12325h1e-3v9.12325" clip-path="url(#clipPath1168)" fill="none" fill-rule="evenodd" stroke="#4472c4" stroke-miterlimit="8" stroke-width=".666667"/>
 <g transform="translate(-127 -173.57)" clip-path="url(#clipPath1162)">
  <g clip-path="url(#clip59)">
   <g clip-path="url(#clip60)">
    <path d="m870.969 400.046h13.062c0.437-2e-3 0.791-0.355 0.792-0.792v-7.919c-1e-3 -0.437-0.355-0.79-0.792-0.792h-6.729l-2.177-1.444c-0.125-0.096-0.279-0.145-0.435-0.139h-3.721c-0.437 1e-3 -0.791 0.355-0.792 0.792v9.502c1e-3 0.437 0.355 0.791 0.792 0.792zm-0.396-10.295c0-0.218 0.177-0.395 0.396-0.395h3.721c0.064-5e-3 0.128 0.011 0.181 0.046l0.017 0.014 0.018 0.012 2.177 1.445 0.099 0.066h6.849c0.219 0 0.396 0.177 0.396 0.396v7.919c0 0.219-0.177 0.396-0.396 0.396h-13.062c-0.219 0-0.396-0.177-0.396-0.396z" stroke="#000" stroke-width=".4"/>
   </g>
  </g>
 </g>
 <g transform="translate(-127 -173.57)" clip-path="url(#clipPath1156)">
  <g clip-path="url(#clip62)">
   <g clip-path="url(#clip63)" stroke="#000" stroke-width=".4">
    <path d="m908.542 430.312h7.916v0.396h-7.916z"/>
    <path d="m908.542 428.729h3.76v0.396h-3.76z"/>
    <path d="m908.542 431.896h7.916v0.396h-7.916z"/>
    <path d="m908.542 433.479h7.916v0.396h-7.916z"/>
    <path d="m908.542 435.062h7.916v0.396h-7.916z"/>
    <path d="m908.542 436.646h7.916v0.396h-7.916z"/>
    <path d="m906.562 423.583v15.834h11.876v-11.561l-4.273-4.273zm7.723 0.679 3.473 3.474c1e-3 1e-3 1e-3 2e-3 0 3e-3 0 0 0 1e-3 -1e-3 1e-3h-3.476v-3.476c0-1e-3 1e-3 -2e-3 2e-3 -2e-3h2e-3zm-7.327 14.759v-15.042h6.927v4.156h4.157v10.886z"/>
   </g>
  </g>
 </g>
 <g transform="translate(-127 -173.57)" clip-path="url(#clipPath1150)">
  <g clip-path="url(#clip65)">
   <g clip-path="url(#clip66)" stroke="#000" stroke-width=".40001">
    <path d="m838.542 430.312h7.916v0.396h-7.916z"/>
    <path d="m838.542 428.729h3.76v0.396h-3.76z"/>
    <path d="m838.542 431.896h7.916v0.396h-7.916z"/>
    <path d="m838.542 433.479h7.916v0.396h-7.916z"/>
    <path d="m838.542 435.062h7.916v0.396h-7.916z"/>
    <path d="m838.542 436.646h7.916v0.396h-7.916z"/>
    <path d="m836.562 423.583v15.834h11.876v-11.561l-4.273-4.273zm7.723 0.679 3.473 3.474c1e-3 1e-3 1e-3 2e-3 0 3e-3 0 0 0 1e-3 -1e-3 1e-3h-3.476v-3.476c0-1e-3 1e-3 -2e-3 2e-3 -2e-3h2e-3zm-7.327 14.759v-15.042h6.927v4.156h4.157v10.886z"/>
   </g>
  </g>
 </g>
 <path transform="translate(-127 -173.57)" d="m877.5 404.5v9.019h34.8236v9.019" clip-path="url(#clipPath1144)" fill="none" fill-rule="evenodd" stroke="#4472c4" stroke-miterlimit="8" stroke-width=".666667"/>
 <path transform="translate(-127 -173.57)" d="m878.321 404.5v9.019h-34.821v9.018" clip-path="url(#clipPath1138)" fill="none" fill-rule="evenodd" stroke="#4472c4" stroke-miterlimit="8" stroke-width=".666667"/>
 <g transform="translate(-127 -173.57)" clip-path="url(#clipPath1132)">
  <g clip-path="url(#clip68)">
   <g clip-path="url(#clip69)" stroke="#c00000" stroke-width=".4">
    <path transform="matrix(1,0,0,1.05263,868,422)" d="m5.54167 8.3125h7.91663v0.39583h-7.91663z"/>
    <path transform="matrix(1,0,0,1.05263,868,422)" d="m5.54167 6.72917h3.76041v0.39583h-3.76041z"/>
    <path transform="matrix(1,0,0,1.05263,868,422)" d="m5.54167 9.89583h7.91663v0.39587h-7.91663z"/>
    <path transform="matrix(1,0,0,1.05263,868,422)" d="m5.54167 11.4792h7.91663v0.3958h-7.91663z"/>
    <path transform="matrix(1,0,0,1.05263,868,422)" d="m5.54167 13.0625h7.91663v0.3958h-7.91663z"/>
    <path transform="matrix(1,0,0,1.05263,868,422)" d="m5.54167 14.6458h7.91663v0.3959h-7.91663z"/>
    <path transform="matrix(1,0,0,1.05263,868,422)" d="m3.5625 1.58333v15.8334h11.875v-11.5611l-4.2722-4.27223zm7.7221 0.67906 3.4738 3.47383c8e-4 7.7e-4 8e-4 0.00204 0 0.00279-3e-4 3.6e-4 -8e-4 5.7e-4 -0.0013 5.7e-4h-3.4759v-3.47581c1e-4 -0.00109 1e-3 -0.00196 2e-3 -0.00196 6e-4 2e-5 0.0011 2.2e-4 0.0014 5.8e-4zm-7.32627 14.7584v-15.0416h6.92707v4.15625h4.1563v10.8854z"/>
   </g>
  </g>
 </g>
 <path transform="translate(-127 -173.57)" d="m877.5 404.5v9.12325h1e-3v9.12325" clip-path="url(#clipPath1126)" fill="none" fill-rule="evenodd" stroke="#4472c4" stroke-miterlimit="8" stroke-width=".666667"/>
 <text x="598.97198" y="16.429688" fill="#00b050" font-family="Calibri, Calibri_MSFontService, sans-serif" font-size="24px" font-style="italic" font-weight="700">a commit that modifies two files</text>
 <path transform="translate(-127 -173.57)" d="m881.957 201.709 23.282 76.524-1.914 0.582-23.282-76.524zm25.764 74.375-1.498 8.818-6.156-6.489z" clip-path="url(#clipPath1120)" fill="#4472c4"/>
</svg>
