<?xml version="1.0" encoding="UTF-8" standalone="no"?>
<!-- Created with Inkscape (http://www.inkscape.org/) -->

<svg
   version="1.1"
   id="svg1829"
   width="161.03467"
   height="157.05798"
   viewBox="0 0 161.03467 157.05798"
   sodipodi:docname="github_logo.svg"
   inkscape:version="1.2 (dc2aedaf03, 2022-05-15)"
   xmlns:inkscape="http://www.inkscape.org/namespaces/inkscape"
   xmlns:sodipodi="http://sodipodi.sourceforge.net/DTD/sodipodi-0.dtd"
   xmlns="http://www.w3.org/2000/svg"
   xmlns:svg="http://www.w3.org/2000/svg">
  <defs
     id="defs1833">
    <clipPath
       clipPathUnits="userSpaceOnUse"
       id="clipPath2547">
      <path
         d="m -379.1928,498.8591 h 530.973 v -551.986 h -530.973 z"
         id="path2549"
         style="stroke-width:0.999998" />
    </clipPath>
    <clipPath
       clipPathUnits="userSpaceOnUse"
       id="clipPath2551">
      <path
         d="m -363.2924,496.0993 h 530.973 v -551.986 h -530.973 z"
         id="path2553"
         style="stroke-width:0.999998" />
    </clipPath>
    <clipPath
       clipPathUnits="userSpaceOnUse"
       id="clipPath2555">
      <path
         d="m -361.3911,498.3015 h 530.973 v -551.986 h -530.973 z"
         id="path2557"
         style="stroke-width:0.999998" />
    </clipPath>
    <clipPath
       clipPathUnits="userSpaceOnUse"
       id="clipPath2559">
      <path
         d="m -350.8432,499.1892 h 530.973 v -551.986 h -530.973 z"
         id="path2561"
         style="stroke-width:0.999998" />
    </clipPath>
    <clipPath
       clipPathUnits="userSpaceOnUse"
       id="clipPath2563">
      <path
         d="m -343.2172,495.6071 h 530.973 v -551.986 h -530.973 z"
         id="path2565"
         style="stroke-width:0.999998" />
    </clipPath>
    <clipPath
       clipPathUnits="userSpaceOnUse"
       id="clipPath2567">
      <path
         d="m -339.1362,502.3034 h 530.973 v -551.986 h -530.973 z"
         id="path2569"
         style="stroke-width:0.999998" />
    </clipPath>
    <clipPath
       clipPathUnits="userSpaceOnUse"
       id="clipPath2571">
      <path
         d="m -330.2456,496.0993 h 530.973 v -551.986 h -530.973 z"
         id="path2573"
         style="stroke-width:0.999998" />
    </clipPath>
    <clipPath
       clipPathUnits="userSpaceOnUse"
       id="clipPath2575">
      <path
         d="m -323.3276,500.2087 h 530.973 v -551.986 h -530.973 z"
         id="path2577"
         style="stroke-width:0.999998" />
    </clipPath>
    <clipPath
       clipPathUnits="userSpaceOnUse"
       id="clipPath2579">
      <path
         d="m -318.2573,496.9997 h 530.973 v -551.986 h -530.973 z"
         id="path2581"
         style="stroke-width:0.999998" />
    </clipPath>
    <clipPath
       clipPathUnits="userSpaceOnUse"
       id="clipPath2583">
      <path
         d="m -365.3569,481.6989 h 530.973 v -551.986 h -530.973 z"
         id="path2585"
         style="stroke-width:0.999998" />
    </clipPath>
    <clipPath
       clipPathUnits="userSpaceOnUse"
       id="clipPath2587">
      <path
         d="m -362.1342,483.5231 h 530.973 v -551.986 h -530.973 z"
         id="path2589"
         style="stroke-width:0.999998" />
    </clipPath>
    <clipPath
       clipPathUnits="userSpaceOnUse"
       id="clipPath2591">
      <path
         d="m -354.4545,486.8649 h 530.973 v -551.986 h -530.973 z"
         id="path2593"
         style="stroke-width:0.999998" />
    </clipPath>
    <clipPath
       clipPathUnits="userSpaceOnUse"
       id="clipPath2595">
      <path
         d="m -348.3647,481.6989 h 530.973 v -551.986 h -530.973 z"
         id="path2597"
         style="stroke-width:0.999998" />
    </clipPath>
    <clipPath
       clipPathUnits="userSpaceOnUse"
       id="clipPath2599">
      <path
         d="m -344.3334,484.9099 h 530.973 v -551.986 h -530.973 z"
         id="path2601"
         style="stroke-width:0.999998" />
    </clipPath>
    <clipPath
       clipPathUnits="userSpaceOnUse"
       id="clipPath2603">
      <path
         d="m -335.6333,479.3356 h 530.973 v -551.986 h -530.973 z"
         id="path2605"
         style="stroke-width:0.999998" />
    </clipPath>
    <clipPath
       clipPathUnits="userSpaceOnUse"
       id="clipPath2607">
      <path
         d="m -178.2329,496.1003 h 530.973 v -551.986 h -530.973 z"
         id="path2609"
         style="stroke-width:0.999998" />
    </clipPath>
    <clipPath
       clipPathUnits="userSpaceOnUse"
       id="clipPath2611">
      <path
         d="m -176.3315,498.3024 h 530.973 v -551.986 h -530.973 z"
         id="path2613"
         style="stroke-width:0.999998" />
    </clipPath>
    <clipPath
       clipPathUnits="userSpaceOnUse"
       id="clipPath2615">
      <path
         d="m -165.7832,499.1911 h 530.973 v -551.986 h -530.973 z"
         id="path2617"
         style="stroke-width:0.999998" />
    </clipPath>
    <clipPath
       clipPathUnits="userSpaceOnUse"
       id="clipPath2619">
      <path
         d="m -158.1572,495.6091 h 530.973 v -551.986 h -530.973 z"
         id="path2621"
         style="stroke-width:0.999998" />
    </clipPath>
    <clipPath
       clipPathUnits="userSpaceOnUse"
       id="clipPath2623">
      <path
         d="m -154.0771,502.3044 h 530.973 v -551.986 h -530.973 z"
         id="path2625"
         style="stroke-width:0.999998" />
    </clipPath>
    <clipPath
       clipPathUnits="userSpaceOnUse"
       id="clipPath2627">
      <path
         d="m -140.2172,496.1003 h 530.973 v -551.986 h -530.973 z"
         id="path2629"
         style="stroke-width:0.999998" />
    </clipPath>
    <clipPath
       clipPathUnits="userSpaceOnUse"
       id="clipPath2631">
      <path
         d="m -138.3159,498.3024 h 530.973 v -551.986 h -530.973 z"
         id="path2633"
         style="stroke-width:0.999998" />
    </clipPath>
    <clipPath
       clipPathUnits="userSpaceOnUse"
       id="clipPath2635">
      <path
         d="m -128.8295,497.8825 h 530.973 v -551.986 h -530.973 z"
         id="path2637"
         style="stroke-width:0.999998" />
    </clipPath>
    <clipPath
       clipPathUnits="userSpaceOnUse"
       id="clipPath2639">
      <path
         d="m -122.7333,502.3044 h 530.973 v -551.986 h -530.973 z"
         id="path2641"
         style="stroke-width:0.999998" />
    </clipPath>
    <clipPath
       clipPathUnits="userSpaceOnUse"
       id="clipPath2643">
      <path
         d="m -113.8417,496.1003 h 530.973 v -551.986 h -530.973 z"
         id="path2645"
         style="stroke-width:0.999998" />
    </clipPath>
    <clipPath
       clipPathUnits="userSpaceOnUse"
       id="clipPath2647">
      <path
         d="m -106.9238,500.2106 h 530.973 v -551.986 h -530.973 z"
         id="path2649"
         style="stroke-width:0.999998" />
    </clipPath>
    <clipPath
       clipPathUnits="userSpaceOnUse"
       id="clipPath2651">
      <path
         d="M -101.854,496.9997 H 429.119 V -54.9863 H -101.854 Z"
         id="path2653"
         style="stroke-width:0.999998" />
    </clipPath>
    <clipPath
       clipPathUnits="userSpaceOnUse"
       id="clipPath2655">
      <path
         d="m -150.1655,484.9099 h 530.973 v -551.986 h -530.973 z"
         id="path2657"
         style="stroke-width:0.999998" />
    </clipPath>
    <clipPath
       clipPathUnits="userSpaceOnUse"
       id="clipPath2659">
      <path
         d="m -137.5537,481.7009 h 530.973 v -551.986 h -530.973 z"
         id="path2661"
         style="stroke-width:0.999998" />
    </clipPath>
    <clipPath
       clipPathUnits="userSpaceOnUse"
       id="clipPath2663">
      <path
         d="m -133.2758,480.5065 h 530.973 v -551.986 h -530.973 z"
         id="path2665"
         style="stroke-width:0.999998" />
    </clipPath>
    <clipPath
       clipPathUnits="userSpaceOnUse"
       id="clipPath2667">
      <path
         d="m -224.8979,330.9978 h 530.973 v -551.986 h -530.973 z"
         id="path2669"
         style="stroke-width:0.999998" />
    </clipPath>
    <clipPath
       clipPathUnits="userSpaceOnUse"
       id="clipPath2671">
      <path
         d="m -335.2231,432.2311 h 530.973 v -551.986 h -530.973 z"
         id="path2673"
         style="stroke-width:0.999998" />
    </clipPath>
    <clipPath
       clipPathUnits="userSpaceOnUse"
       id="clipPath2675">
      <path
         d="m -330.6245,433.0134 h 530.973 v -551.986 h -530.973 z"
         id="path2677"
         style="stroke-width:0.999998" />
    </clipPath>
    <clipPath
       clipPathUnits="userSpaceOnUse"
       id="clipPath2679">
      <path
         d="m -325.6821,432.652 h 530.973 v -551.986 h -530.973 z"
         id="path2681"
         style="stroke-width:0.999998" />
    </clipPath>
    <clipPath
       clipPathUnits="userSpaceOnUse"
       id="clipPath2683">
      <path
         d="m -321.1821,430.7009 h 530.973 v -551.986 h -530.973 z"
         id="path2685"
         style="stroke-width:0.999998" />
    </clipPath>
    <clipPath
       clipPathUnits="userSpaceOnUse"
       id="clipPath2687">
      <path
         d="m -317.9204,427.3405 h 530.973 v -551.986 h -530.973 z"
         id="path2689"
         style="stroke-width:0.999998" />
    </clipPath>
    <clipPath
       clipPathUnits="userSpaceOnUse"
       id="clipPath2691">
      <path
         d="m -315.5395,423.863 h 530.973 v -551.986 h -530.973 z"
         id="path2693"
         style="stroke-width:0.999998" />
    </clipPath>
    <clipPath
       clipPathUnits="userSpaceOnUse"
       id="clipPath2695">
      <path
         d="m -313.0932,421.1345 h 530.973 v -551.986 h -530.973 z"
         id="path2697"
         style="stroke-width:0.999998" />
    </clipPath>
    <clipPath
       clipPathUnits="userSpaceOnUse"
       id="clipPath2699">
      <path
         d="m -350.6088,334.4313 h 530.973 v -551.986 h -530.973 z"
         id="path2701"
         style="stroke-width:0.999998" />
    </clipPath>
    <clipPath
       clipPathUnits="userSpaceOnUse"
       id="clipPath2703">
      <path
         d="m -152.6083,383.4406 h 530.973 v -551.986 h -530.973 z"
         id="path2705"
         style="stroke-width:0.999998" />
    </clipPath>
    <clipPath
       clipPathUnits="userSpaceOnUse"
       id="clipPath2707">
      <path
         d="m -379.1928,222.8591 h 530.973 v -551.986 h -530.973 z"
         id="path2709"
         style="stroke-width:0.999998" />
    </clipPath>
    <clipPath
       clipPathUnits="userSpaceOnUse"
       id="clipPath2711">
      <path
         d="m -363.2924,220.0993 h 530.973 v -551.986 h -530.973 z"
         id="path2713"
         style="stroke-width:0.999998" />
    </clipPath>
    <clipPath
       clipPathUnits="userSpaceOnUse"
       id="clipPath2715">
      <path
         d="m -361.3911,222.3015 h 530.973 v -551.986 h -530.973 z"
         id="path2717"
         style="stroke-width:0.999998" />
    </clipPath>
    <clipPath
       clipPathUnits="userSpaceOnUse"
       id="clipPath2719">
      <path
         d="m -350.8432,223.1892 h 530.973 v -551.986 h -530.973 z"
         id="path2721"
         style="stroke-width:0.999998" />
    </clipPath>
    <clipPath
       clipPathUnits="userSpaceOnUse"
       id="clipPath2723">
      <path
         d="m -343.2172,219.6071 h 530.973 v -551.986 h -530.973 z"
         id="path2725"
         style="stroke-width:0.999998" />
    </clipPath>
    <clipPath
       clipPathUnits="userSpaceOnUse"
       id="clipPath2727">
      <path
         d="m -339.1362,226.3034 h 530.973 v -551.986 h -530.973 z"
         id="path2729"
         style="stroke-width:0.999998" />
    </clipPath>
    <clipPath
       clipPathUnits="userSpaceOnUse"
       id="clipPath2731">
      <path
         d="m -330.2456,220.0993 h 530.973 v -551.986 h -530.973 z"
         id="path2733"
         style="stroke-width:0.999998" />
    </clipPath>
    <clipPath
       clipPathUnits="userSpaceOnUse"
       id="clipPath2735">
      <path
         d="m -323.3276,224.2087 h 530.973 v -551.986 h -530.973 z"
         id="path2737"
         style="stroke-width:0.999998" />
    </clipPath>
    <clipPath
       clipPathUnits="userSpaceOnUse"
       id="clipPath2739">
      <path
         d="m -318.2573,220.9997 h 530.973 v -551.986 h -530.973 z"
         id="path2741"
         style="stroke-width:0.999998" />
    </clipPath>
    <clipPath
       clipPathUnits="userSpaceOnUse"
       id="clipPath2743">
      <path
         d="m -365.3569,205.6989 h 530.973 v -551.986 h -530.973 z"
         id="path2745"
         style="stroke-width:0.999998" />
    </clipPath>
    <clipPath
       clipPathUnits="userSpaceOnUse"
       id="clipPath2747">
      <path
         d="m -362.1342,207.5231 h 530.973 v -551.986 h -530.973 z"
         id="path2749"
         style="stroke-width:0.999998" />
    </clipPath>
    <clipPath
       clipPathUnits="userSpaceOnUse"
       id="clipPath2751">
      <path
         d="m -354.4545,210.8649 h 530.973 v -551.986 h -530.973 z"
         id="path2753"
         style="stroke-width:0.999998" />
    </clipPath>
    <clipPath
       clipPathUnits="userSpaceOnUse"
       id="clipPath2755">
      <path
         d="m -348.3647,205.6989 h 530.973 v -551.986 h -530.973 z"
         id="path2757"
         style="stroke-width:0.999998" />
    </clipPath>
    <clipPath
       clipPathUnits="userSpaceOnUse"
       id="clipPath2759">
      <path
         d="m -344.3334,208.9099 h 530.973 v -551.986 h -530.973 z"
         id="path2761"
         style="stroke-width:0.999998" />
    </clipPath>
    <clipPath
       clipPathUnits="userSpaceOnUse"
       id="clipPath2763">
      <path
         d="m -335.6333,203.3356 h 530.973 v -551.986 h -530.973 z"
         id="path2765"
         style="stroke-width:0.999998" />
    </clipPath>
    <clipPath
       clipPathUnits="userSpaceOnUse"
       id="clipPath2767">
      <path
         d="m -178.2329,220.1003 h 530.973 v -551.986 h -530.973 z"
         id="path2769"
         style="stroke-width:0.999998" />
    </clipPath>
    <clipPath
       clipPathUnits="userSpaceOnUse"
       id="clipPath2771">
      <path
         d="m -176.3315,222.3024 h 530.973 v -551.986 h -530.973 z"
         id="path2773"
         style="stroke-width:0.999998" />
    </clipPath>
    <clipPath
       clipPathUnits="userSpaceOnUse"
       id="clipPath2775">
      <path
         d="m -165.7832,223.1911 h 530.973 v -551.986 h -530.973 z"
         id="path2777"
         style="stroke-width:0.999998" />
    </clipPath>
    <clipPath
       clipPathUnits="userSpaceOnUse"
       id="clipPath2779">
      <path
         d="m -158.1572,219.6091 h 530.973 v -551.986 h -530.973 z"
         id="path2781"
         style="stroke-width:0.999998" />
    </clipPath>
    <clipPath
       clipPathUnits="userSpaceOnUse"
       id="clipPath2783">
      <path
         d="m -154.0771,226.3044 h 530.973 v -551.986 h -530.973 z"
         id="path2785"
         style="stroke-width:0.999998" />
    </clipPath>
    <clipPath
       clipPathUnits="userSpaceOnUse"
       id="clipPath2787">
      <path
         d="m -140.2172,220.1003 h 530.973 v -551.986 h -530.973 z"
         id="path2789"
         style="stroke-width:0.999998" />
    </clipPath>
    <clipPath
       clipPathUnits="userSpaceOnUse"
       id="clipPath2791">
      <path
         d="m -138.3159,222.3024 h 530.973 v -551.986 h -530.973 z"
         id="path2793"
         style="stroke-width:0.999998" />
    </clipPath>
    <clipPath
       clipPathUnits="userSpaceOnUse"
       id="clipPath2795">
      <path
         d="m -128.8295,221.8825 h 530.973 v -551.986 h -530.973 z"
         id="path2797"
         style="stroke-width:0.999998" />
    </clipPath>
    <clipPath
       clipPathUnits="userSpaceOnUse"
       id="clipPath2799">
      <path
         d="m -122.7333,226.3044 h 530.973 v -551.986 h -530.973 z"
         id="path2801"
         style="stroke-width:0.999998" />
    </clipPath>
    <clipPath
       clipPathUnits="userSpaceOnUse"
       id="clipPath2803">
      <path
         d="m -113.8417,220.1003 h 530.973 v -551.986 h -530.973 z"
         id="path2805"
         style="stroke-width:0.999998" />
    </clipPath>
    <clipPath
       clipPathUnits="userSpaceOnUse"
       id="clipPath2807">
      <path
         d="m -106.9238,224.2106 h 530.973 v -551.986 h -530.973 z"
         id="path2809"
         style="stroke-width:0.999998" />
    </clipPath>
    <clipPath
       clipPathUnits="userSpaceOnUse"
       id="clipPath2811">
      <path
         d="m -101.854,220.9997 h 530.973 v -551.986 h -530.973 z"
         id="path2813"
         style="stroke-width:0.999998" />
    </clipPath>
    <clipPath
       clipPathUnits="userSpaceOnUse"
       id="clipPath2815">
      <path
         d="m -150.1655,208.9099 h 530.973 v -551.986 h -530.973 z"
         id="path2817"
         style="stroke-width:0.999998" />
    </clipPath>
    <clipPath
       clipPathUnits="userSpaceOnUse"
       id="clipPath2819">
      <path
         d="m -137.5537,205.7009 h 530.973 v -551.986 h -530.973 z"
         id="path2821"
         style="stroke-width:0.999998" />
    </clipPath>
    <clipPath
       clipPathUnits="userSpaceOnUse"
       id="clipPath2823">
      <path
         d="m -133.2758,204.5065 h 530.973 v -551.986 h -530.973 z"
         id="path2825"
         style="stroke-width:0.999998" />
    </clipPath>
    <clipPath
       clipPathUnits="userSpaceOnUse"
       id="clipPath2827">
      <path
         d="m -224.8979,54.9978 h 530.973 v -551.986 h -530.973 z"
         id="path2829"
         style="stroke-width:0.999998" />
    </clipPath>
    <clipPath
       clipPathUnits="userSpaceOnUse"
       id="clipPath2831">
      <path
         d="m -335.2231,156.2311 h 530.973 v -551.986 h -530.973 z"
         id="path2833"
         style="stroke-width:0.999998" />
    </clipPath>
    <clipPath
       clipPathUnits="userSpaceOnUse"
       id="clipPath2835">
      <path
         d="m -330.6245,157.0134 h 530.973 v -551.986 h -530.973 z"
         id="path2837"
         style="stroke-width:0.999998" />
    </clipPath>
    <clipPath
       clipPathUnits="userSpaceOnUse"
       id="clipPath2839">
      <path
         d="m -325.6821,156.652 h 530.973 v -551.986 h -530.973 z"
         id="path2841"
         style="stroke-width:0.999998" />
    </clipPath>
    <clipPath
       clipPathUnits="userSpaceOnUse"
       id="clipPath2843">
      <path
         d="m -321.1821,154.7009 h 530.973 v -551.986 h -530.973 z"
         id="path2845"
         style="stroke-width:0.999998" />
    </clipPath>
    <clipPath
       clipPathUnits="userSpaceOnUse"
       id="clipPath2847">
      <path
         d="m -317.9204,151.3405 h 530.973 v -551.986 h -530.973 z"
         id="path2849"
         style="stroke-width:0.999998" />
    </clipPath>
    <clipPath
       clipPathUnits="userSpaceOnUse"
       id="clipPath2851">
      <path
         d="m -315.5395,147.863 h 530.973 v -551.986 h -530.973 z"
         id="path2853"
         style="stroke-width:0.999998" />
    </clipPath>
    <clipPath
       clipPathUnits="userSpaceOnUse"
       id="clipPath2855">
      <path
         d="m -313.0932,145.1345 h 530.973 v -551.986 h -530.973 z"
         id="path2857"
         style="stroke-width:0.999998" />
    </clipPath>
    <clipPath
       clipPathUnits="userSpaceOnUse"
       id="clipPath2859">
      <path
         d="m -350.6088,58.4313 h 530.973 v -551.986 h -530.973 z"
         id="path2861"
         style="stroke-width:0.999998" />
    </clipPath>
    <clipPath
       clipPathUnits="userSpaceOnUse"
       id="clipPath2863">
      <path
         d="m -152.6083,107.4406 h 530.973 v -551.986 h -530.973 z"
         id="path2865"
         style="stroke-width:0.999998" />
    </clipPath>
  </defs>
  <sodipodi:namedview
     id="namedview1831"
     pagecolor="#ffffff"
     bordercolor="#666666"
     borderopacity="1.0"
     inkscape:showpageshadow="2"
     inkscape:pageopacity="0.0"
     inkscape:pagecheckerboard="0"
     inkscape:deskcolor="#d1d1d1"
     showgrid="false"
     inkscape:zoom="1.2663365"
     inkscape:cx="325.74281"
     inkscape:cy="308.7647"
     inkscape:window-width="1920"
     inkscape:window-height="1177"
     inkscape:window-x="-8"
     inkscape:window-y="-8"
     inkscape:window-maximized="1"
     inkscape:current-layer="g1837">
    <inkscape:page
       x="0"
       y="0"
       id="page1835"
       width="161.03467"
       height="157.05798" />
  </sodipodi:namedview>
  <g
     id="g1837"
     inkscape:groupmode="layer"
     inkscape:label="Page 1"
     transform="matrix(1.3333333,0,0,-1.3333333,-9.4942398,722.3544)">
    <g
       id="g2883"
       transform="translate(0,-4.5)">
      <g
         id="g1853"
         transform="translate(67.50868,546.26581)"
         clip-path="url(#clipPath2859)">
        <path
           d="m 0,0 c -33.347,0 -60.388,-27.035 -60.388,-60.388 0,-26.68 17.303,-49.316 41.297,-57.301 3.018,-0.559 4.126,1.31 4.126,2.905 0,1.439 -0.056,6.197 -0.082,11.243 -16.8,-3.653 -20.345,7.125 -20.345,7.125 -2.747,6.979 -6.705,8.836 -6.705,8.836 -5.479,3.748 0.413,3.671 0.413,3.671 6.064,-0.426 9.257,-6.224 9.257,-6.224 5.386,-9.231 14.127,-6.562 17.573,-5.019 0.543,3.902 2.107,6.567 3.834,8.075 -13.413,1.526 -27.513,6.705 -27.513,29.844 0,6.592 2.359,11.98 6.222,16.209 -0.627,1.521 -2.694,7.663 0.586,15.981 0,0 5.071,1.622 16.61,-6.191 4.817,1.338 9.983,2.009 15.115,2.033 5.132,-0.024 10.302,-0.695 15.128,-2.033 11.526,7.813 16.59,6.191 16.59,6.191 3.287,-8.318 1.22,-14.46 0.593,-15.981 3.872,-4.229 6.214,-9.617 6.214,-16.209 0,-23.195 -14.127,-28.301 -27.574,-29.796 2.166,-1.874 4.096,-5.549 4.096,-11.183 0,-8.08 -0.069,-14.583 -0.069,-16.572 0,-1.608 1.086,-3.49 4.147,-2.898 23.982,7.994 41.263,30.622 41.263,57.294 C 60.388,-27.035 33.351,0 0,0"
           style="fill:#1b1817;fill-opacity:1;fill-rule:evenodd;stroke:none"
           id="path1855" />
      </g>
      <g
         id="g1857"
         transform="translate(29.99308,459.56261)"
         clip-path="url(#clipPath2855)">
        <path
           d="m 0,0 c -0.133,-0.301 -0.605,-0.391 -1.035,-0.185 -0.439,0.198 -0.684,0.607 -0.542,0.908 0.13,0.308 0.602,0.394 1.04,0.188 C -0.099,0.714 0.151,0.301 0,0"
           style="fill:#1b1817;fill-opacity:1;fill-rule:nonzero;stroke:none"
           id="path1859" />
      </g>
      <g
         id="g1861"
         transform="translate(32.43938,456.83411)"
         clip-path="url(#clipPath2851)">
        <path
           d="M 0,0 C -0.288,-0.267 -0.852,-0.143 -1.233,0.279 -1.629,0.7 -1.702,1.264 -1.41,1.534 -1.113,1.801 -0.567,1.676 -0.172,1.255 0.224,0.829 0.301,0.271 0,0"
           style="fill:#1b1817;fill-opacity:1;fill-rule:nonzero;stroke:none"
           id="path1863" />
      </g>
      <g
         id="g1865"
         transform="translate(34.82028,453.35661)"
         clip-path="url(#clipPath2847)">
        <path
           d="M 0,0 C -0.37,-0.258 -0.976,-0.017 -1.35,0.52 -1.72,1.058 -1.72,1.702 -1.341,1.96 -0.967,2.218 -0.37,1.985 0.009,1.453 0.378,0.907 0.378,0.263 0,0"
           style="fill:#1b1817;fill-opacity:1;fill-rule:nonzero;stroke:none"
           id="path1867" />
      </g>
      <g
         id="g1869"
         transform="translate(38.08198,449.99621)"
         clip-path="url(#clipPath2843)">
        <path
           d="M 0,0 C -0.331,-0.365 -1.036,-0.267 -1.552,0.232 -2.08,0.718 -2.227,1.409 -1.896,1.774 -1.56,2.14 -0.851,2.037 -0.331,1.543 0.193,1.057 0.352,0.361 0,0"
           style="fill:#1b1817;fill-opacity:1;fill-rule:nonzero;stroke:none"
           id="path1871" />
      </g>
      <g
         id="g1873"
         transform="translate(42.58198,448.04511)"
         clip-path="url(#clipPath2839)">
        <path
           d="m 0,0 c -0.147,-0.473 -0.825,-0.687 -1.509,-0.486 -0.683,0.207 -1.13,0.76 -0.992,1.238 0.142,0.476 0.824,0.7 1.513,0.485 C -0.306,1.031 0.142,0.481 0,0"
           style="fill:#1b1817;fill-opacity:1;fill-rule:nonzero;stroke:none"
           id="path1875" />
      </g>
      <g
         id="g1877"
         transform="translate(47.52438,447.68371)"
         clip-path="url(#clipPath2835)">
        <path
           d="m 0,0 c 0.017,-0.498 -0.563,-0.911 -1.281,-0.92 -0.722,-0.016 -1.307,0.387 -1.315,0.877 0,0.503 0.568,0.911 1.289,0.924 C -0.589,0.895 0,0.494 0,0"
           style="fill:#1b1817;fill-opacity:1;fill-rule:nonzero;stroke:none"
           id="path1879" />
      </g>
      <g
         id="g1881"
         transform="translate(52.12298,448.46601)"
         clip-path="url(#clipPath2831)">
        <path
           d="m 0,0 c 0.086,-0.485 -0.413,-0.984 -1.126,-1.117 -0.701,-0.129 -1.35,0.172 -1.439,0.653 -0.087,0.498 0.42,0.997 1.121,1.126 C -0.73,0.786 -0.091,0.494 0,0"
           style="fill:#1b1817;fill-opacity:1;fill-rule:nonzero;stroke:none"
           id="path1883" />
      </g>
    </g>
  </g>
</svg>
