<?xml version="1.0" encoding="UTF-8" standalone="no"?>
<svg
   version="1.2"
   width="42.582218mm"
   height="17.76222mm"
   viewBox="0 0 4258.2219 1776.2221"
   preserveAspectRatio="xMidYMid"
   fill-rule="evenodd"
   stroke-width="28.222"
   stroke-linejoin="round"
   xml:space="preserve"
   id="svg82"
   xmlns="http://www.w3.org/2000/svg"
   xmlns:svg="http://www.w3.org/2000/svg"
   xmlns:ooo="http://xml.openoffice.org/svg/export">
 <defs
   class="ClipPathGroup"
   id="defs8">
  <clipPath
   id="presentation_clip_path"
   clipPathUnits="userSpaceOnUse">
   <rect
   x="0"
   y="0"
   width="21590"
   height="27940"
   id="rect2" />
  </clipPath>
  <clipPath
   id="presentation_clip_path_shrink"
   clipPathUnits="userSpaceOnUse">
   <rect
   x="21"
   y="27"
   width="21547"
   height="27885"
   id="rect5" />
  </clipPath>
 </defs>
 <defs
   class="TextShapeIndex"
   id="defs12">
  <g
   ooo:slide="id1"
   ooo:id-list="id3 id4"
   id="g10" />
 </defs>
 <defs
   class="EmbeddedBulletChars"
   id="defs44">
  <g
   id="bullet-char-template-57356"
   transform="matrix(4.8828125e-4,0,0,-4.8828125e-4,0,0)">
   <path
   d="M 580,1141 1163,571 580,0 -4,571 Z"
   id="path14" />
  </g>
  <g
   id="bullet-char-template-57354"
   transform="matrix(4.8828125e-4,0,0,-4.8828125e-4,0,0)">
   <path
   d="M 8,1128 H 1137 V 0 H 8 Z"
   id="path17" />
  </g>
  <g
   id="bullet-char-template-10146"
   transform="matrix(4.8828125e-4,0,0,-4.8828125e-4,0,0)">
   <path
   d="M 174,0 602,739 174,1481 1456,739 Z M 1358,739 309,1346 659,739 Z"
   id="path20" />
  </g>
  <g
   id="bullet-char-template-10132"
   transform="matrix(4.8828125e-4,0,0,-4.8828125e-4,0,0)">
   <path
   d="M 2015,739 1276,0 H 717 l 543,543 H 174 v 393 h 1086 l -543,545 h 557 z"
   id="path23" />
  </g>
  <g
   id="bullet-char-template-10007"
   transform="matrix(4.8828125e-4,0,0,-4.8828125e-4,0,0)">
   <path
   d="m 0,-2 c -7,16 -16,29 -25,39 l 381,530 c -94,256 -141,385 -141,387 0,25 13,38 40,38 9,0 21,-2 34,-5 21,4 42,12 65,25 l 27,-13 111,-251 280,301 64,-25 24,25 c 21,-10 41,-24 62,-43 C 886,937 835,863 770,784 769,783 710,716 594,584 L 774,223 c 0,-27 -21,-55 -63,-84 l 16,-20 C 717,90 699,76 672,76 641,76 570,178 457,381 L 164,-76 c -22,-34 -53,-51 -92,-51 -42,0 -63,17 -64,51 -7,9 -10,24 -10,44 0,9 1,19 2,30 z"
   id="path26" />
  </g>
  <g
   id="bullet-char-template-10004"
   transform="matrix(4.8828125e-4,0,0,-4.8828125e-4,0,0)">
   <path
   d="M 285,-33 C 182,-33 111,30 74,156 52,228 41,333 41,471 c 0,78 14,145 41,201 34,71 87,106 158,106 53,0 88,-31 106,-94 l 23,-176 c 8,-64 28,-97 59,-98 l 735,706 c 11,11 33,17 66,17 42,0 63,-15 63,-46 V 965 c 0,-36 -10,-64 -30,-84 L 442,47 C 390,-6 338,-33 285,-33 Z"
   id="path29" />
  </g>
  <g
   id="bullet-char-template-9679"
   transform="matrix(4.8828125e-4,0,0,-4.8828125e-4,0,0)">
   <path
   d="M 813,0 C 632,0 489,54 383,161 276,268 223,411 223,592 c 0,181 53,324 160,431 106,107 249,161 430,161 179,0 323,-54 432,-161 108,-107 162,-251 162,-431 0,-180 -54,-324 -162,-431 C 1136,54 992,0 813,0 Z"
   id="path32" />
  </g>
  <g
   id="bullet-char-template-8226"
   transform="matrix(4.8828125e-4,0,0,-4.8828125e-4,0,0)">
   <path
   d="m 346,457 c -73,0 -137,26 -191,78 -54,51 -81,114 -81,188 0,73 27,136 81,188 54,52 118,78 191,78 73,0 134,-26 185,-79 51,-51 77,-114 77,-187 0,-75 -25,-137 -76,-188 -50,-52 -112,-78 -186,-78 z"
   id="path35" />
  </g>
  <g
   id="bullet-char-template-8211"
   transform="matrix(4.8828125e-4,0,0,-4.8828125e-4,0,0)">
   <path
   d="M -4,459 H 1135 V 606 H -4 Z"
   id="path38" />
  </g>
  <g
   id="bullet-char-template-61548"
   transform="matrix(4.8828125e-4,0,0,-4.8828125e-4,0,0)">
   <path
   d="m 173,740 c 0,163 58,303 173,419 116,115 255,173 419,173 163,0 302,-58 418,-173 116,-116 174,-256 174,-419 0,-163 -58,-303 -174,-418 C 1067,206 928,148 765,148 601,148 462,206 346,322 231,437 173,577 173,740 Z"
   id="path41" />
  </g>
 </defs>
 <g
   id="g49"
   transform="translate(-4750.9059,-3360.193)">
  <g
   id="id2"
   class="Master_Slide">
   <g
   id="bg-id2"
   class="Background" />
   <g
   id="bo-id2"
   class="BackgroundObjects" />
  </g>
 </g>
 <g
   class="SlideGroup"
   id="g80"
   transform="translate(-2619.889,-2242.889)">
  <g
   id="g78">
   <g
   id="container-id1">
    <g
   id="id1"
   class="Slide"
   clip-path="url(#presentation_clip_path)">
     <g
   class="Page"
   id="g74">
      <g
   class="com.sun.star.drawing.CustomShape"
   id="g58">
       <g
   id="id3">
        <rect
   class="BoundingBox"
   stroke="none"
   fill="none"
   x="2633"
   y="2256"
   width="4233"
   height="1751"
   id="rect51" />
        <path
   fill="#085cb8"
   stroke="none"
   d="M 4749,4005 H 2634 V 2257 h 4230 v 1748 z"
   id="path53" />
        <path
   fill="none"
   stroke="#3465a4"
   d="M 4749,4005 H 2634 V 2257 h 4230 v 1748 z"
   id="path55" />
       </g>
      </g>
      <g
   class="Graphic"
   id="g72">
       <g
   id="id4">
        <rect
   class="BoundingBox"
   stroke="none"
   fill="none"
   x="2798"
   y="2445"
   width="3872"
   height="1269"
   id="rect60" />
        <defs
   id="defs65">
         <clipPath
   id="clip_path_1"
   clipPathUnits="userSpaceOnUse">
          <path
   d="M 2798,2445 H 6669 V 3713 H 2798 Z"
   id="path62" />
         </clipPath>
        </defs>
        <g
   clip-path="url(#clip_path_1)"
   id="g69">
         <path
   fill="#ffffff"
   stroke="none"
   d="m 6641,2944 c -19,-42 -44,-79 -75,-111 -32,-31 -68,-56 -111,-74 -42,-18 -87,-27 -135,-27 -49,0 -94,9 -136,27 -21,9 -40,20 -59,32 -18,12 -36,27 -52,42 -10,10 -19,20 -27,31 -10,12 -21,28 -27,38 -7,12 -25,49 -33,75 1,-43 8,-108 33,-145 v -314 c 0,-20 -7,-38 -22,-52 -15,-14 -32,-21 -51,-21 -21,0 -38,7 -52,21 -14,14 -21,32 -21,52 v 280 c -30,-21 -62,-37 -96,-49 -34,-11 -69,-17 -107,-17 -47,0 -92,9 -134,27 -43,18 -80,43 -111,74 -32,32 -57,69 -75,111 -2,3 -3,6 -4,10 -2,-4 -3,-7 -4,-10 -19,-42 -44,-79 -76,-111 -31,-31 -68,-56 -110,-74 -43,-18 -88,-27 -135,-27 -49,0 -95,9 -136,27 -42,18 -79,43 -111,74 -32,32 -57,69 -75,111 -1,3 -3,6 -4,9 -1,-3 -2,-6 -4,-9 -18,-42 -43,-79 -75,-111 -31,-31 -68,-56 -111,-74 -42,-18 -87,-27 -135,-27 -48,0 -94,9 -135,27 -42,18 -79,43 -111,74 -32,32 -57,69 -75,111 -2,3 -3,6 -4,9 -1,-3 -2,-6 -3,-9 -19,-42 -44,-79 -76,-111 -31,-31 -68,-56 -110,-74 -43,-18 -88,-27 -135,-27 -49,0 -94,9 -136,27 -39,17 -73,39 -104,68 v -12 c 0,-41 -33,-75 -74,-75 h -523 c -41,0 -75,34 -75,75 0,41 34,74 75,74 h 411 l -482,650 c -10,12 -15,28 -15,44 v 49 c 0,41 33,74 75,74 h 556 c 40,0 72,-30 75,-69 24,20 52,36 82,49 42,18 87,27 135,27 72,0 136,-19 193,-58 45,-31 81,-70 108,-116 v 101 c 0,20 7,38 21,52 14,14 31,21 52,21 19,0 36,-7 51,-21 15,-14 22,-32 22,-52 v -261 0 c 0,-1 0,-1 0,-1 h -183 c -15,0 -29,4 -41,13 -12,8 -21,19 -26,33 l -12,25 c -17,36 -41,65 -74,86 -33,21 -70,32 -111,32 -27,0 -53,-6 -78,-16 -25,-10 -47,-25 -65,-43 -18,-19 -32,-40 -43,-65 -11,-24 -16,-50 -16,-77 v -65 h 468 35 146 v -222 c 0,-27 5,-53 16,-77 10,-24 24,-46 43,-65 19,-18 40,-33 65,-43 24,-10 50,-15 79,-15 27,0 53,5 78,15 25,10 46,25 64,43 18,19 33,41 44,65 10,24 16,50 16,77 v 561 c 0,20 7,38 21,52 14,14 32,21 52,21 20,0 37,-7 51,-21 15,-14 22,-32 22,-52 v -101 c 16,27 34,51 56,73 31,31 68,56 111,74 42,18 87,27 135,27 47,0 92,-9 135,-27 42,-18 79,-43 112,-74 32,-32 57,-69 75,-111 1,-2 2,-5 3,-7 1,2 2,5 3,7 18,42 43,79 75,111 32,31 69,56 111,74 41,18 87,27 136,27 47,0 92,-9 135,-27 42,-18 79,-43 110,-74 32,-32 57,-69 76,-111 1,-3 2,-6 3,-9 2,3 3,6 4,9 19,42 44,79 75,111 32,31 69,56 111,74 43,18 88,27 135,27 48,0 93,-9 135,-27 43,-18 80,-43 112,-74 32,-32 57,-69 75,-111 18,-42 27,-87 27,-135 v -287 c 0,-47 -9,-93 -28,-135 z m -3266,88 c -2,15 -3,31 -3,47 v 287 c 0,48 9,93 28,135 9,20 19,39 31,56 -1,0 -1,0 -2,0 h -444 z m 143,122 v -75 c 0,-27 5,-53 16,-77 10,-24 25,-46 43,-65 19,-18 40,-33 65,-43 24,-10 51,-15 79,-15 27,0 53,5 78,15 25,10 47,25 64,43 18,19 33,41 44,65 11,24 16,50 16,77 v 75 z m 1705,212 c 0,27 -5,53 -15,77 -11,25 -25,46 -44,65 -18,18 -40,33 -64,43 -25,10 -51,16 -79,16 -27,0 -53,-6 -78,-16 -25,-10 -47,-25 -65,-43 -18,-19 -32,-40 -43,-65 -11,-24 -17,-50 -17,-77 v -287 c 0,-27 5,-53 16,-77 10,-24 25,-46 43,-65 19,-18 40,-33 65,-43 24,-10 51,-15 79,-15 27,0 53,5 78,15 25,10 46,25 64,43 18,19 33,41 44,65 11,24 16,50 16,77 z m 650,0 c 0,27 -6,53 -17,77 -10,25 -25,46 -43,65 -18,18 -39,33 -65,43 -24,10 -51,16 -78,16 -28,0 -54,-6 -79,-16 -24,-10 -46,-25 -64,-43 -19,-19 -33,-40 -44,-65 -10,-24 -15,-50 -15,-77 v -287 c 0,-27 6,-53 16,-77 11,-24 26,-46 44,-65 18,-18 39,-33 64,-43 25,-10 51,-15 78,-15 29,0 55,5 79,15 25,10 46,25 65,43 19,19 33,41 43,65 11,24 16,50 16,77 z m 649,0 c 0,27 -5,53 -15,77 -10,25 -25,46 -43,65 -19,18 -41,33 -65,43 -24,10 -51,16 -79,16 -27,0 -53,-6 -78,-16 -25,-10 -46,-25 -64,-43 -19,-19 -33,-40 -44,-65 -11,-24 -16,-50 -16,-77 v -287 c 0,-27 5,-53 15,-77 10,-24 25,-46 43,-65 19,-18 41,-33 65,-43 24,-10 51,-15 79,-15 27,0 53,5 78,15 25,10 47,25 65,43 18,19 32,41 43,65 11,24 16,50 16,77 z"
   id="path67" />
        </g>
       </g>
      </g>
     </g>
    </g>
   </g>
  </g>
 </g>
</svg>
