<?xml version="1.0" encoding="UTF-8"?>
<!-- Generator: Adobe Illustrator 27.0.1, SVG Export Plug-In . SVG Version: 6.00 Build 0)  -->
<svg width="450.242" height="144.855" version="1.1" viewBox="0 0 450.242 144.855" xml:space="preserve" xmlns="http://www.w3.org/2000/svg">
<style type="text/css">
	.st0{fill:#222425;}
	.st1{fill:#5D6163;}
	.st2{fill:url(#SVGID_1_);}
</style>
<g transform="translate(-28.448 -27.5247)">
	
		
			<path class="st0" d="m175.43 155.05v-11.12h1.8v9.53h4.52v1.59z"/>
			<path class="st0" d="m189.4 155.05c-0.46 0-0.81-0.13-1.05-0.39s-0.39-0.59-0.45-1h-0.08c-0.16 0.52-0.45 0.91-0.88 1.18s-0.94 0.4-1.54 0.4c-0.86 0-1.52-0.22-1.98-0.67s-0.69-1.05-0.69-1.8c0-0.83 0.3-1.45 0.9-1.86s1.48-0.62 2.64-0.62h1.5v-0.7c0-0.51-0.14-0.9-0.41-1.18-0.28-0.28-0.71-0.41-1.29-0.41-0.49 0-0.89 0.11-1.19 0.32-0.31 0.21-0.57 0.48-0.78 0.81l-1.03-0.94c0.28-0.47 0.66-0.85 1.16-1.15s1.15-0.45 1.96-0.45c1.07 0 1.9 0.25 2.47 0.75s0.86 1.22 0.86 2.15v4.16h0.88v1.42h-1zm-3.51-1.13c0.54 0 0.99-0.12 1.34-0.36s0.53-0.56 0.53-0.96v-1.19h-1.47c-1.2 0-1.8 0.37-1.8 1.12v0.29c0 0.37 0.12 0.65 0.37 0.84 0.25 0.17 0.6 0.26 1.03 0.26z"/>
			<path class="st0" d="m191.91 155.05v-8.28h1.74v1.37h0.08c0.18-0.45 0.45-0.82 0.82-1.12s0.87-0.45 1.51-0.45c0.85 0 1.51 0.28 1.98 0.84s0.71 1.35 0.71 2.38v5.26h-1.74v-5.03c0-1.3-0.52-1.94-1.56-1.94-0.22 0-0.44 0.03-0.66 0.09s-0.41 0.15-0.58 0.26-0.31 0.27-0.41 0.45-0.15 0.39-0.15 0.64v5.54h-1.74z"/>
			<path class="st0" d="m206.2 153.68h-0.08c-0.18 0.49-0.48 0.87-0.88 1.15-0.41 0.28-0.89 0.41-1.44 0.41-1.05 0-1.86-0.38-2.44-1.14-0.57-0.76-0.86-1.82-0.86-3.19s0.29-2.43 0.86-3.19 1.39-1.14 2.44-1.14c0.55 0 1.03 0.14 1.44 0.41s0.7 0.66 0.88 1.15h0.08v-4.87h1.74v11.79h-1.74zm-1.88 0.06c0.53 0 0.98-0.13 1.34-0.39s0.54-0.6 0.54-1.03v-2.84c0-0.42-0.18-0.77-0.54-1.03s-0.81-0.39-1.34-0.39c-0.61 0-1.09 0.19-1.45 0.58s-0.54 0.9-0.54 1.54v1.43c0 0.64 0.18 1.15 0.54 1.54 0.37 0.4 0.85 0.59 1.45 0.59z"/>
			<path class="st0" d="m222.5 146.54h-0.08l-0.88 1.8-2.44 4.44-2.44-4.44-0.88-1.8h-0.08v8.51h-1.72v-11.12h2.13l2.98 5.66h0.1l2.98-5.66h2.04v11.12h-1.72v-8.51z"/>
			<path class="st0" d="m232.74 155.05c-0.46 0-0.81-0.13-1.05-0.39s-0.39-0.59-0.45-1h-0.08c-0.16 0.52-0.45 0.91-0.88 1.18s-0.94 0.4-1.54 0.4c-0.86 0-1.52-0.22-1.98-0.67s-0.69-1.05-0.69-1.8c0-0.83 0.3-1.45 0.9-1.86s1.48-0.62 2.64-0.62h1.5v-0.7c0-0.51-0.14-0.9-0.41-1.18-0.28-0.28-0.71-0.41-1.29-0.41-0.49 0-0.89 0.11-1.19 0.32-0.31 0.21-0.57 0.48-0.78 0.81l-1.03-0.94c0.28-0.47 0.66-0.85 1.16-1.15s1.15-0.45 1.96-0.45c1.07 0 1.9 0.25 2.47 0.75s0.86 1.22 0.86 2.15v4.16h0.88v1.42h-1zm-3.5-1.13c0.54 0 0.99-0.12 1.34-0.36s0.53-0.56 0.53-0.96v-1.19h-1.47c-1.2 0-1.8 0.37-1.8 1.12v0.29c0 0.37 0.12 0.65 0.37 0.84 0.25 0.17 0.59 0.26 1.03 0.26z"/>
			<path class="st0" d="m235.26 155.05v-8.28h1.74v1.37h0.08c0.18-0.45 0.45-0.82 0.82-1.12s0.87-0.45 1.51-0.45c0.85 0 1.51 0.28 1.98 0.84s0.71 1.35 0.71 2.38v5.26h-1.74v-5.03c0-1.3-0.52-1.94-1.56-1.94-0.22 0-0.44 0.03-0.66 0.09s-0.41 0.15-0.58 0.26-0.31 0.27-0.41 0.45-0.15 0.39-0.15 0.64v5.54h-1.74z"/>
			<path class="st0" d="m250.41 155.05c-0.46 0-0.81-0.13-1.05-0.39s-0.39-0.59-0.45-1h-0.08c-0.16 0.52-0.45 0.91-0.88 1.18s-0.94 0.4-1.54 0.4c-0.86 0-1.52-0.22-1.98-0.67s-0.69-1.05-0.69-1.8c0-0.83 0.3-1.45 0.9-1.86s1.48-0.62 2.64-0.62h1.5v-0.7c0-0.51-0.14-0.9-0.41-1.18-0.28-0.28-0.71-0.41-1.29-0.41-0.49 0-0.89 0.11-1.19 0.32-0.31 0.21-0.57 0.48-0.78 0.81l-1.03-0.94c0.28-0.47 0.66-0.85 1.16-1.15s1.15-0.45 1.96-0.45c1.07 0 1.9 0.25 2.47 0.75s0.86 1.22 0.86 2.15v4.16h0.88v1.42h-1zm-3.5-1.13c0.54 0 0.99-0.12 1.34-0.36s0.53-0.56 0.53-0.96v-1.19h-1.47c-1.2 0-1.8 0.37-1.8 1.12v0.29c0 0.37 0.12 0.65 0.37 0.84 0.25 0.17 0.59 0.26 1.03 0.26z"/>
			<path class="st0" d="m260.19 155.83c0 0.86-0.33 1.51-0.99 1.94-0.66 0.44-1.73 0.65-3.22 0.65-0.68 0-1.26-0.05-1.73-0.14s-0.86-0.22-1.16-0.39-0.52-0.38-0.66-0.62-0.21-0.53-0.21-0.84c0-0.46 0.13-0.81 0.37-1.07 0.25-0.25 0.6-0.43 1.04-0.53v-0.18c-0.63-0.2-0.94-0.63-0.94-1.27 0-0.42 0.14-0.75 0.43-0.98s0.63-0.39 1.04-0.49v-0.06c-0.49-0.23-0.86-0.56-1.12-0.98s-0.39-0.91-0.39-1.47c0-0.85 0.28-1.53 0.85-2.05s1.38-0.78 2.45-0.78c0.58 0 1.08 0.09 1.5 0.26v-0.22c0-0.37 0.09-0.66 0.26-0.87 0.18-0.21 0.45-0.31 0.82-0.31h1.28v1.4h-1.69v0.33c0.37 0.24 0.66 0.56 0.86 0.95s0.3 0.82 0.3 1.3c0 0.84-0.29 1.52-0.86 2.03-0.57 0.52-1.39 0.77-2.45 0.77-0.4 0-0.76-0.04-1.08-0.13-0.21 0.07-0.4 0.18-0.56 0.31s-0.24 0.31-0.24 0.52c0 0.22 0.1 0.38 0.3 0.48s0.49 0.14 0.86 0.14h2.04c1.02 0 1.76 0.2 2.21 0.61 0.46 0.42 0.69 0.98 0.69 1.69zm-1.62 0.19c0-0.29-0.11-0.52-0.33-0.69s-0.61-0.25-1.19-0.25h-2.8c-0.38 0.22-0.57 0.54-0.57 0.96 0 0.34 0.14 0.61 0.41 0.82s0.73 0.31 1.38 0.31h1.08c1.34 0 2.02-0.38 2.02-1.15zm-2.6-5.06c0.51 0 0.91-0.11 1.19-0.34s0.42-0.58 0.42-1.06v-0.32c0-0.48-0.14-0.83-0.42-1.06s-0.68-0.34-1.19-0.34-0.9 0.11-1.19 0.34c-0.28 0.23-0.42 0.58-0.42 1.06v0.32c0 0.48 0.14 0.83 0.42 1.06 0.29 0.22 0.68 0.34 1.19 0.34z"/>
			<path class="st0" d="m264.48 155.24c-0.59 0-1.13-0.1-1.59-0.3-0.47-0.2-0.87-0.49-1.19-0.87-0.33-0.38-0.58-0.83-0.76-1.37-0.17-0.54-0.26-1.13-0.26-1.79s0.09-1.26 0.26-1.79c0.18-0.54 0.43-0.99 0.76-1.37s0.73-0.67 1.19-0.87c0.47-0.2 1-0.3 1.59-0.3 0.61 0 1.14 0.11 1.6 0.32s0.85 0.51 1.16 0.88c0.31 0.38 0.54 0.82 0.69 1.31 0.15 0.5 0.23 1.04 0.23 1.61v0.65h-5.69v0.27c0 0.63 0.19 1.15 0.57 1.56s0.91 0.61 1.62 0.61c0.51 0 0.94-0.11 1.29-0.33s0.65-0.52 0.89-0.9l1.02 1.01c-0.31 0.51-0.75 0.92-1.34 1.22s-1.27 0.45-2.04 0.45zm0-7.31c-0.3 0-0.57 0.05-0.82 0.16s-0.46 0.26-0.64 0.45c-0.17 0.19-0.31 0.42-0.41 0.68-0.1 0.27-0.14 0.56-0.14 0.88v0.11h3.86v-0.16c0-0.64-0.17-1.15-0.49-1.54-0.34-0.39-0.79-0.58-1.36-0.58z"/>
			<path class="st0" d="m269.93 155.05v-8.28h1.74v1.37h0.08c0.08-0.21 0.19-0.41 0.31-0.61 0.12-0.19 0.27-0.36 0.45-0.5s0.38-0.26 0.62-0.33c0.24-0.08 0.52-0.12 0.84-0.12 0.56 0 1.06 0.14 1.5 0.41 0.44 0.28 0.75 0.7 0.96 1.27h0.05c0.15-0.47 0.44-0.87 0.86-1.19 0.42-0.33 0.97-0.49 1.64-0.49 0.83 0 1.47 0.28 1.93 0.84s0.68 1.35 0.68 2.38v5.26h-1.74v-5.06c0-0.64-0.12-1.12-0.37-1.44-0.24-0.32-0.63-0.49-1.16-0.49-0.22 0-0.44 0.03-0.64 0.09s-0.38 0.15-0.53 0.26c-0.15 0.12-0.28 0.27-0.37 0.45-0.1 0.18-0.14 0.39-0.14 0.62v5.56h-1.74v-5.05c0-1.28-0.5-1.93-1.51-1.93-0.21 0-0.42 0.03-0.63 0.09s-0.39 0.15-0.55 0.26c-0.16 0.12-0.29 0.27-0.38 0.45-0.1 0.18-0.14 0.39-0.14 0.62v5.56z"/>
			<path class="st0" d="m287.07 155.24c-0.59 0-1.13-0.1-1.59-0.3-0.47-0.2-0.87-0.49-1.19-0.87-0.33-0.38-0.58-0.83-0.76-1.37-0.17-0.54-0.26-1.13-0.26-1.79s0.09-1.26 0.26-1.79c0.18-0.54 0.43-0.99 0.76-1.37s0.73-0.67 1.19-0.87c0.47-0.2 1-0.3 1.59-0.3 0.61 0 1.14 0.11 1.6 0.32s0.85 0.51 1.16 0.88c0.31 0.38 0.54 0.82 0.69 1.31s0.23 1.04 0.23 1.61v0.65h-5.69v0.27c0 0.63 0.19 1.15 0.57 1.56s0.91 0.61 1.62 0.61c0.51 0 0.94-0.11 1.29-0.33s0.65-0.52 0.89-0.9l1.02 1.01c-0.31 0.51-0.75 0.92-1.34 1.22s-1.27 0.45-2.04 0.45zm0-7.31c-0.3 0-0.57 0.05-0.82 0.16s-0.46 0.26-0.64 0.45c-0.17 0.19-0.31 0.42-0.41 0.68-0.1 0.27-0.14 0.56-0.14 0.88v0.11h3.86v-0.16c0-0.64-0.17-1.15-0.49-1.54-0.34-0.39-0.79-0.58-1.36-0.58z"/>
			<path class="st0" d="m292.52 155.05v-8.28h1.74v1.37h0.08c0.18-0.45 0.45-0.82 0.82-1.12s0.87-0.45 1.51-0.45c0.85 0 1.51 0.28 1.98 0.84s0.71 1.35 0.71 2.38v5.26h-1.74v-5.03c0-1.3-0.52-1.94-1.56-1.94-0.22 0-0.44 0.03-0.66 0.09s-0.41 0.15-0.58 0.26-0.31 0.27-0.41 0.45-0.15 0.39-0.15 0.64v5.54h-1.74z"/>
			<path class="st0" d="m303.89 155.05c-0.61 0-1.06-0.16-1.37-0.47s-0.46-0.76-0.46-1.33v-5.07h-1.29v-1.42h0.7c0.29 0 0.49-0.06 0.6-0.19s0.17-0.33 0.17-0.62v-1.45h1.56v2.26h1.74v1.42h-1.74v5.45h1.61v1.42z"/>
			<path class="st0" d="m311.28 148.18h-1.26v-1.42h1.26v-1.37c0-0.67 0.17-1.19 0.53-1.57 0.35-0.38 0.88-0.57 1.58-0.57h1.37v1.42h-1.74v2.09h1.74v1.42h-1.74v6.87h-1.74z"/>
			<path class="st0" d="m319.29 155.24c-0.57 0-1.1-0.1-1.57-0.3s-0.87-0.49-1.2-0.87-0.58-0.83-0.76-1.37-0.27-1.13-0.27-1.79 0.09-1.26 0.27-1.79c0.18-0.54 0.44-0.99 0.76-1.37 0.33-0.38 0.73-0.67 1.2-0.87s1-0.3 1.57-0.3 1.1 0.1 1.57 0.3 0.87 0.49 1.2 0.87 0.58 0.83 0.76 1.37 0.27 1.13 0.27 1.79-0.09 1.26-0.27 1.79c-0.18 0.54-0.44 0.99-0.76 1.37-0.33 0.38-0.73 0.67-1.2 0.87s-0.99 0.3-1.57 0.3zm0-1.45c0.6 0 1.07-0.18 1.43-0.55 0.36-0.36 0.54-0.91 0.54-1.64v-1.39c0-0.73-0.18-1.28-0.54-1.64s-0.84-0.55-1.43-0.55-1.07 0.18-1.43 0.55c-0.36 0.36-0.54 0.91-0.54 1.64v1.39c0 0.73 0.18 1.28 0.54 1.64 0.36 0.37 0.84 0.55 1.43 0.55z"/>
			<path class="st0" d="m324.87 155.05v-8.28h1.74v1.59h0.08c0.12-0.42 0.36-0.8 0.73-1.12s0.89-0.48 1.54-0.48h0.46v1.67h-0.68c-0.69 0-1.22 0.11-1.58 0.33-0.37 0.22-0.55 0.55-0.55 0.99v5.29h-1.74z"/>
			<path class="st0" d="m337.87 155.24c-0.94 0-1.73-0.17-2.38-0.51s-1.21-0.8-1.68-1.37l1.24-1.16c0.39 0.48 0.83 0.84 1.3 1.08s1.01 0.37 1.62 0.37c0.71 0 1.25-0.16 1.61-0.48s0.54-0.75 0.54-1.29c0-0.44-0.13-0.78-0.38-1.04-0.26-0.26-0.71-0.45-1.35-0.57l-0.99-0.18c-1.08-0.2-1.9-0.56-2.44-1.07s-0.81-1.21-0.81-2.1c0-0.49 0.09-0.93 0.28-1.33s0.45-0.73 0.78-1 0.74-0.48 1.22-0.63 1.01-0.22 1.61-0.22c0.84 0 1.57 0.15 2.18 0.44 0.62 0.29 1.14 0.71 1.58 1.27l-1.26 1.12c-0.29-0.37-0.64-0.67-1.05-0.89s-0.93-0.33-1.54-0.33c-0.64 0-1.13 0.13-1.48 0.38s-0.53 0.63-0.53 1.12c0 0.47 0.14 0.82 0.43 1.04 0.29 0.23 0.73 0.4 1.34 0.52l0.99 0.21c1.12 0.21 1.93 0.57 2.45 1.08s0.77 1.21 0.77 2.1c0 0.52-0.09 0.99-0.27 1.42s-0.44 0.79-0.79 1.09-0.77 0.54-1.27 0.7c-0.52 0.15-1.08 0.23-1.72 0.23z"/>
			<path class="st0" d="m348.8 153.68h-0.06c-0.07 0.2-0.17 0.4-0.29 0.59s-0.28 0.36-0.46 0.5-0.41 0.26-0.67 0.34-0.56 0.13-0.9 0.13c-0.86 0-1.53-0.28-2-0.83s-0.71-1.34-0.71-2.37v-5.27h1.74v5.05c0 1.29 0.53 1.93 1.59 1.93 0.22 0 0.44-0.03 0.65-0.09s0.4-0.15 0.57-0.26c0.16-0.12 0.3-0.27 0.4-0.45s0.15-0.39 0.15-0.64v-5.54h1.74v8.28h-1.74v-1.37z"/>
			<path class="st0" d="m355.49 155.24c-0.79 0-1.44-0.14-1.98-0.41-0.53-0.28-0.99-0.66-1.39-1.15l1.12-1.02c0.31 0.37 0.65 0.66 1.03 0.87s0.82 0.31 1.31 0.31c0.51 0 0.89-0.1 1.14-0.29 0.25-0.2 0.37-0.47 0.37-0.82 0-0.27-0.09-0.49-0.26-0.68-0.18-0.19-0.48-0.31-0.92-0.36l-0.77-0.1c-0.85-0.11-1.52-0.35-2-0.74s-0.72-0.96-0.72-1.73c0-0.4 0.07-0.76 0.22-1.08 0.15-0.31 0.36-0.58 0.63-0.8s0.6-0.38 0.97-0.5c0.38-0.12 0.79-0.18 1.25-0.18 0.74 0 1.35 0.12 1.82 0.35s0.89 0.56 1.27 0.97l-1.07 1.02c-0.21-0.26-0.49-0.48-0.84-0.66-0.34-0.19-0.74-0.28-1.19-0.28-0.48 0-0.83 0.1-1.06 0.29s-0.34 0.44-0.34 0.75c0 0.32 0.1 0.56 0.3 0.72s0.53 0.28 0.97 0.35l0.77 0.1c0.91 0.14 1.58 0.41 2 0.8 0.42 0.4 0.63 0.93 0.63 1.6 0 0.4-0.08 0.77-0.23 1.09s-0.37 0.6-0.66 0.84c-0.29 0.23-0.63 0.41-1.03 0.54-0.39 0.14-0.84 0.2-1.34 0.2z"/>
			<path class="st0" d="m362.75 155.05c-0.61 0-1.06-0.16-1.37-0.47s-0.46-0.76-0.46-1.33v-5.07h-1.29v-1.42h0.7c0.29 0 0.49-0.06 0.6-0.19s0.17-0.33 0.17-0.62v-1.45h1.56v2.26h1.74v1.42h-1.74v5.45h1.61v1.42z"/>
			<path class="st0" d="m372.18 155.05c-0.46 0-0.81-0.13-1.05-0.39s-0.39-0.59-0.45-1h-0.08c-0.16 0.52-0.45 0.91-0.88 1.18s-0.94 0.4-1.54 0.4c-0.86 0-1.52-0.22-1.98-0.67s-0.69-1.05-0.69-1.8c0-0.83 0.3-1.45 0.9-1.86s1.48-0.62 2.64-0.62h1.5v-0.7c0-0.51-0.14-0.9-0.41-1.18-0.28-0.28-0.71-0.41-1.29-0.41-0.49 0-0.89 0.11-1.19 0.32-0.31 0.21-0.57 0.48-0.78 0.81l-1.03-0.94c0.28-0.47 0.66-0.85 1.16-1.15s1.15-0.45 1.96-0.45c1.07 0 1.9 0.25 2.47 0.75s0.86 1.22 0.86 2.15v4.16h0.88v1.42h-1zm-3.5-1.13c0.54 0 0.99-0.12 1.34-0.36s0.53-0.56 0.53-0.96v-1.19h-1.47c-1.2 0-1.8 0.37-1.8 1.12v0.29c0 0.37 0.12 0.65 0.37 0.84 0.25 0.17 0.59 0.26 1.03 0.26z"/>
			<path class="st0" d="m375.58 145.29c-0.36 0-0.62-0.09-0.79-0.26-0.16-0.17-0.25-0.39-0.25-0.65v-0.27c0-0.27 0.08-0.48 0.25-0.65 0.16-0.17 0.43-0.26 0.79-0.26s0.62 0.09 0.78 0.26 0.24 0.39 0.24 0.65v0.27c0 0.27-0.08 0.48-0.24 0.65s-0.42 0.26-0.78 0.26zm-0.88 1.48h1.74v8.28h-1.74z"/>
			<path class="st0" d="m378.76 155.05v-8.28h1.74v1.37h0.08c0.18-0.45 0.45-0.82 0.82-1.12s0.87-0.45 1.51-0.45c0.85 0 1.51 0.28 1.98 0.84s0.71 1.35 0.71 2.38v5.26h-1.74v-5.03c0-1.3-0.52-1.94-1.56-1.94-0.22 0-0.44 0.03-0.66 0.09s-0.41 0.15-0.58 0.26c-0.17 0.12-0.31 0.27-0.41 0.45s-0.15 0.39-0.15 0.64v5.54h-1.74z"/>
			<path class="st0" d="m393.91 155.05c-0.46 0-0.81-0.13-1.05-0.39s-0.39-0.59-0.45-1h-0.08c-0.16 0.52-0.45 0.91-0.88 1.18s-0.94 0.4-1.54 0.4c-0.86 0-1.52-0.22-1.98-0.67s-0.69-1.05-0.69-1.8c0-0.83 0.3-1.45 0.9-1.86s1.48-0.62 2.64-0.62h1.5v-0.7c0-0.51-0.14-0.9-0.41-1.18-0.28-0.28-0.71-0.41-1.29-0.41-0.49 0-0.89 0.11-1.19 0.32-0.31 0.21-0.57 0.48-0.78 0.81l-1.03-0.94c0.28-0.47 0.66-0.85 1.16-1.15s1.15-0.45 1.96-0.45c1.07 0 1.9 0.25 2.47 0.75s0.86 1.22 0.86 2.15v4.16h0.88v1.42h-1zm-3.5-1.13c0.54 0 0.99-0.12 1.34-0.36s0.53-0.56 0.53-0.96v-1.19h-1.47c-1.2 0-1.8 0.37-1.8 1.12v0.29c0 0.37 0.12 0.65 0.37 0.84 0.25 0.17 0.59 0.26 1.03 0.26z"/>
			<path class="st0" d="m396.43 143.26h1.74v4.87h0.08c0.18-0.5 0.47-0.88 0.88-1.15s0.89-0.41 1.44-0.41c1.05 0 1.86 0.38 2.44 1.14 0.57 0.76 0.86 1.82 0.86 3.19s-0.29 2.43-0.86 3.19-1.39 1.14-2.44 1.14c-0.55 0-1.03-0.14-1.44-0.41-0.41-0.28-0.7-0.66-0.88-1.15h-0.08v1.37h-1.74zm3.62 10.48c0.61 0 1.09-0.19 1.45-0.58s0.54-0.9 0.54-1.54v-1.43c0-0.64-0.18-1.15-0.54-1.54s-0.84-0.58-1.45-0.58c-0.53 0-0.98 0.13-1.34 0.39s-0.54 0.6-0.54 1.03v2.84c0 0.42 0.18 0.77 0.54 1.03 0.36 0.25 0.8 0.38 1.34 0.38z"/>
			<path class="st0" d="m406.58 145.29c-0.36 0-0.62-0.09-0.79-0.26-0.16-0.17-0.25-0.39-0.25-0.65v-0.27c0-0.27 0.08-0.48 0.25-0.65 0.16-0.17 0.43-0.26 0.79-0.26s0.62 0.09 0.78 0.26 0.24 0.39 0.24 0.65v0.27c0 0.27-0.08 0.48-0.24 0.65s-0.42 0.26-0.78 0.26zm-0.88 1.48h1.74v8.28h-1.74z"/>
			<path class="st0" d="m411.53 155.05c-0.6 0-1.04-0.15-1.33-0.45s-0.44-0.72-0.44-1.27v-10.07h1.74v10.37h1.15v1.42z"/>
			<path class="st0" d="m415.02 145.29c-0.36 0-0.62-0.09-0.79-0.26-0.16-0.17-0.25-0.39-0.25-0.65v-0.27c0-0.27 0.08-0.48 0.25-0.65 0.16-0.17 0.43-0.26 0.79-0.26s0.62 0.09 0.78 0.26 0.24 0.39 0.24 0.65v0.27c0 0.27-0.08 0.48-0.24 0.65s-0.42 0.26-0.78 0.26zm-0.88 1.48h1.74v8.28h-1.74z"/>
			<path class="st0" d="m420.5 155.05c-0.61 0-1.06-0.16-1.37-0.47s-0.46-0.76-0.46-1.33v-5.07h-1.29v-1.42h0.7c0.29 0 0.49-0.06 0.6-0.19s0.17-0.33 0.17-0.62v-1.45h1.56v2.26h1.74v1.42h-1.74v5.45h1.61v1.42z"/>
			<path class="st0" d="m428.94 146.77h1.67l-3.49 9.92c-0.1 0.28-0.2 0.51-0.33 0.71-0.12 0.2-0.27 0.36-0.43 0.48s-0.36 0.21-0.6 0.27c-0.23 0.06-0.51 0.09-0.83 0.09h-1v-1.42h1.4l0.48-1.4-3.01-8.65h1.74l1.66 4.87 0.48 1.8h0.08l0.53-1.8z"/>
		
		
			<path class="st1" d="m202.77 127.89c0.79 0 1.46 0.27 2.01 0.8s0.83 1.19 0.83 1.98-0.28 1.43-0.83 1.94-1.22 0.76-2.01 0.76h-23.97c-0.79 0-1.44-0.28-1.98-0.83-0.53-0.55-0.8-1.22-0.8-2.01v-42.9c0-0.79 0.28-1.44 0.83-1.98 0.55-0.53 1.25-0.8 2.08-0.8 0.79 0 1.45 0.27 2.01 0.8 0.55 0.53 0.83 1.19 0.83 1.98v41.51l-1.39-1.25z"/>
			<path class="st1" d="m230.35 92.06-16.29 39.64c-0.18 0.55-0.51 0.99-0.97 1.32-0.46 0.32-0.95 0.48-1.46 0.48-0.88 0-1.52-0.23-1.94-0.69s-0.62-1.02-0.62-1.66c-0.05-0.32 0-0.67 0.14-1.04l17.95-43.66c0.23-0.65 0.59-1.12 1.07-1.42s1.03-0.43 1.63-0.38c0.6 0 1.14 0.16 1.63 0.48s0.82 0.76 1.01 1.32l17.88 43.24c0.14 0.37 0.21 0.74 0.21 1.11 0 0.83-0.28 1.49-0.83 1.98s-1.18 0.73-1.87 0.73c-0.55 0-1.06-0.16-1.52-0.48s-0.81-0.79-1.04-1.39l-16.5-39.64zm-12.82 28.35 2.36-5.41h20.58l1.04 5.41z"/>
			<path class="st1" d="m261.05 84.79c0.42 0 0.87 0.12 1.35 0.35 0.49 0.23 0.87 0.53 1.14 0.9l18.36 27.79-2.43-0.07 18.57-27.72c0.6-0.88 1.39-1.29 2.36-1.25 0.74 0.05 1.39 0.32 1.94 0.83s0.83 1.18 0.83 2.01v42.9c0 0.79-0.28 1.46-0.83 2.01s-1.25 0.83-2.08 0.83-1.52-0.28-2.08-0.83c-0.55-0.55-0.83-1.22-0.83-2.01v-37.63l1.73 0.35-16.35 24.88c-0.28 0.32-0.61 0.6-1.01 0.83-0.39 0.23-0.8 0.35-1.21 0.35-0.42 0-0.83-0.11-1.25-0.35-0.42-0.23-0.76-0.51-1.04-0.83l-16.15-24.88 1.46-1.8v39.08c0 0.79-0.25 1.46-0.76 2.01s-1.16 0.83-1.94 0.83c-0.79 0-1.42-0.28-1.91-0.83s-0.73-1.22-0.73-2.01v-42.9c0-0.74 0.27-1.4 0.8-1.98 0.55-0.57 1.23-0.86 2.06-0.86z"/>
			<path class="st1" d="m332.08 92.06-16.28 39.64c-0.18 0.55-0.51 0.99-0.97 1.32-0.46 0.32-0.95 0.48-1.46 0.48-0.88 0-1.52-0.23-1.94-0.69s-0.62-1.02-0.62-1.66c-0.05-0.32 0-0.67 0.14-1.04l17.95-43.66c0.23-0.65 0.59-1.12 1.07-1.42s1.03-0.43 1.63-0.38c0.6 0 1.14 0.16 1.63 0.48s0.82 0.76 1.01 1.32l17.88 43.24c0.14 0.37 0.21 0.74 0.21 1.11 0 0.83-0.28 1.49-0.83 1.98s-1.18 0.73-1.87 0.73c-0.55 0-1.06-0.16-1.52-0.48s-0.81-0.79-1.04-1.39l-16.51-39.64zm-12.82 28.35 2.36-5.41h20.58l1.04 5.41z"/>
			<path class="st1" d="m374.07 134.06c-3.42 0-6.42-0.51-9.01-1.52-2.59-1.02-5.08-2.63-7.48-4.85-0.32-0.32-0.59-0.68-0.8-1.07s-0.31-0.82-0.31-1.28c0-0.74 0.27-1.4 0.8-1.98s1.19-0.87 1.97-0.87c0.65 0 1.22 0.25 1.73 0.76 1.8 1.76 3.75 3.1 5.86 4.02 2.1 0.92 4.47 1.39 7.1 1.39 2.03 0 3.87-0.32 5.51-0.97s2.95-1.55 3.92-2.7 1.45-2.49 1.45-4.02c-0.05-1.85-0.59-3.37-1.63-4.57s-2.47-2.21-4.3-3.01c-1.83-0.81-3.94-1.49-6.34-2.04-2.13-0.51-4.08-1.13-5.86-1.87s-3.32-1.65-4.61-2.74c-1.29-1.08-2.3-2.4-3.01-3.95-0.72-1.55-1.07-3.36-1.07-5.44 0-2.63 0.69-4.94 2.08-6.93s3.3-3.52 5.75-4.61c2.45-1.08 5.27-1.63 8.46-1.63 2.82 0 5.48 0.46 8 1.39 2.52 0.92 4.54 2.19 6.06 3.81 0.92 0.88 1.39 1.73 1.39 2.56 0 0.69-0.29 1.33-0.87 1.91s-1.24 0.87-1.97 0.87c-0.51 0-0.97-0.18-1.39-0.55-0.79-0.88-1.78-1.66-2.98-2.36-1.2-0.69-2.52-1.25-3.95-1.66-1.43-0.42-2.87-0.62-4.3-0.62-2.13 0-4 0.31-5.61 0.94-1.62 0.62-2.88 1.5-3.78 2.63s-1.35 2.48-1.35 4.05c0 1.76 0.51 3.2 1.52 4.33 1.02 1.13 2.38 2.06 4.09 2.77 1.71 0.72 3.6 1.35 5.68 1.91 2.26 0.55 4.35 1.19 6.27 1.91s3.57 1.61 4.95 2.67c1.39 1.06 2.46 2.41 3.22 4.05s1.14 3.66 1.14 6.06c0 2.54-0.72 4.81-2.15 6.79-1.43 1.99-3.38 3.55-5.86 4.68-2.44 1.1-5.22 1.69-8.32 1.74z"/>
			<path class="st1" d="m434.09 84.79c0.79 0 1.43 0.28 1.94 0.83s0.76 1.22 0.76 2.01v27.51c0 3.56-0.82 6.75-2.46 9.56-1.64 2.82-3.85 5.05-6.62 6.69s-5.91 2.46-9.42 2.46c-3.56 0-6.73-0.82-9.53-2.46s-5-3.87-6.62-6.69-2.43-6.01-2.43-9.56v-27.51c0-0.79 0.27-1.46 0.8-2.01s1.24-0.83 2.11-0.83c0.74 0 1.4 0.28 1.97 0.83 0.58 0.55 0.87 1.22 0.87 2.01v27.51c0 2.54 0.58 4.81 1.73 6.79 1.15 1.99 2.71 3.55 4.68 4.68 1.96 1.13 4.1 1.7 6.41 1.7 2.36 0 4.53-0.57 6.51-1.7 1.99-1.13 3.59-2.69 4.82-4.68 1.22-1.99 1.84-4.25 1.84-6.79v-27.51c0-0.79 0.23-1.46 0.69-2.01 0.47-0.55 1.11-0.83 1.95-0.83z"/>
			<path class="st1" d="m462.36 134.06c-3.42 0-6.42-0.51-9.01-1.52-2.59-1.02-5.08-2.63-7.48-4.85-0.32-0.32-0.59-0.68-0.8-1.07s-0.31-0.82-0.31-1.28c0-0.74 0.27-1.4 0.8-1.98s1.19-0.87 1.97-0.87c0.65 0 1.22 0.25 1.73 0.76 1.8 1.76 3.75 3.1 5.86 4.02 2.1 0.92 4.47 1.39 7.1 1.39 2.03 0 3.87-0.32 5.51-0.97s2.95-1.55 3.92-2.7 1.45-2.49 1.45-4.02c-0.05-1.85-0.59-3.37-1.63-4.57s-2.47-2.21-4.3-3.01c-1.83-0.81-3.94-1.49-6.34-2.04-2.13-0.51-4.08-1.13-5.86-1.87s-3.32-1.65-4.61-2.74c-1.29-1.08-2.3-2.4-3.01-3.95-0.72-1.55-1.07-3.36-1.07-5.44 0-2.63 0.69-4.94 2.08-6.93s3.3-3.52 5.75-4.61c2.45-1.08 5.27-1.63 8.46-1.63 2.82 0 5.48 0.46 8 1.39 2.52 0.92 4.54 2.19 6.06 3.81 0.92 0.88 1.39 1.73 1.39 2.56 0 0.69-0.29 1.33-0.87 1.91s-1.24 0.87-1.97 0.87c-0.51 0-0.97-0.18-1.39-0.55-0.79-0.88-1.78-1.66-2.98-2.36-1.2-0.69-2.52-1.25-3.95-1.66-1.43-0.42-2.87-0.62-4.3-0.62-2.13 0-4 0.31-5.61 0.94-1.62 0.62-2.88 1.5-3.78 2.63s-1.35 2.48-1.35 4.05c0 1.76 0.51 3.2 1.52 4.33 1.02 1.13 2.38 2.06 4.09 2.77 1.71 0.72 3.6 1.35 5.68 1.91 2.26 0.55 4.35 1.19 6.27 1.91s3.57 1.61 4.95 2.67c1.39 1.06 2.46 2.41 3.22 4.05s1.14 3.66 1.14 6.06c0 2.54-0.72 4.81-2.15 6.79-1.43 1.99-3.38 3.55-5.86 4.68-2.44 1.1-5.23 1.69-8.32 1.74z"/>
		
	
	
		<linearGradient id="SVGID_1_" x1="63.4265" x2="174.188" y1="174.822" y2="64.0595" gradientUnits="userSpaceOnUse">
			<stop stop-color="#35B558" offset="0"/>
			<stop stop-color="#14B1E7" offset="1"/>
		</linearGradient>
		<path class="st2" d="m174.17 168.76h-27.31c2.69-2.43 4.29-6.31 4.92-9.81 0.19-1.07-0.74-2.01-1.82-1.81-2.11 0.38-4.26 1.08-6.18 2.12-0.56-2.97-2.02-6.06-3.69-8.46-0.3-0.43-0.8-0.69-1.32-0.69-0.53 0-1.02 0.26-1.32 0.69-0.94 1.36-2.96 4.62-3.69 8.46-1.91-1.04-4.07-1.74-6.18-2.12-1.07-0.19-2.01 0.74-1.81 1.82 0.19 1.04 0.78 3.73 2.2 6.31 0.77 1.4 1.69 2.57 2.72 3.5h-17.48c-0.68 0-1.23 0.55-1.23 1.23s0.55 1.23 1.23 1.23h60.96c0.68 0 1.23-0.55 1.23-1.23s-0.55-1.24-1.23-1.24zm-38.28 0c-4.73-0.94-6.7-6.22-7.4-8.92 4.77 1.23 9.02 3.99 9.07 8.92zm0.13-8c0.33-3.05 1.78-5.88 2.76-7.5 1.35 2.23 2.48 4.88 2.76 7.5-1.12 0.91-2.07 1.98-2.76 3.22-0.69-1.25-1.64-2.32-2.76-3.22zm5.65 8h-1.66c0.05-4.92 4.3-7.69 9.07-8.92-0.71 2.7-2.68 7.98-7.41 8.92zm-11.07-39.31c-0.32 0-0.64-0.11-0.89-0.35-0.54-0.49-0.57-1.33-0.08-1.87 1.23-1.34 2.31-3.57 3.2-5.57 5.28-11.83 3.38-26.45 1.7-39.35-0.14-1.06-0.27-2.09-0.4-3.12-0.18-1.41-0.5-3.1-0.84-4.89-0.93-4.93-1.99-10.52-1.07-14.77 0.15-0.71 0.86-1.17 1.57-1.01 0.71 0.15 1.17 0.86 1.01 1.57-0.8 3.72 0.2 9.03 1.09 13.72 0.35 1.83 0.67 3.56 0.86 5.05 0.13 1.02 0.26 2.05 0.4 3.11 1.64 12.59 3.68 28.26-1.91 40.77-1.03 2.31-2.19 4.67-3.67 6.28-0.25 0.28-0.61 0.43-0.97 0.43m-71.62-15.52c1.7-0.4 3.4-1.03 5.06-1.96 0.01 0.06 0.21 0.35 0.52 0.79-3.29 2.27-5.99 5.06-7.81 8.14-3.49 5.89-3.91 12.38-1.37 21.03 1.53 5.23 3.06 11.4 4.54 17.38 0.66 2.69 1.3 5.27 1.93 7.73 1.84-5.09 4.03-13.65 5.47-19.26 0.89-3.46 1.36-5.3 1.61-5.95 0.95-2.5 3.98-2.72 6.65-2.91 0.52-0.04 1.04-0.07 1.53-0.13l33.83-3.73c0.04-0.01 0.09-0.01 0.13-0.01l1.55-0.02h0.11c1.78 0.14 2.89 0.79 3.29 1.95 1.02 2.93-3.4 7.23-11.3 14.59-2.17 2.02-4.38 4.08-6.27 5.99 9.23-4.26 18.18-9.28 26.67-14.97 0.83-0.56 1.84-1.21 2.94-1.93 3.56-2.31 12.71-8.26 13.87-10.58-1.56-0.78-7.85-0.91-10.81-0.62-0.73 0.07-1.37-0.46-1.44-1.19s0.46-1.37 1.19-1.44c0.71-0.07 3.73-0.23 6.64-0.09 4.56 0.22 6.7 1 7.14 2.64 0.03 0.11 0.05 0.23 0.05 0.34 0.01 2.79-4.89 6.46-15.19 13.15-1.09 0.71-2.09 1.36-2.91 1.91-10.3 6.9-21.26 12.83-32.59 17.63-0.55 0.23-1.18 0.07-1.55-0.39s-0.39-1.11-0.04-1.6c2.17-3.04 6.41-6.98 10.5-10.79 4.04-3.76 10.77-10.03 10.61-11.74-0.08-0.05-0.33-0.17-0.95-0.22l-1.43 0.02-33.77 3.72c-0.52 0.06-1.07 0.1-1.63 0.14-1.79 0.13-4.02 0.29-4.37 1.21-0.21 0.55-0.82 2.92-1.52 5.67-2 7.82-5.03 19.64-7.21 23.3-0.24 0.4-0.67 0.65-1.13 0.65-0.06 0-0.12 0-0.18-0.01-0.53-0.07-0.96-0.45-1.1-0.97-0.94-3.52-1.9-7.38-2.9-11.46-1.47-5.95-2.99-12.1-4.51-17.27-1.86-6.34-3.36-14.69 1.63-23.12 1.2-2 2.73-3.89 4.52-5.62m91.88-60.82c0.39 1.14-0.41 2.16-0.71 2.54-1.63 2.06-11.95 4.03-16.31 4.78-0.72 0.12-1.4-0.36-1.53-1.08-0.12-0.72 0.36-1.4 1.08-1.53 6.31-1.09 13.72-2.86 14.7-3.83-0.68-0.26-2.02-0.59-3.41-0.94-0.46-0.11-0.95-0.24-1.48-0.37-2.28-0.57-4.44-1.84-6.53-3.06-3.15-1.84-5.86-3.44-8.19-2.38-4.28 1.94-5.82 5.66-7.18 11.84-0.15 0.69-0.33 1.65-0.54 2.75-1.26 6.64-3.66 19.29-9.57 29.64-0.64-0.62-1.3-1.24-1.98-1.85 5.45-9.85 7.75-21.92 8.95-28.28 0.21-1.13 0.4-2.1 0.56-2.83 1.51-6.86 3.41-11.29 8.67-13.68 3.57-1.62 7.15 0.48 10.62 2.51 1.93 1.13 3.92 2.3 5.84 2.78 0.53 0.13 1.02 0.25 1.47 0.37 3.59 0.88 5.08 1.25 5.54 2.62m-29.23 0.74c-0.08 0-0.15-0.01-0.23-0.03-0.43-0.13-0.68-0.58-0.55-1l7.24-24.71c0.08-0.29 0.33-0.51 0.62-0.57 0.3-0.06 0.6 0.06 0.79 0.3 4.77 6.11-0.99 18.11-1.24 18.62-0.2 0.4-0.68 0.57-1.08 0.37s-0.57-0.68-0.37-1.08c0.05-0.1 4.63-9.66 2.3-15.37l-6.71 22.9c-0.09 0.35-0.42 0.57-0.77 0.57m6.86-7.73c-0.16 0-0.32-0.05-0.46-0.15-0.37-0.26-0.46-0.76-0.2-1.13l10.6-15.21c0.19-0.27 0.52-0.4 0.85-0.33 0.32 0.07 0.57 0.34 0.62 0.66 0.96 6.24-3.6 11.8-6.32 15.13-0.2 0.25-0.4 0.48-0.58 0.71-0.28 0.35-0.79 0.4-1.14 0.12s-0.4-0.79-0.12-1.14c0.18-0.23 0.38-0.46 0.58-0.72 2.19-2.67 5.64-6.89 6.05-11.52l-9.21 13.21c-0.17 0.25-0.42 0.37-0.67 0.37m-54.37 76.23c-0.49 0-0.97-0.04-1.43-0.11-1.17-0.18-2.23-0.83-3.14-1.92-0.05-0.06-3.62-4.5-5.32-6.95-6.71 3.25-14.83 2.69-23.58-1.67-6.83-3.4-11.59-7.85-11.79-8.04-0.33-0.31-0.47-0.76-0.39-1.2s0.38-0.81 0.79-0.98c2-0.84 49.24-20.47 62.93-21.61 11.79-0.98 23.82 13.53 28.35 18.99 0.59 0.71 1.19 1.44 1.44 1.68 0.42 0.24 0.68 0.71 0.65 1.23-0.05 0.73-0.66 1.28-1.4 1.23-0.72-0.05-0.94-0.32-2.71-2.45-4.29-5.17-15.69-18.92-26.1-18.04-11.73 0.98-50.85 16.79-60.15 20.6 4.78 3.88 19.42 14.3 31.74 7.41 0.38-0.21 0.83-0.22 1.22-0.04 0.28 0.14 0.5 0.36 0.63 0.64 0.49 0.78 4.69 6.28 5.72 7.52 0.49 0.59 0.99 0.92 1.51 1 1.04 0.16 2.24 0.07 3.55-0.28 1.21-0.32 2.38-0.8 3.61-1.31 0.3-0.12 0.59-0.24 0.89-0.36 2.17-0.88 4.43-1.65 6.7-2.3 2.76-0.78 5.6-1.39 8.45-1.8 1.42-0.21 2.86-0.37 4.29-0.48l0.64-0.05c1.2-0.1 2.45-0.21 3.7-0.07 0.73 0.08 1.25 0.73 1.17 1.46s-0.73 1.25-1.46 1.17c-1-0.11-2.11-0.02-3.19 0.07l-0.65 0.05c-1.37 0.11-2.75 0.26-4.12 0.46-2.73 0.39-5.45 0.97-8.1 1.72-2.18 0.62-4.34 1.36-6.43 2.2l-0.87 0.36c-1.26 0.52-2.56 1.06-3.94 1.43-1.13 0.29-2.2 0.44-3.21 0.44m47.28-21.98m-58.13 13.3c-0.46 0-0.9-0.24-1.15-0.66-0.36-0.63-0.15-1.44 0.48-1.81 9.71-5.61 25.34-10.73 31.33-10.98 0.72-0.03 1.34 0.54 1.38 1.26 0.03 0.73-0.54 1.34-1.27 1.38-5.57 0.23-20.87 5.29-30.12 10.63-0.19 0.12-0.42 0.18-0.65 0.18" fill="url(#SVGID_1_)"/>
	
</g>
</svg>
